<svg width="33" height="32" viewBox="0 0 33 32" fill="none" xmlns="http://www.w3.org/2000/svg">
<path d="M13.1885 18.3336C13.1885 19.627 14.1885 20.667 15.4152 20.667H17.9218C18.9885 20.667 19.8551 19.7603 19.8551 18.627C19.8551 17.4136 19.3218 16.9736 18.5352 16.6936L14.5218 15.2936C13.7351 15.0136 13.2018 14.587 13.2018 13.3603C13.2018 12.2403 14.0685 11.3203 15.1351 11.3203H17.6418C18.8685 11.3203 19.8685 12.3603 19.8685 13.6536" stroke="white" stroke-width="1.5" stroke-linecap="round" stroke-linejoin="round"/>
<path d="M16.5215 10V22" stroke="white" stroke-width="1.5" stroke-linecap="round" stroke-linejoin="round"/>
<path d="M29.8551 15.9993C29.8551 23.3593 23.8818 29.3327 16.5218 29.3327C9.16181 29.3327 3.18848 23.3593 3.18848 15.9993C3.18848 8.63935 9.16181 2.66602 16.5218 2.66602" stroke="white" stroke-width="1.5" stroke-linecap="round" stroke-linejoin="round"/>
<path d="M23.1885 4V9.33333H28.5218" stroke="white" stroke-width="1.5" stroke-linecap="round" stroke-linejoin="round"/>
<path d="M29.8551 2.66602L23.1885 9.33268" stroke="white" stroke-width="1.5" stroke-linecap="round" stroke-linejoin="round"/>
</svg>