<svg width="33" height="32" viewBox="0 0 33 32" fill="none" xmlns="http://www.w3.org/2000/svg">
<path d="M31.1878 21.293C31.1878 26.453 27.0145 30.6263 21.8545 30.6263L23.2545 28.293" stroke="white" stroke-width="1.5" stroke-linecap="round" stroke-linejoin="round"/>
<path d="M1.85449 10.6263C1.85449 5.4663 6.02783 1.29297 11.1878 1.29297L9.78783 3.6263" stroke="white" stroke-width="1.5" stroke-linecap="round" stroke-linejoin="round"/>
<path d="M9.34863 17.4277H13.0953C13.922 17.4277 14.602 18.1744 14.602 18.9344C14.602 19.7611 13.9353 20.4411 13.0953 20.4411H9.34863V17.4277Z" stroke="white" stroke-width="1.5" stroke-miterlimit="10" stroke-linecap="round" stroke-linejoin="round"/>
<path d="M9.34863 20.4395H13.642C14.5886 20.4395 15.362 21.1061 15.362 21.9461C15.362 22.7728 14.5886 23.4528 13.642 23.4528H9.34863V20.4395Z" stroke="white" stroke-width="1.5" stroke-miterlimit="10" stroke-linecap="round" stroke-linejoin="round"/>
<path d="M11.749 23.4395V24.9328" stroke="white" stroke-width="1.5" stroke-miterlimit="10" stroke-linecap="round" stroke-linejoin="round"/>
<path d="M11.749 15.9336V17.4269" stroke="white" stroke-width="1.5" stroke-miterlimit="10" stroke-linecap="round" stroke-linejoin="round"/>
<path d="M20.3215 20.4416C20.3215 24.9882 16.6415 28.6682 12.0948 28.6682C7.54817 28.6682 3.86816 24.9882 3.86816 20.4416C3.86816 15.8949 7.54817 12.2148 12.0948 12.2148C12.3082 12.2148 12.5082 12.2282 12.7348 12.2415C16.7748 12.5482 20.0015 15.7749 20.3082 19.8149C20.3082 20.0149 20.3215 20.2149 20.3215 20.4416Z" stroke="white" stroke-width="1.5" stroke-miterlimit="10" stroke-linecap="round" stroke-linejoin="round"/>
<path d="M29.1877 11.5606C29.1877 16.1073 25.5077 19.7874 20.961 19.7874H20.3077C20.001 15.7474 16.7744 12.5206 12.7344 12.2139V11.5606C12.7344 7.01396 16.4144 3.33398 20.961 3.33398C25.5077 3.33398 29.1877 7.01396 29.1877 11.5606Z" stroke="white" stroke-width="1.5" stroke-miterlimit="10" stroke-linecap="round" stroke-linejoin="round"/>
</svg>
