<svg width="33" height="32" viewBox="0 0 33 32" fill="none" xmlns="http://www.w3.org/2000/svg">
<path d="M24.435 9.54602C24.355 9.53269 24.2617 9.53269 24.1817 9.54602C22.3417 9.47935 20.875 7.97268 20.875 6.10602C20.875 4.19935 22.4083 2.66602 24.315 2.66602C26.2217 2.66602 27.755 4.21268 27.755 6.10602C27.7417 7.97268 26.275 9.47935 24.435 9.54602Z" stroke="white" stroke-width="1.5" stroke-linecap="round" stroke-linejoin="round"/>
<path d="M23.0615 19.2529C24.8882 19.5596 26.9015 19.2396 28.3148 18.2929C30.1948 17.0396 30.1948 14.9862 28.3148 13.7329C26.8882 12.7862 24.8482 12.4662 23.0215 12.7862" stroke="white" stroke-width="1.5" stroke-linecap="round" stroke-linejoin="round"/>
<path d="M8.39422 9.54602C8.47422 9.53269 8.56755 9.53269 8.64755 9.54602C10.4876 9.47935 11.9542 7.97268 11.9542 6.10602C11.9542 4.19935 10.4209 2.66602 8.51422 2.66602C6.60755 2.66602 5.07422 4.21268 5.07422 6.10602C5.08755 7.97268 6.55422 9.47935 8.39422 9.54602Z" stroke="white" stroke-width="1.5" stroke-linecap="round" stroke-linejoin="round"/>
<path d="M9.76782 19.2529C7.94116 19.5596 5.92783 19.2396 4.51449 18.2929C2.63449 17.0396 2.63449 14.9862 4.51449 13.7329C5.94116 12.7862 7.98116 12.4662 9.80782 12.7862" stroke="white" stroke-width="1.5" stroke-linecap="round" stroke-linejoin="round"/>
<path d="M16.435 19.507C16.355 19.4936 16.2617 19.4936 16.1817 19.507C14.3417 19.4403 12.875 17.9336 12.875 16.067C12.875 14.1603 14.4083 12.627 16.315 12.627C18.2217 12.627 19.755 14.1736 19.755 16.067C19.7417 17.9336 18.275 19.4536 16.435 19.507Z" stroke="white" stroke-width="1.5" stroke-linecap="round" stroke-linejoin="round"/>
<path d="M12.5545 23.7065C10.6745 24.9598 10.6745 27.0131 12.5545 28.2665C14.6879 29.6931 18.1812 29.6931 20.3145 28.2665C22.1945 27.0131 22.1945 24.9598 20.3145 23.7065C18.1945 22.2932 14.6879 22.2932 12.5545 23.7065Z" stroke="white" stroke-width="1.5" stroke-linecap="round" stroke-linejoin="round"/>
</svg>
