<svg width="24" height="25" viewBox="0 0 24 25" fill="none" xmlns="http://www.w3.org/2000/svg">
<path d="M9 22.5H15C20 22.5 22 20.5 22 15.5V9.5C22 4.5 20 2.5 15 2.5H9C4 2.5 2 4.5 2 9.5V15.5C2 20.5 4 22.5 9 22.5Z" stroke="url(#paint0_linear_947_6764)" stroke-width="1.5" stroke-linecap="round" stroke-linejoin="round"/>
<path d="M14.3511 11.4111C14.2511 12.1211 13.8311 12.7211 13.2511 13.0811V15.0611C13.2511 15.7511 12.6911 16.3111 12.0011 16.3111C11.3111 16.3111 10.7511 15.7511 10.7511 15.0611V13.0811C10.1711 12.7211 9.75109 12.1211 9.65109 11.4111C9.63109 11.3011 9.62109 11.1811 9.62109 11.0611C9.62109 9.54109 11.0611 8.3611 12.6411 8.7811C13.4411 8.9911 14.0911 9.6411 14.3011 10.4411C14.3911 10.7711 14.4011 11.1011 14.3511 11.4111Z" stroke="url(#paint1_linear_947_6764)" stroke-width="1.5" stroke-miterlimit="10"/>
<path d="M22.0016 11.4102H14.3516" stroke="url(#paint2_linear_947_6764)" stroke-width="1.5" stroke-miterlimit="10"/>
<path d="M9.64999 11.4102H2" stroke="url(#paint3_linear_947_6764)" stroke-width="1.5" stroke-miterlimit="10"/>
<defs>
<linearGradient id="paint0_linear_947_6764" x1="12" y1="2.5" x2="12" y2="22.5" gradientUnits="userSpaceOnUse">
<stop stop-color="#224A46"/>
<stop offset="1" stop-color="#224A46"/>
</linearGradient>
<linearGradient id="paint1_linear_947_6764" x1="12.0011" y1="8.69531" x2="12.0011" y2="16.3111" gradientUnits="userSpaceOnUse">
<stop stop-color="#224A46"/>
<stop offset="1" stop-color="#224A46"/>
</linearGradient>
<linearGradient id="paint2_linear_947_6764" x1="18.1766" y1="11.4102" x2="18.1766" y2="12.4102" gradientUnits="userSpaceOnUse">
<stop stop-color="#224A46"/>
<stop offset="1" stop-color="#224A46"/>
</linearGradient>
<linearGradient id="paint3_linear_947_6764" x1="5.825" y1="11.4102" x2="5.825" y2="12.4102" gradientUnits="userSpaceOnUse">
<stop stop-color="#224A46"/>
<stop offset="1" stop-color="#224A46"/>
</linearGradient>
</defs>
</svg>
