<svg width="24" height="25" viewBox="0 0 24 25" fill="none" xmlns="http://www.w3.org/2000/svg">
<path d="M18.0001 7.66C17.9401 7.65 17.8701 7.65 17.8101 7.66C16.4301 7.61 15.3301 6.48 15.3301 5.08C15.3301 3.65 16.4801 2.5 17.9101 2.5C19.3401 2.5 20.4901 3.66 20.4901 5.08C20.4801 6.48 19.3801 7.61 18.0001 7.66Z" stroke="#224A46" stroke-width="1.5" stroke-linecap="round" stroke-linejoin="round"/>
<path d="M16.9704 14.9402C18.3404 15.1702 19.8504 14.9302 20.9104 14.2202C22.3204 13.2802 22.3204 11.7402 20.9104 10.8002C19.8404 10.0902 18.3104 9.85016 16.9404 10.0902" stroke="#224A46" stroke-width="1.5" stroke-linecap="round" stroke-linejoin="round"/>
<path d="M5.97047 7.66C6.03047 7.65 6.10047 7.65 6.16047 7.66C7.54047 7.61 8.64047 6.48 8.64047 5.08C8.64047 3.65 7.49047 2.5 6.06047 2.5C4.63047 2.5 3.48047 3.66 3.48047 5.08C3.49047 6.48 4.59047 7.61 5.97047 7.66Z" stroke="#224A46" stroke-width="1.5" stroke-linecap="round" stroke-linejoin="round"/>
<path d="M7.00043 14.9402C5.63043 15.1702 4.12043 14.9302 3.06043 14.2202C1.65043 13.2802 1.65043 11.7402 3.06043 10.8002C4.13043 10.0902 5.66043 9.85016 7.03043 10.0902" stroke="#224A46" stroke-width="1.5" stroke-linecap="round" stroke-linejoin="round"/>
<path d="M12.0001 15.1307C11.9401 15.1207 11.8701 15.1207 11.8101 15.1307C10.4301 15.0807 9.33008 13.9507 9.33008 12.5507C9.33008 11.1207 10.4801 9.9707 11.9101 9.9707C13.3401 9.9707 14.4901 11.1307 14.4901 12.5507C14.4801 13.9507 13.3801 15.0907 12.0001 15.1307Z" stroke="#224A46" stroke-width="1.5" stroke-linecap="round" stroke-linejoin="round"/>
<path d="M9.08973 18.2813C7.67973 19.2213 7.67973 20.7613 9.08973 21.7013C10.6897 22.7713 13.3097 22.7713 14.9097 21.7013C16.3197 20.7613 16.3197 19.2213 14.9097 18.2813C13.3197 17.2213 10.6897 17.2213 9.08973 18.2813Z" stroke="#224A46" stroke-width="1.5" stroke-linecap="round" stroke-linejoin="round"/>
</svg>
