<svg width="24" height="25" viewBox="0 0 24 25" fill="none" xmlns="http://www.w3.org/2000/svg">
<path d="M17 18.9297H13L8.54999 21.8897C7.88999 22.3297 7 21.8598 7 21.0598V18.9297C4 18.9297 2 16.9297 2 13.9297V7.92969C2 4.92969 4 2.92969 7 2.92969H17C20 2.92969 22 4.92969 22 7.92969V13.9297C22 16.9297 20 18.9297 17 18.9297Z" stroke="#224A46" stroke-width="1.5" stroke-miterlimit="10" stroke-linecap="round" stroke-linejoin="round"/>
<path d="M11.9998 11.8594V11.6494C11.9998 10.9694 12.4198 10.6094 12.8398 10.3194C13.2498 10.0394 13.6598 9.67941 13.6598 9.01941C13.6598 8.09941 12.9198 7.35938 11.9998 7.35938C11.0798 7.35938 10.3398 8.09941 10.3398 9.01941" stroke="#224A46" stroke-width="1.5" stroke-linecap="round" stroke-linejoin="round"/>
<path d="M11.9955 14.25H12.0045" stroke="#224A46" stroke-width="1.5" stroke-linecap="round" stroke-linejoin="round"/>
</svg>
