<svg width="256" height="256" viewBox="0 0 256 256" fill="none" xmlns="http://www.w3.org/2000/svg">
<path d="M225.644 135.045C226.668 121.441 223.503 107.238 219.264 94.5971C212.992 75.776 200.745 56.489 180.163 52.0346C168.294 49.4746 156.216 52.2189 146.038 58.6496C136.254 64.8346 128.63 72.8269 116.593 74.3731C104.422 75.9398 91.9348 75.3101 79.7031 75.3101C48.2509 75.3101 22.7277 108.349 29.1073 142.766C35.4868 177.183 65.5719 201.047 91.0951 201.047C114.033 201.047 132.905 187.29 154.691 183.593C165.494 181.76 176.343 183.931 187.034 181.187C199.46 177.992 211.144 170.378 218.03 159.355C222.72 151.839 225.004 143.56 225.644 135.045Z" fill="#8BC4B5"/>
<path opacity="0.7" d="M225.644 135.045C226.668 121.441 223.503 107.238 219.264 94.5971C212.992 75.776 200.745 56.489 180.163 52.0346C168.294 49.4746 156.216 52.2189 146.038 58.6496C136.254 64.8346 128.63 72.8269 116.593 74.3731C104.422 75.9398 91.9348 75.3101 79.7031 75.3101C48.2509 75.3101 22.7277 108.349 29.1073 142.766C35.4868 177.183 65.5719 201.047 91.0951 201.047C114.033 201.047 132.905 187.29 154.691 183.593C165.494 181.76 176.343 183.931 187.034 181.187C199.46 177.992 211.144 170.378 218.03 159.355C222.72 151.839 225.004 143.56 225.644 135.045Z" fill="white"/>
<path d="M221.962 130.268C221.962 130.268 221.962 127.708 218.378 124.16C214.794 120.612 212.521 118.554 212.521 118.554C212.521 118.554 210.739 124.411 214.057 127.98C216.492 130.486 219.133 132.784 221.952 134.851L221.962 130.268Z" fill="#8BC4B5"/>
<path d="M216.791 146.171C216.791 146.171 216.791 143.611 213.207 140.063C209.623 136.515 207.36 134.456 207.36 134.456C207.36 134.456 205.573 140.314 208.896 143.882C211.332 146.389 213.972 148.687 216.791 150.753V146.171Z" fill="#8BC4B5"/>
<path d="M221.737 134.605C221.737 134.605 222.008 132.076 225.93 128.906C229.852 125.737 232.346 123.955 232.346 123.955C232.346 123.955 233.498 129.966 229.832 133.171C227.145 135.407 224.276 137.414 221.256 139.172L221.737 134.605Z" fill="#8BC4B5"/>
<path d="M215.49 153.385C215.49 153.385 216.002 150.897 220.257 148.157C224.512 145.418 227.154 143.908 227.154 143.908C227.154 143.908 227.666 150.011 223.688 152.801C220.781 154.743 217.717 156.438 214.528 157.87L215.49 153.385Z" fill="#8BC4B5"/>
<path d="M216.663 173.865C216.663 173.865 216.663 171.305 220.247 167.752C223.831 164.198 226.099 162.15 226.099 162.15C226.099 162.15 227.886 168.008 224.563 171.571C222.128 174.08 219.487 176.38 216.668 178.447L216.663 173.865Z" fill="#8BC4B5"/>
<path d="M216.607 178.862C216.607 178.862 216.965 176.343 213.944 172.308C210.923 168.274 208.942 165.929 208.942 165.929C208.942 165.929 206.346 171.474 209.116 175.473C211.169 178.301 213.456 180.952 215.951 183.398L216.607 178.862Z" fill="#8BC4B5"/>
<path d="M213.089 193.674C213.089 193.674 213.089 191.114 216.673 187.566C220.257 184.018 222.53 181.96 222.53 181.96C222.53 181.96 224.312 187.817 220.994 191.386C218.558 193.893 215.917 196.193 213.099 198.262L213.089 193.674Z" fill="#8BC4B5"/>
<path d="M215.47 207.104C215.47 207.104 214.825 204.641 217.37 200.289C219.914 195.937 221.619 193.388 221.619 193.388C221.619 193.388 224.824 198.6 222.525 202.89C220.806 205.932 218.834 208.825 216.632 211.538L215.47 207.104Z" fill="#8BC4B5"/>
<path d="M222.285 129.618C222.105 132.269 221.781 134.908 221.312 137.523C219.899 144.804 216.376 149.504 214.968 156.078C213.56 162.652 217.605 171.126 216.504 179.574C215.403 188.022 212.137 192.717 213.074 198.354C214.011 203.991 218.946 219.259 218.946 219.259" stroke="#263238" stroke-linecap="round" stroke-linejoin="round"/>
<path d="M221.706 136.3L225.546 133.35" stroke="#263238" stroke-linecap="round" stroke-linejoin="round"/>
<path d="M221.885 132.905L220.272 130.043" stroke="#263238" stroke-linecap="round" stroke-linejoin="round"/>
<path d="M215.183 155.776C215.183 155.776 218.399 153.364 221.706 150.953" stroke="#263238" stroke-linecap="round" stroke-linejoin="round"/>
<path d="M216.791 150.753C216.791 150.753 214.108 145.5 211.072 142.019" stroke="#263238" stroke-linecap="round" stroke-linejoin="round"/>
<path d="M216.791 177.49C218.625 174.1 220.943 170.996 223.672 168.274" stroke="#263238" stroke-linecap="round" stroke-linejoin="round"/>
<path d="M216.166 181.064C215.191 178.765 214.024 176.553 212.68 174.449C210.806 171.679 210.534 171.32 210.534 171.32" stroke="#263238" stroke-linecap="round" stroke-linejoin="round"/>
<path d="M213.089 198.354C213.905 196.336 214.874 194.383 215.987 192.512C217.101 190.773 218.356 189.129 219.74 187.597" stroke="#263238" stroke-linecap="round" stroke-linejoin="round"/>
<path d="M216.632 211.538C216.446 209.608 216.778 207.664 217.595 205.906C218.936 203.315 220.452 199.921 221.076 198.579" stroke="#263238" stroke-linecap="round" stroke-linejoin="round"/>
<path d="M192.87 164.291C192.87 164.291 192.594 162.693 194.442 160.067C196.291 157.44 197.514 155.919 197.514 155.919C197.514 155.919 199.265 159.401 197.576 161.992C196.321 163.829 194.915 165.559 193.372 167.163L192.87 164.291Z" fill="#8BC4B5"/>
<path d="M197.842 173.701C197.842 173.701 197.565 172.104 199.414 169.477C201.262 166.851 202.486 165.33 202.486 165.33C202.486 165.33 204.237 168.812 202.547 171.407C201.291 173.243 199.885 174.971 198.344 176.573L197.842 173.701Z" fill="#8BC4B5"/>
<path d="M193.48 166.984C193.48 166.984 193.039 165.448 190.234 163.866C187.428 162.284 185.677 161.454 185.677 161.454C185.677 161.454 185.605 165.35 188.237 166.958C190.163 168.067 192.179 169.014 194.263 169.789L193.48 166.984Z" fill="#8BC4B5"/>
<path d="M199.439 178.084C199.439 178.084 198.835 176.579 195.886 175.319C192.937 174.06 191.094 173.404 191.094 173.404C191.094 173.404 191.432 177.285 194.237 178.606C196.271 179.507 198.375 180.236 200.53 180.787L199.439 178.084Z" fill="#8BC4B5"/>
<path d="M200.924 191.053C200.924 191.053 200.653 189.455 198.026 187.607C195.4 185.759 193.746 184.73 193.746 184.73C193.746 184.73 193.264 188.595 195.727 190.469C197.526 191.779 199.433 192.935 201.426 193.925L200.924 191.053Z" fill="#8BC4B5"/>
<path d="M201.508 194.181C201.508 194.181 200.996 192.645 202.465 189.778C203.935 186.911 204.907 185.236 204.907 185.236C204.907 185.236 207.135 188.431 205.834 191.242C204.854 193.238 203.709 195.147 202.409 196.951L201.508 194.181Z" fill="#8BC4B5"/>
<path d="M205.983 207.058C205.983 207.058 206.167 205.45 208.681 203.474C211.195 201.498 212.777 200.356 212.777 200.356C212.777 200.356 213.478 204.191 211.128 206.203C209.407 207.611 207.571 208.874 205.64 209.976L205.983 207.058Z" fill="#8BC4B5"/>
<path d="M205.312 203.085C205.312 203.085 205.035 201.487 202.414 199.639C199.793 197.791 198.144 196.762 198.144 196.762C198.144 196.762 197.663 200.627 200.125 202.506C201.926 203.814 203.832 204.97 205.824 205.962L205.312 203.085Z" fill="#8BC4B5"/>
<path d="M205.312 211.768C205.312 211.768 205.445 210.15 203.377 207.698C201.308 205.245 199.967 203.832 199.967 203.832C199.967 203.832 198.518 207.447 200.427 209.889C201.827 211.609 203.369 213.209 205.035 214.671L205.312 211.768Z" fill="#8BC4B5"/>
<path d="M192.599 163.912C193 165.555 193.49 167.176 194.068 168.765C195.743 173.179 198.461 175.744 200.059 179.712C201.656 183.68 200.059 189.44 201.636 194.616C203.213 199.793 205.824 202.383 205.824 206.019C205.824 209.654 204.411 219.766 204.411 219.766" stroke="#263238" stroke-linecap="round" stroke-linejoin="round"/>
<path d="M193.689 168.038L190.96 166.61" stroke="#263238" stroke-linecap="round" stroke-linejoin="round"/>
<path d="M193.208 165.929L193.905 163.963" stroke="#263238" stroke-linecap="round" stroke-linejoin="round"/>
<path d="M199.89 179.548C199.89 179.548 197.611 178.386 195.282 177.229" stroke="#263238" stroke-linecap="round" stroke-linejoin="round"/>
<path d="M198.338 176.573C199.01 174.464 199.893 172.428 200.975 170.496" stroke="#263238" stroke-linecap="round" stroke-linejoin="round"/>
<path d="M201.242 193.336C199.722 191.414 197.932 189.722 195.927 188.314" stroke="#263238" stroke-linecap="round" stroke-linejoin="round"/>
<path d="M202.02 195.507C202.384 193.962 202.876 192.45 203.489 190.986C204.365 189.046 204.513 188.79 204.513 188.79" stroke="#263238" stroke-linecap="round" stroke-linejoin="round"/>
<path d="M205.701 208.778C206.589 207.678 207.572 206.659 208.64 205.732C209.319 205.232 209.956 204.677 210.544 204.073" stroke="#263238" stroke-linecap="round" stroke-linejoin="round"/>
<path d="M205.824 206.019C205.092 204.839 204.272 203.716 203.371 202.66C202.484 201.691 201.518 200.797 200.484 199.987" stroke="#263238" stroke-linecap="round" stroke-linejoin="round"/>
<path d="M205.035 214.671C204.944 213.44 204.525 212.256 203.822 211.241C202.701 209.761 201.38 207.795 200.842 207.022" stroke="#263238" stroke-linecap="round" stroke-linejoin="round"/>
<path d="M47.4471 141.988L45.2046 135.583L47.4471 138.301L45.6859 128.691L48.4097 135.583L49.3723 122.122L50.9748 134.938L52.7361 132.378V135.583L54.8199 131.256L53.6987 138.783L55.6187 137.503L52.5774 141.665L47.4471 141.988Z" fill="#8BC4B5"/>
<path d="M54.4972 140.385H46.167L47.6672 157.204H52.9971L54.4972 140.385Z" fill="#263238" stroke="#263238" stroke-linecap="round" stroke-linejoin="round"/>
<path d="M70.1236 157.015H41.7434V217.124H70.1236V157.015Z" fill="white" stroke="#263238" stroke-linecap="round" stroke-linejoin="round"/>
<path d="M71.6749 157.015H55.9309V217.124H71.6749V157.015Z" fill="white" stroke="#263238" stroke-linecap="round" stroke-linejoin="round"/>
<path d="M69.9034 157.015H55.9309V217.124H69.9034V157.015Z" fill="#263238" stroke="#263238" stroke-linecap="round" stroke-linejoin="round"/>
<path d="M68.3316 203.146H55.9309V215.455H68.3316V203.146Z" fill="#8BC4B5" stroke="#263238" stroke-linecap="round" stroke-linejoin="round"/>
<path d="M68.3316 203.812H55.9309V205.389H68.3316V203.812Z" fill="white" stroke="#263238" stroke-linecap="round" stroke-linejoin="round"/>
<path d="M68.3316 212.874H55.9309V214.451H68.3316V212.874Z" fill="white" stroke="#263238" stroke-linecap="round" stroke-linejoin="round"/>
<path d="M58.281 203.402V218.967" stroke="#263238" stroke-linecap="round" stroke-linejoin="round"/>
<path d="M62.6074 203.402V218.967" stroke="#263238" stroke-linecap="round" stroke-linejoin="round"/>
<path d="M66.4065 203.402V218.967" stroke="#263238" stroke-linecap="round" stroke-linejoin="round"/>
<path d="M68.3316 159.247H55.9309V177.347H68.3316V159.247Z" fill="#8BC4B5" stroke="#263238" stroke-linecap="round" stroke-linejoin="round"/>
<path d="M68.3316 160.005H55.9309V161.797H68.3316V160.005Z" fill="white" stroke="#263238" stroke-linecap="round" stroke-linejoin="round"/>
<path d="M68.3316 171.607H55.9309V173.399H68.3316V171.607Z" fill="white" stroke="#263238" stroke-linecap="round" stroke-linejoin="round"/>
<path d="M58.281 159.534V177.224" stroke="#263238" stroke-linecap="round" stroke-linejoin="round"/>
<path d="M62.6074 159.534V177.224" stroke="#263238" stroke-linecap="round" stroke-linejoin="round"/>
<path d="M66.4065 159.534V177.224" stroke="#263238" stroke-linecap="round" stroke-linejoin="round"/>
<path d="M68.3316 181.059H55.9309V199.158H68.3316V181.059Z" fill="#8BC4B5" stroke="#263238" stroke-linecap="round" stroke-linejoin="round"/>
<path d="M68.3316 181.816H55.9309V183.608H68.3316V181.816Z" fill="white" stroke="#263238" stroke-linecap="round" stroke-linejoin="round"/>
<path d="M68.3316 193.418H55.9309V195.21H68.3316V193.418Z" fill="white" stroke="#263238" stroke-linecap="round" stroke-linejoin="round"/>
<path d="M58.281 181.35V199.035" stroke="#263238" stroke-linecap="round" stroke-linejoin="round"/>
<path d="M62.6074 181.35V199.035" stroke="#263238" stroke-linecap="round" stroke-linejoin="round"/>
<path d="M66.4065 181.35V199.035" stroke="#263238" stroke-linecap="round" stroke-linejoin="round"/>
<path d="M70.1184 177.096H55.9309V179.154H70.1184V177.096Z" fill="white" stroke="#263238" stroke-linecap="round" stroke-linejoin="round"/>
<path d="M70.1184 199.045H55.9309V201.103H70.1184V199.045Z" fill="white" stroke="#263238" stroke-linecap="round" stroke-linejoin="round"/>
<path d="M70.1184 157.015V217.119" stroke="#263238" stroke-linecap="round" stroke-linejoin="round"/>
<path d="M53.929 157.015V217.119H55.9309V159.247H69.8726V156.989L53.929 157.015Z" fill="white" stroke="#263238" stroke-linecap="round" stroke-linejoin="round"/>
<path d="M55.9309 159.247V157.015" stroke="#263238" stroke-linecap="round" stroke-linejoin="round"/>
<path d="M70.0108 129.403C68.5209 126.531 67.8962 124.472 67.8962 123.996C67.8962 123.054 69.9442 122.491 69.9442 122.491C73.1391 120.801 88.1663 123.244 94.9298 124.37C98.716 125.03 102.546 125.406 106.388 125.496C106.388 125.496 107.325 124.749 108.436 123.807C109.547 122.865 114.821 116.669 116.89 116.127C118.958 115.584 120.832 116.879 120.832 116.879C120.832 116.879 124.216 118.927 123.648 119.322C123.08 119.716 114.821 126.833 112.753 128.148C110.684 129.464 106.368 128.901 102.61 129.654C99.374 130.299 86.2668 131.098 83.2614 131.343C81.0043 131.879 78.6353 131.681 76.4978 130.78" fill="white"/>
<mask id="mask0_251_3030" style="mask-type:luminance" maskUnits="userSpaceOnUse" x="67" y="115" width="57" height="17">
<path d="M70.0108 129.403C68.5209 126.531 67.8962 124.472 67.8962 123.996C67.8962 123.054 69.9442 122.491 69.9442 122.491C73.1391 120.801 88.1663 123.244 94.9298 124.37C98.716 125.03 102.546 125.406 106.388 125.496C106.388 125.496 107.325 124.749 108.436 123.807C109.547 122.865 114.821 116.669 116.89 116.127C118.958 115.584 120.832 116.879 120.832 116.879C120.832 116.879 124.216 118.927 123.648 119.322C123.08 119.716 114.821 126.833 112.753 128.148C110.684 129.464 106.368 128.901 102.61 129.654C99.374 130.299 86.2668 131.098 83.2614 131.343C81.0043 131.879 78.6353 131.681 76.4978 130.78" fill="white"/>
</mask>
<g mask="url(#mask0_251_3030)">
<path d="M120.868 116.859C120.868 116.859 118.989 115.543 116.925 116.106C114.862 116.669 109.599 122.87 108.472 123.786C107.346 124.703 106.424 125.476 106.424 125.476C102.582 125.386 98.7519 125.009 94.9657 124.349C88.2022 123.223 73.175 120.765 69.9801 122.47C69.9801 122.47 67.9321 123.034 67.9321 123.976C68.0033 124.502 68.1391 125.018 68.3366 125.512L68.6182 125.614C68.6182 125.614 72.3712 125.22 80.471 125.414C88.5709 125.609 107.305 126.72 108.508 127.155C109.02 127.35 112.65 126.531 116.675 125.107C119.747 122.604 123.356 119.475 123.72 119.255C124.252 118.922 120.868 116.859 120.868 116.859Z" fill="#8BC4B5"/>
<path opacity="0.5" d="M120.868 116.859C120.868 116.859 118.989 115.543 116.925 116.106C114.862 116.669 109.599 122.87 108.472 123.786C107.346 124.703 106.424 125.476 106.424 125.476C102.582 125.386 98.7519 125.009 94.9657 124.349C88.2022 123.223 73.175 120.765 69.9801 122.47C69.9801 122.47 67.9321 123.034 67.9321 123.976C68.0033 124.502 68.1391 125.018 68.3366 125.512L68.6182 125.614C68.6182 125.614 72.3712 125.22 80.471 125.414C88.5709 125.609 107.305 126.72 108.508 127.155C109.02 127.35 112.65 126.531 116.675 125.107C119.747 122.604 123.356 119.475 123.72 119.255C124.252 118.922 120.868 116.859 120.868 116.859Z" fill="white"/>
</g>
<path d="M70.0108 129.403C68.5209 126.531 67.8962 124.472 67.8962 123.996C67.8962 123.054 69.9442 122.491 69.9442 122.491C73.1391 120.801 88.1663 123.244 94.9298 124.37C98.716 125.03 102.546 125.406 106.388 125.496C106.388 125.496 107.325 124.749 108.436 123.807C109.547 122.865 114.821 116.669 116.89 116.127C118.958 115.584 120.832 116.879 120.832 116.879C120.832 116.879 124.216 118.927 123.648 119.322C123.08 119.716 114.821 126.833 112.753 128.148C110.684 129.464 106.368 128.901 102.61 129.654C99.374 130.299 86.2668 131.098 83.2614 131.343C81.0043 131.879 78.6353 131.681 76.4978 130.78" stroke="#263238" stroke-linecap="round" stroke-linejoin="round"/>
<path d="M144.205 146.104C144.545 145.459 145.054 144.919 145.679 144.543C146.303 144.167 147.019 143.968 147.748 143.969H181.898C181.898 143.969 184.366 143.969 183.629 148.659C182.892 153.349 172.764 181.985 170.317 190.643C167.869 199.301 167.352 217.549 167.352 217.549H126.392C126.392 217.549 129.638 173.911 144.205 146.104Z" fill="white"/>
<mask id="mask1_251_3030" style="mask-type:luminance" maskUnits="userSpaceOnUse" x="126" y="143" width="58" height="75">
<path d="M144.205 146.104C144.545 145.459 145.054 144.919 145.679 144.543C146.303 144.167 147.019 143.968 147.748 143.969H181.898C181.898 143.969 184.366 143.969 183.629 148.659C182.892 153.349 172.764 181.985 170.317 190.643C167.869 199.301 167.352 217.549 167.352 217.549H126.392C126.392 217.549 129.638 173.911 144.205 146.104Z" fill="white"/>
</mask>
<g mask="url(#mask1_251_3030)">
<path opacity="0.16" d="M159.585 143.969H147.748C147.019 143.968 146.303 144.167 145.679 144.543C145.054 144.919 144.545 145.459 144.205 146.104C129.638 173.911 126.356 217.533 126.356 217.533H144.727L149.258 200.325L168.151 204.221C168.284 202.778 168.438 201.308 168.617 199.859L168.202 195.251C168.202 195.251 164.331 191.181 163.113 190.162C161.894 189.143 162.703 187.305 162.499 179.364C162.294 171.423 155.167 165.714 152.515 160.824C149.862 155.935 153.943 152.878 157.609 147.988C158.915 146.222 159.447 144.922 159.585 143.969Z" fill="black"/>
</g>
<path d="M144.205 146.104C144.545 145.459 145.054 144.919 145.679 144.543C146.303 144.167 147.019 143.968 147.748 143.969H181.898C181.898 143.969 184.366 143.969 183.629 148.659C182.892 153.349 172.764 181.985 170.317 190.643C167.869 199.301 167.352 217.549 167.352 217.549H126.392C126.392 217.549 129.638 173.911 144.205 146.104Z" stroke="#263238" stroke-linecap="round" stroke-linejoin="round"/>
<path d="M175.974 152.115C172.523 160.169 165.222 192.051 164.034 217.533H167.332C167.332 217.533 167.844 199.265 170.296 190.628C172.749 181.99 182.886 153.349 183.608 148.644C184.33 143.939 181.878 143.954 181.878 143.954C181.878 143.954 178.744 145.659 175.974 152.115Z" fill="#263238" stroke="#263238" stroke-linecap="round" stroke-linejoin="round"/>
<path d="M115.983 136.018C115.983 136.018 110.536 132.823 108.472 127.191C106.409 121.559 124.626 112.538 132.536 111.974C140.447 111.411 142.679 113.475 147.384 121.554C152.09 129.633 155.274 140.713 152.832 146.161C150.39 151.608 146.258 152.924 149.248 157.425C152.238 161.925 160.707 174.705 160.143 180.716C159.58 186.726 153.759 191.98 145.295 192.553C136.832 193.126 125.568 188.042 116.178 179.753C106.788 171.464 109.225 159.273 112.594 155.331C115.963 151.388 121.047 149.883 121.421 145.94C121.795 141.998 115.983 136.018 115.983 136.018Z" fill="#263238" stroke="#263238" stroke-linecap="round" stroke-linejoin="round"/>
<path d="M139.203 127.104C142.095 132.49 145.715 139.704 146.847 144.061C148.823 151.69 138.655 156.493 141.476 160.164" stroke="white" stroke-linecap="round" stroke-linejoin="round"/>
<path d="M135.26 120.049C135.26 120.049 136.386 121.969 137.943 124.795" stroke="white" stroke-linecap="round" stroke-linejoin="round"/>
<path d="M150.436 133.601C150.769 134.611 150.986 135.655 151.081 136.714" stroke="white" stroke-linecap="round" stroke-linejoin="round"/>
<path d="M137.216 117.248C137.216 117.248 146.115 123.822 149.668 131.692" stroke="white" stroke-linecap="round" stroke-linejoin="round"/>
<path d="M124.866 122.179C118.513 123.96 109.373 126.853 110.116 128.522" stroke="white" stroke-linecap="round" stroke-linejoin="round"/>
<path d="M130.739 120.612C130.739 120.612 129.382 120.95 127.36 121.492" stroke="white" stroke-linecap="round" stroke-linejoin="round"/>
<path d="M122.88 117.294C126.519 116.147 130.331 115.645 134.144 115.809" stroke="white" stroke-linecap="round" stroke-linejoin="round"/>
<path d="M120.289 118.354C120.865 118.054 121.46 117.794 122.071 117.576" stroke="white" stroke-linecap="round" stroke-linejoin="round"/>
<path d="M70.0108 129.403C69.1485 127.824 68.4617 126.155 67.9628 124.426C68.4593 126.156 69.1462 127.825 70.0108 129.403ZM67.9065 124.134C67.9065 124.165 67.9065 124.201 67.9065 124.247C67.9168 124.201 67.9116 124.165 67.9065 124.134ZM70.0108 129.398C71.9257 133.025 74.308 136.385 77.0969 139.392C83.8604 146.719 103.398 165.883 105.257 167.199C107.115 168.515 106.573 172.268 105.257 176.026C103.941 179.784 99.0566 185.242 99.246 191.242C99.4355 197.243 101.294 206.459 101.125 208.338C100.956 210.217 96.256 216.607 96.256 216.607H144.722C144.722 216.607 138.68 208.927 138.68 206.3C138.68 203.674 146.975 170.02 147.348 167.578C147.722 165.135 146.222 163.446 143.217 163.256C140.211 163.067 128.753 160.625 128.189 158.746C127.626 156.867 131.195 149.729 131.195 149.729L119.931 150.292C119.931 150.292 119.368 155.177 118.615 156.119C117.862 157.061 116.736 155.177 114.104 153.866C111.473 152.556 106.424 151.424 104.525 149.919C102.625 148.413 84.6131 131.487 84.6131 131.487" fill="white"/>
<mask id="mask2_251_3030" style="mask-type:luminance" maskUnits="userSpaceOnUse" x="67" y="124" width="81" height="93">
<path d="M70.0108 129.403C69.1485 127.824 68.4617 126.155 67.9628 124.426C68.4593 126.156 69.1462 127.825 70.0108 129.403ZM67.9065 124.134C67.9065 124.165 67.9065 124.201 67.9065 124.247C67.9168 124.201 67.9116 124.165 67.9065 124.134ZM70.0108 129.398C71.9257 133.025 74.308 136.385 77.0969 139.392C83.8604 146.719 103.398 165.883 105.257 167.199C107.115 168.515 106.573 172.268 105.257 176.026C103.941 179.784 99.0566 185.242 99.246 191.242C99.4355 197.243 101.294 206.459 101.125 208.338C100.956 210.217 96.256 216.607 96.256 216.607H144.722C144.722 216.607 138.68 208.927 138.68 206.3C138.68 203.674 146.975 170.02 147.348 167.578C147.722 165.135 146.222 163.446 143.217 163.256C140.211 163.067 128.753 160.625 128.189 158.746C127.626 156.867 131.195 149.729 131.195 149.729L119.931 150.292C119.931 150.292 119.368 155.177 118.615 156.119C117.862 157.061 116.736 155.177 114.104 153.866C111.473 152.556 106.424 151.424 104.525 149.919C102.625 148.413 84.6131 131.487 84.6131 131.487" fill="white"/>
</mask>
<g mask="url(#mask2_251_3030)">
<path d="M107.402 151.368C108.339 153.006 109.276 154.486 109.276 154.486C109.276 154.486 112.435 156.262 113.224 156.262C114.012 156.262 118.753 158.822 118.753 158.822C118.753 158.822 122.706 157.834 121.313 154.476C120.874 153.616 120.319 152.82 119.665 152.11C119.429 153.6 119.05 155.551 118.605 156.109C117.852 157.046 116.726 155.167 114.094 153.856C112.389 153.006 109.63 152.228 107.402 151.368Z" fill="#8BC4B5"/>
<path d="M97.7562 143.764C91.9552 138.394 84.6131 131.507 84.6131 131.507L80.3431 130.893L79.8311 131.18C79.8311 131.18 91.8835 141.844 94.4487 143.032C95.4864 143.509 96.6141 143.759 97.7562 143.764Z" fill="#8BC4B5"/>
<path d="M103.834 149.325L103.373 148.915C103.608 149.304 103.741 149.55 103.741 149.55L103.834 149.325Z" fill="#8BC4B5"/>
<g opacity="0.5">
<path d="M107.402 151.368C108.339 153.006 109.276 154.486 109.276 154.486C109.276 154.486 112.435 156.262 113.224 156.262C114.012 156.262 118.753 158.822 118.753 158.822C118.753 158.822 122.706 157.834 121.313 154.476C120.874 153.616 120.319 152.82 119.665 152.11C119.429 153.6 119.05 155.551 118.605 156.109C117.852 157.046 116.726 155.167 114.094 153.856C112.389 153.006 109.63 152.228 107.402 151.368Z" fill="white"/>
<path d="M97.7562 143.764C91.9552 138.394 84.6131 131.507 84.6131 131.507L80.3431 130.893L79.8311 131.18C79.8311 131.18 91.8835 141.844 94.4487 143.032C95.4864 143.509 96.6141 143.759 97.7562 143.764Z" fill="white"/>
<path d="M103.834 149.325L103.373 148.915C103.608 149.304 103.741 149.55 103.741 149.55L103.834 149.325Z" fill="white"/>
</g>
</g>
<path d="M67.8963 123.996C67.8939 124.032 67.8939 124.068 67.8963 124.104M67.9628 124.426C68.4617 126.155 69.1485 127.824 70.0108 129.403C69.1462 127.825 68.4593 126.156 67.9628 124.426ZM67.9628 124.426C67.9487 124.378 67.9384 124.328 67.9321 124.278M70.0108 129.398C71.9257 133.025 74.308 136.385 77.0969 139.392C83.8604 146.719 103.398 165.883 105.257 167.199C107.115 168.515 106.573 172.268 105.257 176.026C103.941 179.784 99.0566 185.242 99.246 191.242C99.4355 197.243 101.294 206.459 101.125 208.338C100.956 210.217 96.256 216.607 96.256 216.607H144.722C144.722 216.607 138.68 208.927 138.68 206.3C138.68 203.674 146.975 170.02 147.348 167.578C147.722 165.135 146.222 163.446 143.217 163.256C140.211 163.067 128.753 160.625 128.189 158.746C127.626 156.867 131.195 149.729 131.195 149.729L119.931 150.292C119.931 150.292 119.368 155.177 118.615 156.119C117.862 157.061 116.736 155.177 114.104 153.866C111.473 152.556 106.424 151.424 104.525 149.919C102.625 148.413 84.6131 131.487 84.6131 131.487M67.9065 124.134C67.9065 124.165 67.9065 124.201 67.9065 124.247C67.9168 124.201 67.9116 124.165 67.9065 124.134Z" stroke="#263238" stroke-linecap="round" stroke-linejoin="round"/>
<path d="M84.613 131.507C84.613 131.507 78.6124 131.62 75.2639 128.86" stroke="#263238" stroke-linecap="round" stroke-linejoin="round"/>
<path d="M128.194 158.746C127.631 156.872 131.2 149.729 131.2 149.729L119.936 150.292C119.936 150.292 119.373 155.177 118.62 156.119C117.867 157.061 116.741 155.177 114.109 153.866C113.91 153.764 113.689 153.667 113.464 153.569L112.783 164.275C112.783 164.275 113.771 174.643 125.619 172.672C130.416 171.873 135.536 167.593 139.955 162.78C135.408 161.946 128.624 160.184 128.194 158.746Z" fill="white"/>
<mask id="mask3_251_3030" style="mask-type:luminance" maskUnits="userSpaceOnUse" x="112" y="149" width="28" height="24">
<path d="M128.194 158.746C127.631 156.872 131.2 149.729 131.2 149.729L119.936 150.292C119.936 150.292 119.373 155.177 118.62 156.119C117.867 157.061 116.741 155.177 114.109 153.866C113.91 153.764 113.689 153.667 113.464 153.569L112.783 164.275C112.783 164.275 113.771 174.643 125.619 172.672C130.416 171.873 135.536 167.593 139.955 162.78C135.408 161.946 128.624 160.184 128.194 158.746Z" fill="white"/>
</mask>
<g mask="url(#mask3_251_3030)">
<path d="M127.877 151.148C127.877 151.148 127.196 154.967 126.648 159.191C126.1 163.415 125.696 166.559 125.696 166.559L128.194 158.746L131.01 150.467C131.01 150.467 128.287 150.467 127.877 151.148Z" fill="#8BC4B5"/>
<path opacity="0.5" d="M127.877 151.148C127.877 151.148 127.196 154.967 126.648 159.191C126.1 163.415 125.696 166.559 125.696 166.559L128.194 158.746L131.01 150.467C131.01 150.467 128.287 150.467 127.877 151.148Z" fill="white"/>
</g>
<path d="M128.194 158.746C127.631 156.872 131.2 149.729 131.2 149.729L119.936 150.292C119.936 150.292 119.373 155.177 118.62 156.119C117.867 157.061 116.741 155.177 114.109 153.866C113.91 153.764 113.689 153.667 113.464 153.569L112.783 164.275C112.783 164.275 113.771 174.643 125.619 172.672C130.416 171.873 135.536 167.593 139.955 162.78C135.408 161.946 128.624 160.184 128.194 158.746Z" stroke="#263238" stroke-linecap="round" stroke-linejoin="round"/>
<path d="M118.615 156.119C117.862 157.056 116.736 155.177 114.104 153.866C112.445 153.032 109.803 152.274 107.617 151.455C106.998 149.985 106.179 148.07 105.651 146.913C104.714 144.865 103.209 146.161 103.209 146.161C102.424 145.267 101.789 144.252 101.33 143.155C100.393 141.107 98.8876 141.276 96.8243 140.902C94.7609 140.529 90.4345 136.581 90.4345 136.581C90.4345 136.581 88.4121 135.045 87.5775 134.282C86.6047 136.197 84.2751 139.566 79.2371 141.67C87.2703 150.062 103.567 166.006 105.277 167.204C107.156 168.515 106.593 172.273 105.277 176.031C103.962 179.789 99.0771 185.247 99.2665 191.247C99.4559 197.248 101.315 206.464 101.146 208.343C100.977 210.017 97.2287 215.265 96.4147 216.392L98.3244 216.607H108.267C108.211 211.569 108.216 191.007 111.662 182.815C115.61 173.399 118.615 156.119 118.615 156.119Z" fill="#8BC4B5"/>
<mask id="mask4_251_3030" style="mask-type:luminance" maskUnits="userSpaceOnUse" x="79" y="134" width="40" height="83">
<path d="M118.615 156.119C117.862 157.056 116.736 155.177 114.104 153.866C112.445 153.032 109.803 152.274 107.617 151.455C106.998 149.985 106.179 148.07 105.651 146.913C104.714 144.865 103.209 146.161 103.209 146.161C102.424 145.267 101.789 144.252 101.33 143.155C100.393 141.107 98.8876 141.276 96.8243 140.902C94.7609 140.529 90.4345 136.581 90.4345 136.581C90.4345 136.581 88.4121 135.045 87.5775 134.282C86.6047 136.197 84.2751 139.566 79.2371 141.67C87.2703 150.062 103.567 166.006 105.277 167.204C107.156 168.515 106.593 172.273 105.277 176.031C103.962 179.789 99.0771 185.247 99.2665 191.247C99.4559 197.248 101.315 206.464 101.146 208.343C100.977 210.017 97.2287 215.265 96.4147 216.392L98.3244 216.607H108.267C108.211 211.569 108.216 191.007 111.662 182.815C115.61 173.399 118.615 156.119 118.615 156.119Z" fill="white"/>
</mask>
<g mask="url(#mask4_251_3030)">
<path opacity="0.16" d="M114.104 153.866C112.445 153.032 109.804 152.274 107.617 151.455C106.998 149.985 106.179 148.07 105.651 146.913C104.714 144.865 103.209 146.161 103.209 146.161C102.424 145.267 101.789 144.252 101.33 143.155C100.393 141.107 98.8877 141.276 96.8243 140.902C94.7609 140.529 90.4345 136.581 90.4345 136.581C90.4345 136.581 88.4121 135.045 87.5776 134.282C87.1611 135.095 86.6655 135.865 86.0979 136.581C89.4566 139.423 93.1635 142.433 94.4589 143.032C97.0189 144.215 97.6179 143.227 99.5789 144.415C101.54 145.603 103.726 149.535 103.726 149.535C103.726 149.535 104.914 146.371 105.902 148.547C106.89 150.723 109.261 154.47 109.261 154.47C109.261 154.47 112.42 156.247 113.208 156.247C113.828 156.247 116.864 157.824 118.154 158.505C118.441 157.005 118.6 156.104 118.6 156.104C117.862 157.056 116.736 155.177 114.104 153.866Z" fill="black"/>
</g>
<path d="M118.615 156.119C117.862 157.056 116.736 155.177 114.104 153.866C112.445 153.032 109.803 152.274 107.617 151.455C106.998 149.985 106.179 148.07 105.651 146.913C104.714 144.865 103.209 146.161 103.209 146.161C102.424 145.267 101.789 144.252 101.33 143.155C100.393 141.107 98.8876 141.276 96.8243 140.902C94.7609 140.529 90.4345 136.581 90.4345 136.581C90.4345 136.581 88.4121 135.045 87.5775 134.282C86.6047 136.197 84.2751 139.566 79.2371 141.67C87.2703 150.062 103.567 166.006 105.277 167.204C107.156 168.515 106.593 172.273 105.277 176.031C103.962 179.789 99.0771 185.247 99.2665 191.247C99.4559 197.248 101.315 206.464 101.146 208.343C100.977 210.017 97.2287 215.265 96.4147 216.392L98.3244 216.607H108.267C108.211 211.569 108.216 191.007 111.662 182.815C115.61 173.399 118.615 156.119 118.615 156.119Z" stroke="#263238" stroke-linecap="round" stroke-linejoin="round"/>
<path d="M118.748 155.464C118.748 155.464 116.413 154.747 114.975 156.006C113.536 157.266 111.391 163.727 110.126 170.737C109.347 174.817 109.884 179.04 111.662 182.794C111.662 182.794 114.616 175.048 115.512 171.274C116.408 167.501 118.748 155.464 118.748 155.464Z" fill="#8BC4B5"/>
<mask id="mask5_251_3030" style="mask-type:luminance" maskUnits="userSpaceOnUse" x="109" y="155" width="10" height="28">
<path d="M118.748 155.464C118.748 155.464 116.413 154.747 114.975 156.006C113.536 157.266 111.391 163.727 110.126 170.737C109.347 174.817 109.884 179.04 111.662 182.794C111.662 182.794 114.616 175.048 115.512 171.274C116.408 167.501 118.748 155.464 118.748 155.464Z" fill="white"/>
</mask>
<g mask="url(#mask5_251_3030)">
<path opacity="0.16" d="M114.268 156.605C114.268 156.605 115.958 156.196 116.654 156.431C117.24 156.683 117.788 157.015 118.282 157.42L118.748 155.464C118.049 155.107 117.256 154.976 116.48 155.09C115.318 155.325 114.268 156.605 114.268 156.605Z" fill="black"/>
</g>
<path d="M118.748 155.464C118.748 155.464 116.413 154.747 114.975 156.006C113.536 157.266 111.391 163.727 110.126 170.737C109.347 174.817 109.884 179.04 111.662 182.794C111.662 182.794 114.616 175.048 115.512 171.274C116.408 167.501 118.748 155.464 118.748 155.464Z" stroke="#263238" stroke-linecap="round" stroke-linejoin="round"/>
<path d="M103.025 156.078L106.03 168.289L99.2666 152.883" stroke="#263238" stroke-linecap="round" stroke-linejoin="round"/>
<path d="M122.824 216.607H144.727C144.727 216.607 138.685 208.927 138.685 206.3C138.685 203.674 146.98 170.02 147.354 167.578C147.727 165.135 146.227 163.446 143.222 163.256C140.216 163.067 128.758 160.625 128.195 158.746C128.195 158.746 123.873 173.962 122.373 184.294C121.083 193.157 122.419 211.548 122.824 216.607Z" fill="#8BC4B5"/>
<mask id="mask6_251_3030" style="mask-type:luminance" maskUnits="userSpaceOnUse" x="121" y="158" width="27" height="59">
<path d="M122.824 216.607H144.727C144.727 216.607 138.685 208.927 138.685 206.3C138.685 203.674 146.98 170.02 147.354 167.578C147.727 165.135 146.227 163.446 143.222 163.256C140.216 163.067 128.758 160.625 128.195 158.746C128.195 158.746 123.873 173.962 122.373 184.294C121.083 193.157 122.419 211.548 122.824 216.607Z" fill="white"/>
</mask>
<g mask="url(#mask6_251_3030)">
<path opacity="0.16" d="M143.222 163.256C140.759 163.103 132.623 161.434 129.454 159.805L130.606 162.468C132.693 163.575 134.938 164.356 137.262 164.782C141.077 165.463 144.625 165.33 146.944 168.74L147.057 168.909C147.2 168.253 147.297 167.793 147.328 167.578C147.733 165.135 146.227 163.446 143.222 163.256Z" fill="black"/>
</g>
<path d="M122.824 216.607H144.727C144.727 216.607 138.685 208.927 138.685 206.3C138.685 203.674 146.98 170.02 147.354 167.578C147.727 165.135 146.227 163.446 143.222 163.256C140.216 163.067 128.758 160.625 128.195 158.746C128.195 158.746 123.873 173.962 122.373 184.294C121.083 193.157 122.419 211.548 122.824 216.607Z" stroke="#263238" stroke-linecap="round" stroke-linejoin="round"/>
<path d="M128.194 158.746C128.194 158.746 122.399 177.178 122.373 184.294C122.373 184.294 130.606 174.326 131.681 167.322C132.756 160.317 128.194 158.746 128.194 158.746Z" fill="#8BC4B5"/>
<mask id="mask7_251_3030" style="mask-type:luminance" maskUnits="userSpaceOnUse" x="122" y="158" width="10" height="27">
<path d="M128.194 158.746C128.194 158.746 122.399 177.178 122.373 184.294C122.373 184.294 130.606 174.326 131.681 167.322C132.756 160.317 128.194 158.746 128.194 158.746Z" fill="white"/>
</mask>
<g mask="url(#mask7_251_3030)">
<path opacity="0.16" d="M127.196 161.101C128.067 161.072 128.932 161.255 129.716 161.635C130.5 162.015 131.18 162.58 131.697 163.282C131.697 163.282 130.56 159.939 128.194 158.746L127.196 161.101Z" fill="black"/>
</g>
<path d="M128.194 158.746C128.194 158.746 122.399 177.178 122.373 184.294C122.373 184.294 130.606 174.326 131.681 167.322C132.756 160.317 128.194 158.746 128.194 158.746Z" stroke="#263238" stroke-linecap="round" stroke-linejoin="round"/>
<path d="M190.07 213.14C190.07 213.14 194.314 213.315 197.094 213.714C198.948 213.965 200.815 214.114 202.685 214.159C202.685 214.159 201.149 211.057 199.511 210.181C197.873 209.306 194.903 207.739 192.415 208.087C189.926 208.435 186.368 210.944 186.665 211.743C186.962 212.541 188.288 212.9 190.07 213.14Z" fill="white"/>
<mask id="mask8_251_3030" style="mask-type:luminance" maskUnits="userSpaceOnUse" x="186" y="208" width="17" height="7">
<path d="M190.07 213.14C190.07 213.14 194.314 213.315 197.094 213.714C198.948 213.965 200.815 214.114 202.685 214.159C202.685 214.159 201.149 211.057 199.511 210.181C197.873 209.306 194.903 207.739 192.415 208.087C189.926 208.435 186.368 210.944 186.665 211.743C186.962 212.541 188.288 212.9 190.07 213.14Z" fill="white"/>
</mask>
<g mask="url(#mask8_251_3030)">
<path d="M190.07 213.14C190.07 213.14 194.314 213.315 197.094 213.714C198.948 213.965 200.815 214.114 202.685 214.159C202.685 214.159 201.149 211.057 199.511 210.181C197.873 209.306 194.903 207.739 192.415 208.087C189.926 208.435 186.368 210.944 186.665 211.743C186.962 212.541 188.288 212.9 190.07 213.14Z" fill="#8BC4B5"/>
<path opacity="0.5" d="M190.07 213.14C190.07 213.14 194.314 213.315 197.094 213.714C198.948 213.965 200.815 214.114 202.685 214.159C202.685 214.159 201.149 211.057 199.511 210.181C197.873 209.306 194.903 207.739 192.415 208.087C189.926 208.435 186.368 210.944 186.665 211.743C186.962 212.541 188.288 212.9 190.07 213.14Z" fill="white"/>
</g>
<path d="M190.07 213.14C190.07 213.14 194.314 213.315 197.094 213.714C198.948 213.965 200.815 214.114 202.685 214.159C202.685 214.159 201.149 211.057 199.511 210.181C197.873 209.306 194.903 207.739 192.415 208.087C189.926 208.435 186.368 210.944 186.665 211.743C186.962 212.541 188.288 212.9 190.07 213.14Z" stroke="#263238" stroke-linecap="round" stroke-linejoin="round"/>
<path d="M197.12 211.871C197.12 211.871 200.484 210.125 201.323 210.15C202.163 210.176 207.744 213.949 207.467 214.554C207.28 214.834 207.009 215.048 206.692 215.165C206.376 215.283 206.031 215.298 205.706 215.209C205.087 214.917 201.329 213.32 201.329 213.32L198.871 213.898L197.12 211.871Z" fill="white"/>
<mask id="mask9_251_3030" style="mask-type:luminance" maskUnits="userSpaceOnUse" x="197" y="210" width="11" height="6">
<path d="M197.12 211.871C197.12 211.871 200.484 210.125 201.323 210.15C202.163 210.176 207.744 213.949 207.467 214.554C207.28 214.834 207.009 215.048 206.692 215.165C206.376 215.283 206.031 215.298 205.706 215.209C205.087 214.917 201.329 213.32 201.329 213.32L198.871 213.898L197.12 211.871Z" fill="white"/>
</mask>
<g mask="url(#mask9_251_3030)">
<path d="M197.12 211.871C197.12 211.871 200.484 210.125 201.323 210.15C202.163 210.176 207.744 213.949 207.467 214.554C207.191 215.158 205.87 215.649 205.706 215.209C205.542 214.769 201.329 213.32 201.329 213.32L198.871 213.898L197.12 211.871Z" fill="#8BC4B5"/>
<path opacity="0.5" d="M197.12 211.871C197.12 211.871 200.484 210.125 201.323 210.15C202.163 210.176 207.744 213.949 207.467 214.554C207.191 215.158 205.87 215.649 205.706 215.209C205.542 214.769 201.329 213.32 201.329 213.32L198.871 213.898L197.12 211.871Z" fill="white"/>
</g>
<path d="M197.12 211.871C197.12 211.871 200.484 210.125 201.323 210.15C202.163 210.176 207.744 213.949 207.467 214.554C207.28 214.834 207.009 215.048 206.692 215.165C206.376 215.283 206.031 215.298 205.706 215.209C205.087 214.917 201.329 213.32 201.329 213.32L198.871 213.898L197.12 211.871Z" stroke="#263238" stroke-linecap="round" stroke-linejoin="round"/>
<path d="M194.719 208.998C194.719 208.998 199.204 208.855 200.095 209.306C200.986 209.756 205.01 216.658 204.406 217.16C203.802 217.661 202.133 217.513 202.184 216.955C202.235 216.397 198.477 212.7 198.477 212.7L195.553 212.06L194.719 208.998Z" fill="white"/>
<mask id="mask10_251_3030" style="mask-type:luminance" maskUnits="userSpaceOnUse" x="194" y="208" width="11" height="10">
<path d="M194.719 208.998C194.719 208.998 199.204 208.855 200.095 209.306C200.986 209.756 205.01 216.658 204.406 217.16C203.802 217.661 202.133 217.513 202.184 216.955C202.235 216.397 198.477 212.7 198.477 212.7L195.553 212.06L194.719 208.998Z" fill="white"/>
</mask>
<g mask="url(#mask10_251_3030)">
<path d="M194.719 208.998C194.719 208.998 199.204 208.855 200.095 209.306C200.986 209.756 205.01 216.658 204.406 217.16C203.802 217.661 202.133 217.513 202.184 216.955C202.235 216.397 198.477 212.7 198.477 212.7L195.553 212.06L194.719 208.998Z" fill="#8BC4B5"/>
<path opacity="0.5" d="M194.719 208.998C194.719 208.998 199.204 208.855 200.095 209.306C200.986 209.756 205.01 216.658 204.406 217.16C203.802 217.661 202.133 217.513 202.184 216.955C202.235 216.397 198.477 212.7 198.477 212.7L195.553 212.06L194.719 208.998Z" fill="white"/>
</g>
<path d="M194.719 208.998C194.719 208.998 199.204 208.855 200.095 209.306C200.986 209.756 205.01 216.658 204.406 217.16C203.802 217.661 202.133 217.513 202.184 216.955C202.235 216.397 198.477 212.7 198.477 212.7L195.553 212.06L194.719 208.998Z" stroke="#263238" stroke-linecap="round" stroke-linejoin="round"/>
<path d="M192.061 208.072C192.061 208.072 196.603 207.923 197.504 208.384C198.405 208.845 202.48 215.823 201.866 216.335C201.252 216.847 199.572 216.689 199.624 216.125C199.675 215.562 195.871 211.82 195.871 211.82L192.911 211.169L192.061 208.072Z" fill="white"/>
<mask id="mask11_251_3030" style="mask-type:luminance" maskUnits="userSpaceOnUse" x="192" y="208" width="10" height="9">
<path d="M192.061 208.072C192.061 208.072 196.603 207.923 197.504 208.384C198.405 208.845 202.48 215.823 201.866 216.335C201.252 216.847 199.572 216.689 199.624 216.125C199.675 215.562 195.871 211.82 195.871 211.82L192.911 211.169L192.061 208.072Z" fill="white"/>
</mask>
<g mask="url(#mask11_251_3030)">
<path d="M192.061 208.072C192.061 208.072 196.603 207.923 197.504 208.384C198.405 208.845 202.48 215.823 201.866 216.335C201.252 216.847 199.572 216.689 199.624 216.125C199.675 215.562 195.871 211.82 195.871 211.82L192.911 211.169L192.061 208.072Z" fill="#8BC4B5"/>
<path opacity="0.5" d="M192.061 208.072C192.061 208.072 196.603 207.923 197.504 208.384C198.405 208.845 202.48 215.823 201.866 216.335C201.252 216.847 199.572 216.689 199.624 216.125C199.675 215.562 195.871 211.82 195.871 211.82L192.911 211.169L192.061 208.072Z" fill="white"/>
</g>
<path d="M192.061 208.072C192.061 208.072 196.603 207.923 197.504 208.384C198.405 208.845 202.48 215.823 201.866 216.335C201.252 216.847 199.572 216.689 199.624 216.125C199.675 215.562 195.871 211.82 195.871 211.82L192.911 211.169L192.061 208.072Z" stroke="#263238" stroke-linecap="round" stroke-linejoin="round"/>
<path d="M140.426 182.052C143.713 187.116 150.313 199.946 152.238 201.39C155.243 203.643 175.334 209.111 177.27 210.606C179.205 212.101 179.072 213.601 180.905 214.149C182.738 214.697 189.609 216.269 192.23 216.515C194.852 216.76 193.679 215.137 193.679 215.137L189.21 212.065L193.106 211.103C193.106 211.103 197.012 215.803 197.745 216.059C198.477 216.315 199.767 216.059 199.685 215.48C199.542 214.554 195.374 206.971 193.894 206.648C192.415 206.326 183.434 207.57 183.434 207.57C183.434 207.57 164.598 194.867 164.26 194.417C164.26 194.417 163.133 191.222 162.212 189.906C161.29 188.59 160.706 188.969 160.706 188.969C160.706 188.969 161.085 187.274 160.522 186.711L157.517 183.706L157.409 183.849C156.897 182.825 156.385 181.658 155.822 180.326C154.25 176.625 148.685 166.236 147.748 164.736C147.046 163.615 141.169 162.811 138.189 162.473" fill="#8BC4B5"/>
<mask id="mask12_251_3030" style="mask-type:luminance" maskUnits="userSpaceOnUse" x="138" y="162" width="62" height="55">
<path d="M140.426 182.052C143.713 187.116 150.313 199.946 152.238 201.39C155.243 203.643 175.334 209.111 177.27 210.606C179.205 212.101 179.072 213.601 180.905 214.149C182.738 214.697 189.609 216.269 192.23 216.515C194.852 216.76 193.679 215.137 193.679 215.137L189.21 212.065L193.106 211.103C193.106 211.103 197.012 215.803 197.745 216.059C198.477 216.315 199.767 216.059 199.685 215.48C199.542 214.554 195.374 206.971 193.894 206.648C192.415 206.326 183.434 207.57 183.434 207.57C183.434 207.57 164.598 194.867 164.26 194.417C164.26 194.417 163.133 191.222 162.212 189.906C161.29 188.59 160.706 188.969 160.706 188.969C160.706 188.969 161.085 187.274 160.522 186.711L157.517 183.706L157.409 183.849C156.897 182.825 156.385 181.658 155.822 180.326C154.25 176.625 148.685 166.236 147.748 164.736C147.046 163.615 141.169 162.811 138.189 162.473" fill="white"/>
</mask>
<g mask="url(#mask12_251_3030)">
<path opacity="0.16" d="M153.513 182.374C155.97 184.556 155.151 184.556 154.603 186.47C154.056 188.385 155.013 185.789 157.332 185.928C159.652 186.066 158.971 189.061 158.694 189.609C158.418 190.157 161.562 190.838 161.014 192.061C160.466 193.285 157.332 195.062 155.561 196.838C153.789 198.615 160.194 193.971 162.376 193.838C163.041 193.792 163.589 193.879 164.05 193.869C163.566 192.499 162.945 191.181 162.196 189.937C161.254 188.621 160.691 189 160.691 189C160.691 189 161.07 187.305 160.507 186.742L157.501 183.736L157.394 183.88C156.882 182.856 156.37 181.688 155.807 180.357C154.235 176.655 148.669 166.267 147.732 164.767C147.031 163.645 141.153 162.842 138.173 162.504L138.445 164.874L138.511 164.925C138.511 164.925 142.193 165.606 143.421 165.745C144.65 165.883 146.15 166.968 146.012 167.793C145.874 168.617 142.331 172.293 143.421 172.57C144.512 172.846 145.741 169.841 146.969 170.25C148.198 170.66 151.04 180.193 153.513 182.374Z" fill="black"/>
</g>
<path d="M140.426 182.052C143.713 187.116 150.313 199.946 152.238 201.39C155.243 203.643 175.334 209.111 177.27 210.606C179.205 212.101 179.072 213.601 180.905 214.149C182.738 214.697 189.609 216.269 192.23 216.515C194.852 216.76 193.679 215.137 193.679 215.137L189.21 212.065L193.106 211.103C193.106 211.103 197.012 215.803 197.745 216.059C198.477 216.315 199.767 216.059 199.685 215.48C199.542 214.554 195.374 206.971 193.894 206.648C192.415 206.326 183.434 207.57 183.434 207.57C183.434 207.57 164.598 194.867 164.26 194.417C164.26 194.417 163.133 191.222 162.212 189.906C161.29 188.59 160.706 188.969 160.706 188.969C160.706 188.969 161.085 187.274 160.522 186.711L157.517 183.706L157.409 183.849C156.897 182.825 156.385 181.658 155.822 180.326C154.25 176.625 148.685 166.236 147.748 164.736C147.046 163.615 141.169 162.811 138.189 162.473" stroke="#263238" stroke-linecap="round" stroke-linejoin="round"/>
<path d="M140.477 175.104C140.339 175.565 140.221 176.026 140.129 176.497" stroke="#263238" stroke-linecap="round" stroke-linejoin="round"/>
<path d="M145.454 166.63C143.845 168.464 142.488 170.505 141.419 172.698" stroke="#263238" stroke-linecap="round" stroke-linejoin="round"/>
<path d="M152.975 195.702C154.358 193.654 156.559 191.058 158.986 190.316" stroke="#263238" stroke-linecap="round" stroke-linejoin="round"/>
<path d="M151.444 198.221C151.444 198.221 151.69 197.74 152.13 197.012" stroke="#263238" stroke-linecap="round" stroke-linejoin="round"/>
<path d="M151.444 194.985C151.444 194.985 153.958 188.698 156.472 187.08C158.986 185.462 157.547 188.698 157.547 188.698" stroke="#263238" stroke-linecap="round" stroke-linejoin="round"/>
<path d="M177.27 210.611C179.21 212.111 179.072 213.606 180.905 214.154C182.738 214.702 189.609 216.274 192.23 216.52C194.852 216.765 193.679 215.142 193.679 215.142L189.209 212.07L193.106 211.108C193.106 211.108 197.012 215.808 197.745 216.064C198.477 216.32 199.869 216.412 199.685 215.485C199.327 213.693 195.374 206.976 193.894 206.653C192.415 206.331 183.434 207.575 183.434 207.575C183.434 207.575 166.277 195.799 164.398 194.524C157.112 195.226 153.646 199.04 152.187 201.329L152.238 201.37C155.243 203.643 175.334 209.111 177.27 210.611Z" fill="white"/>
<mask id="mask13_251_3030" style="mask-type:luminance" maskUnits="userSpaceOnUse" x="152" y="194" width="48" height="23">
<path d="M177.27 210.611C179.21 212.111 179.072 213.606 180.905 214.154C182.738 214.702 189.609 216.274 192.23 216.52C194.852 216.765 193.679 215.142 193.679 215.142L189.209 212.07L193.106 211.108C193.106 211.108 197.012 215.808 197.745 216.064C198.477 216.32 199.869 216.412 199.685 215.485C199.327 213.693 195.374 206.976 193.894 206.653C192.415 206.331 183.434 207.575 183.434 207.575C183.434 207.575 166.277 195.799 164.398 194.524C157.112 195.226 153.646 199.04 152.187 201.329L152.238 201.37C155.243 203.643 175.334 209.111 177.27 210.611Z" fill="white"/>
</mask>
<g mask="url(#mask13_251_3030)">
<path d="M199.68 215.506C198.748 213.228 195.369 206.996 193.889 206.674C192.409 206.351 183.429 207.596 183.429 207.596C183.429 207.596 166.272 195.82 164.393 194.545C162.481 194.711 160.604 195.165 158.827 195.891C161.536 197.427 179.589 207.667 181.867 208.123C184.284 208.635 192.348 207.309 193.766 208.261C194.667 208.865 197.35 213.12 199.163 216.141C199.68 216.064 199.869 215.967 199.68 215.506Z" fill="#8BC4B5"/>
<path opacity="0.5" d="M199.68 215.506C198.226 212.244 195.369 206.996 193.889 206.674C192.409 206.351 183.429 207.596 183.429 207.596C183.429 207.596 166.272 195.82 164.393 194.545C162.481 194.711 160.604 195.165 158.827 195.891C161.536 197.427 179.589 207.667 181.867 208.123C184.284 208.635 192.348 207.309 193.766 208.261C194.667 208.865 197.35 213.12 199.163 216.141C199.68 216.064 199.885 215.962 199.68 215.506Z" fill="white"/>
</g>
<path d="M177.27 210.611C179.21 212.111 179.072 213.606 180.905 214.154C182.738 214.702 189.609 216.274 192.23 216.52C194.852 216.765 193.679 215.142 193.679 215.142L189.209 212.07L193.106 211.108C193.106 211.108 197.012 215.808 197.745 216.064C198.477 216.32 199.869 216.412 199.685 215.485C199.327 213.693 195.374 206.976 193.894 206.653C192.415 206.331 183.434 207.575 183.434 207.575C183.434 207.575 166.277 195.799 164.398 194.524C157.112 195.226 153.646 199.04 152.187 201.329L152.238 201.37C155.243 203.643 175.334 209.111 177.27 210.611Z" stroke="#263238" stroke-linecap="round" stroke-linejoin="round"/>
<path d="M132.019 121.206L116.598 127.642C116.411 130.352 115.74 133.007 114.616 135.48C112.794 139.336 113.859 146.632 115.61 150.569C117.361 154.506 125.076 152.965 127.898 152.474C129.811 152.11 131.685 151.563 133.494 150.84C134.317 151.158 135.208 151.26 136.082 151.139C136.957 151.017 137.785 150.674 138.491 150.144C138.491 150.144 130.237 126.976 132.019 121.206Z" fill="white"/>
<mask id="mask14_251_3030" style="mask-type:luminance" maskUnits="userSpaceOnUse" x="113" y="121" width="26" height="33">
<path d="M132.019 121.206L116.598 127.642C116.411 130.352 115.74 133.007 114.616 135.48C112.794 139.336 113.859 146.632 115.61 150.569C117.361 154.506 125.076 152.965 127.898 152.474C129.811 152.11 131.685 151.563 133.494 150.84C134.317 151.158 135.208 151.26 136.082 151.139C136.957 151.017 137.785 150.674 138.491 150.144C138.491 150.144 130.237 126.976 132.019 121.206Z" fill="white"/>
</mask>
<g mask="url(#mask14_251_3030)">
<path d="M132.019 121.206L116.598 127.642C116.411 130.352 115.74 133.007 114.616 135.48C112.794 139.336 113.859 146.632 115.61 150.569C115.903 151.202 116.374 151.736 116.966 152.105V151.808C116.966 151.808 114.104 144.717 114.647 140.626C115.19 136.535 117.514 134.482 117.786 131.896C118.057 129.311 117.919 128.082 123.105 126.172C128.292 124.262 130.468 122.491 131.011 124.396C131.553 126.3 133.74 138.854 135.24 141.855C136.74 144.855 136.602 147.999 134.287 149.356C131.948 150.76 129.442 151.864 126.828 152.643L127.918 152.453C129.831 152.089 131.705 151.542 133.514 150.82C134.338 151.137 135.229 151.24 136.103 151.118C136.977 150.996 137.806 150.654 138.511 150.124C138.511 150.124 130.237 126.976 132.019 121.206Z" fill="#8BC4B5"/>
<path opacity="0.5" d="M132.019 121.206L116.598 127.642C116.411 130.352 115.74 133.007 114.616 135.48C112.794 139.336 113.859 146.632 115.61 150.569C115.903 151.202 116.374 151.736 116.966 152.105V151.808C116.966 151.808 114.104 144.717 114.647 140.626C115.19 136.535 117.514 134.482 117.786 131.896C118.057 129.311 117.919 128.082 123.105 126.172C128.292 124.262 130.468 122.491 131.011 124.396C131.553 126.3 133.74 138.854 135.24 141.855C136.74 144.855 136.602 147.999 134.287 149.356C131.948 150.76 129.442 151.864 126.828 152.643L127.918 152.453C129.831 152.089 131.705 151.542 133.514 150.82C134.338 151.137 135.229 151.24 136.103 151.118C136.977 150.996 137.806 150.654 138.511 150.124C138.511 150.124 130.237 126.976 132.019 121.206Z" fill="white"/>
</g>
<path d="M132.019 121.206L116.598 127.642C116.411 130.352 115.74 133.007 114.616 135.48C112.794 139.336 113.859 146.632 115.61 150.569C117.361 154.506 125.076 152.965 127.898 152.474C129.811 152.11 131.685 151.563 133.494 150.84C134.317 151.158 135.208 151.26 136.082 151.139C136.957 151.017 137.785 150.674 138.491 150.144C138.491 150.144 130.237 126.976 132.019 121.206Z" stroke="#263238" stroke-linecap="round" stroke-linejoin="round"/>
<path d="M124.227 131.297C124.268 132.204 124.156 133.111 123.894 133.98C123.484 135.004 119.619 139.028 119.736 139.464C119.854 139.899 120.202 141.297 120.888 141.43" stroke="#263238" stroke-linecap="round" stroke-linejoin="round"/>
<path d="M128.512 134.897C129.05 133.821 130.816 134.871 130.79 137.293" stroke="#263238" stroke-linecap="round" stroke-linejoin="round"/>
<path d="M119.757 131.732C119.757 131.732 121.262 131.072 122.609 133.509" stroke="#263238" stroke-linecap="round" stroke-linejoin="round"/>
<path d="M126.372 138.445C128.111 138.532 129.765 139.226 131.046 140.406" stroke="#263238" stroke-width="0.5" stroke-linecap="round" stroke-linejoin="round"/>
<path d="M117.939 135.245C118.839 135.365 119.717 135.608 120.55 135.967" stroke="#263238" stroke-width="0.5" stroke-linecap="round" stroke-linejoin="round"/>
<path d="M124.058 129.024C123.66 128.814 123.219 128.699 122.769 128.688C122.32 128.677 121.874 128.771 121.467 128.963C120.09 129.623 119.245 130.35 119.337 129.505C119.429 128.66 121.047 127.729 121.533 127.606C122.02 127.483 124.196 127.145 124.058 129.024Z" fill="#263238"/>
<path d="M127.918 127.114C129.353 128.276 130.494 129.76 131.246 131.446C132.27 134.006 133.079 131.21 132.27 129.536C131.461 127.862 129.121 126.08 127.918 127.114Z" fill="#263238"/>
<path d="M138.716 154.522C138.716 155.715 138.04 156.682 137.211 156.682C136.381 156.682 135.711 155.715 135.711 154.522C135.711 153.329 136.381 150.292 137.211 150.292C138.04 150.292 138.716 153.329 138.716 154.522Z" fill="#8BC4B5" stroke="#263238" stroke-linecap="round" stroke-linejoin="round"/>
<path d="M128.645 134.431C128.586 134.587 128.54 134.748 128.507 134.912C128.358 135.67 128.21 137.252 128.507 137.318C128.804 137.385 129.531 135.905 129.659 135.148C129.688 134.999 129.705 134.848 129.71 134.697C129.361 134.587 129.005 134.498 128.645 134.431Z" fill="#263238"/>
<path d="M119.91 131.584C119.865 131.718 119.829 131.855 119.803 131.994C119.649 132.751 119.654 134.415 119.977 134.477C120.299 134.538 120.827 132.982 120.975 132.224C121.012 132.04 121.033 131.853 121.037 131.666C120.67 131.565 120.288 131.537 119.91 131.584Z" fill="#263238"/>
<path d="M128.512 134.922L129.024 133.97C129.836 134.128 130.571 134.553 131.113 135.178" stroke="#263238" stroke-width="0.75" stroke-linecap="round" stroke-linejoin="round"/>
<path d="M119.91 131.584L120.422 130.985C120.422 130.985 120.643 130.877 121.851 131.425" stroke="#263238" stroke-width="0.75" stroke-linecap="round" stroke-linejoin="round"/>
<path d="M117.97 145.469C117.97 145.469 118.83 143.887 119.982 143.887C121.134 143.887 121.994 146.473 121.994 146.473" stroke="#263238" stroke-linecap="round" stroke-linejoin="round"/>
<path d="M80.8959 213.699C79.7826 213.643 78.689 213.383 77.6703 212.931C77.5282 212.878 77.3983 212.797 77.2885 212.693C77.1787 212.589 77.0913 212.463 77.0316 212.324C76.9719 212.185 76.9411 212.035 76.9412 211.883C76.9413 211.732 76.9722 211.582 77.032 211.443C77.0918 211.304 77.1793 211.178 77.2892 211.074C77.3991 210.97 77.529 210.889 77.6711 210.836C77.8132 210.784 77.9645 210.761 78.1158 210.769C78.267 210.777 78.4151 210.816 78.5509 210.883C79.5749 211.318 80.901 211.589 81.2543 211.436C81.9045 210.708 82.9029 206.316 81.6127 204.196C81.3208 203.725 81.0495 203.638 80.8703 203.617C80.1381 203.515 79.0527 204.268 78.6687 204.641C78.5618 204.742 78.436 204.821 78.2987 204.873C78.1613 204.925 78.015 204.95 77.8681 204.946C77.7212 204.942 77.5765 204.908 77.4425 204.848C77.3084 204.788 77.1874 204.702 77.0866 204.595C76.9857 204.488 76.9069 204.363 76.8547 204.225C76.8024 204.088 76.7777 203.942 76.782 203.795C76.7862 203.648 76.8194 203.503 76.8796 203.369C76.9398 203.235 77.0258 203.114 77.1327 203.013C77.3323 202.819 79.1807 201.155 81.1519 201.421C81.6408 201.492 82.1066 201.675 82.5133 201.956C82.92 202.236 83.2565 202.607 83.4968 203.039C85.3963 206.136 84.0959 212.029 82.6367 213.197C82.1296 213.556 81.5161 213.732 80.8959 213.699Z" fill="white"/>
<mask id="mask15_251_3030" style="mask-type:luminance" maskUnits="userSpaceOnUse" x="76" y="201" width="9" height="13">
<path d="M80.8959 213.699C79.7826 213.643 78.689 213.383 77.6703 212.931C77.5282 212.878 77.3983 212.797 77.2885 212.693C77.1787 212.589 77.0913 212.463 77.0316 212.324C76.9719 212.185 76.9411 212.035 76.9412 211.883C76.9413 211.732 76.9722 211.582 77.032 211.443C77.0918 211.304 77.1793 211.178 77.2892 211.074C77.3991 210.97 77.529 210.889 77.6711 210.836C77.8132 210.784 77.9645 210.761 78.1158 210.769C78.267 210.777 78.4151 210.816 78.5509 210.883C79.5749 211.318 80.901 211.589 81.2543 211.436C81.9045 210.708 82.9029 206.316 81.6127 204.196C81.3208 203.725 81.0495 203.638 80.8703 203.617C80.1381 203.515 79.0527 204.268 78.6687 204.641C78.5618 204.742 78.436 204.821 78.2987 204.873C78.1613 204.925 78.015 204.95 77.8681 204.946C77.7212 204.942 77.5765 204.908 77.4425 204.848C77.3084 204.788 77.1874 204.702 77.0866 204.595C76.9857 204.488 76.9069 204.363 76.8547 204.225C76.8024 204.088 76.7777 203.942 76.782 203.795C76.7862 203.648 76.8194 203.503 76.8796 203.369C76.9398 203.235 77.0258 203.114 77.1327 203.013C77.3323 202.819 79.1807 201.155 81.1519 201.421C81.6408 201.492 82.1066 201.675 82.5133 201.956C82.92 202.236 83.2565 202.607 83.4968 203.039C85.3963 206.136 84.0959 212.029 82.6367 213.197C82.1296 213.556 81.5161 213.732 80.8959 213.699Z" fill="white"/>
</mask>
<g mask="url(#mask15_251_3030)">
<path d="M82.396 203.858C82.2617 203.54 82.0515 203.26 81.7837 203.042C81.5159 202.824 81.1987 202.675 80.86 202.609C79.58 202.404 78.3768 203.689 78.2437 203.832C78.1213 203.98 78.0457 204.16 78.0266 204.351C78.0074 204.542 78.0456 204.734 78.1362 204.902C78.3376 204.862 78.5237 204.766 78.6738 204.626C79.0578 204.268 80.1432 203.515 80.8754 203.602C81.0546 203.602 81.3259 203.709 81.6178 204.18C82.908 206.28 81.9096 210.693 81.2594 211.42C80.9061 211.574 79.5851 211.302 78.556 210.867C78.4293 210.814 78.294 210.784 78.1567 210.78C78.166 210.92 78.2102 211.056 78.2853 211.175C78.3604 211.294 78.464 211.392 78.5867 211.461C79.2341 211.807 79.9483 212.009 80.6808 212.055C81.0988 212.075 81.5082 211.932 81.8226 211.656C82.7851 210.77 83.6351 206.239 82.396 203.858Z" fill="#8BC4B5"/>
<path opacity="0.5" d="M82.396 203.858C82.2617 203.54 82.0515 203.26 81.7837 203.042C81.5159 202.824 81.1987 202.675 80.86 202.609C79.58 202.404 78.3768 203.689 78.2437 203.832C78.1213 203.98 78.0457 204.16 78.0266 204.351C78.0074 204.542 78.0456 204.734 78.1362 204.902C78.3376 204.862 78.5237 204.766 78.6738 204.626C79.0578 204.268 80.1432 203.515 80.8754 203.602C81.0546 203.602 81.3259 203.709 81.6178 204.18C82.908 206.28 81.9096 210.693 81.2594 211.42C80.9061 211.574 79.5851 211.302 78.556 210.867C78.4293 210.814 78.294 210.784 78.1567 210.78C78.166 210.92 78.2102 211.056 78.2853 211.175C78.3604 211.294 78.464 211.392 78.5867 211.461C79.2341 211.807 79.9483 212.009 80.6808 212.055C81.0988 212.075 81.5082 211.932 81.8226 211.656C82.7851 210.77 83.6351 206.239 82.396 203.858Z" fill="white"/>
</g>
<path d="M80.8959 213.699C79.7826 213.643 78.689 213.383 77.6703 212.931C77.5282 212.878 77.3983 212.797 77.2885 212.693C77.1787 212.589 77.0913 212.463 77.0316 212.324C76.9719 212.185 76.9411 212.035 76.9412 211.883C76.9413 211.732 76.9722 211.582 77.032 211.443C77.0918 211.304 77.1793 211.178 77.2892 211.074C77.3991 210.97 77.529 210.889 77.6711 210.836C77.8132 210.784 77.9645 210.761 78.1158 210.769C78.267 210.777 78.4151 210.816 78.5509 210.883C79.5749 211.318 80.901 211.589 81.2543 211.436C81.9045 210.708 82.9029 206.316 81.6127 204.196C81.3208 203.725 81.0495 203.638 80.8703 203.617C80.1381 203.515 79.0527 204.268 78.6687 204.641C78.5618 204.742 78.436 204.821 78.2987 204.873C78.1613 204.925 78.015 204.95 77.8681 204.946C77.7212 204.942 77.5765 204.908 77.4425 204.848C77.3084 204.788 77.1874 204.702 77.0866 204.595C76.9857 204.488 76.9069 204.363 76.8547 204.225C76.8024 204.088 76.7777 203.942 76.782 203.795C76.7862 203.648 76.8194 203.503 76.8796 203.369C76.9398 203.235 77.0258 203.114 77.1327 203.013C77.3323 202.819 79.1807 201.155 81.1519 201.421C81.6408 201.492 82.1066 201.675 82.5133 201.956C82.92 202.236 83.2565 202.607 83.4968 203.039C85.3963 206.136 84.0959 212.029 82.6367 213.197C82.1296 213.556 81.5161 213.732 80.8959 213.699Z" stroke="#263238" stroke-linecap="round" stroke-linejoin="round"/>
<path d="M78.9401 200.489H66.6265V216.832H78.9401V200.489Z" fill="white"/>
<mask id="mask16_251_3030" style="mask-type:luminance" maskUnits="userSpaceOnUse" x="66" y="200" width="13" height="17">
<path d="M78.9401 200.489H66.6265V216.832H78.9401V200.489Z" fill="white"/>
</mask>
<g mask="url(#mask16_251_3030)">
<path d="M71.6697 200.489H66.6265V216.832H71.6697V200.489Z" fill="#8BC4B5"/>
<path opacity="0.5" d="M71.6697 200.489H66.6265V216.832H71.6697V200.489Z" fill="white"/>
</g>
<path d="M78.9401 200.489H66.6265V216.832H78.9401V200.489Z" stroke="#263238" stroke-linecap="round" stroke-linejoin="round"/>
<path d="M146.606 216.607H94.0032L92.288 187.689C92.2406 187.409 92.2546 187.121 92.329 186.847C92.4034 186.572 92.5364 186.317 92.719 186.099C92.9015 185.881 93.1291 185.705 93.3862 185.584C93.6433 185.462 93.9237 185.398 94.208 185.395H146.381C146.667 185.395 146.95 185.457 147.209 185.577C147.469 185.698 147.699 185.873 147.884 186.091C148.068 186.31 148.203 186.566 148.279 186.842C148.355 187.118 148.369 187.407 148.321 187.689L146.606 216.607Z" fill="#263238" stroke="#263238" stroke-linecap="round" stroke-linejoin="round"/>
<path d="M96.594 186.086H146.002C146.281 186.084 146.557 186.142 146.812 186.257C147.066 186.372 147.292 186.541 147.474 186.753C147.656 186.965 147.789 187.214 147.865 187.482C147.941 187.751 147.957 188.033 147.912 188.308" stroke="white" stroke-linecap="round" stroke-linejoin="round"/>
<path d="M92.6721 187.853C92.7133 187.369 92.9355 186.918 93.2942 186.591C93.6529 186.264 94.1218 186.083 94.6075 186.086" stroke="white" stroke-linecap="round" stroke-linejoin="round"/>
<path d="M146.826 213.791H93.783V216.607H146.826V213.791Z" fill="white" stroke="#263238" stroke-linecap="round" stroke-linejoin="round"/>
<path d="M120.115 203.366C122.191 203.366 123.873 202.358 123.873 201.114C123.873 199.869 122.191 198.861 120.115 198.861C118.04 198.861 116.357 199.869 116.357 201.114C116.357 202.358 118.04 203.366 120.115 203.366Z" fill="white" stroke="#263238" stroke-linecap="round" stroke-linejoin="round"/>
<path d="M226.831 216.274H29.271V221.071H226.831V216.274Z" fill="#263238"/>
<path d="M175.606 38.4H80.5632C77.3594 38.4 74.7622 40.9972 74.7622 44.201V98.7341C74.7622 101.938 77.3594 104.535 80.5632 104.535H175.606C178.81 104.535 181.407 101.938 181.407 98.7341V44.201C181.407 40.9972 178.81 38.4 175.606 38.4Z" fill="#8BC4B5"/>
<path d="M130.592 76.4058C139.214 75.0203 145.079 66.9081 143.694 58.2868C142.308 49.6655 134.196 43.7998 125.575 45.1853C116.954 46.5709 111.088 54.683 112.473 63.3043C113.859 71.9256 121.971 77.7914 130.592 76.4058Z" fill="#263238"/>
<path d="M127.964 63.7184L122.696 70.4819C122.516 70.7635 122.27 70.996 121.979 71.1587C121.687 71.3214 121.36 71.409 121.026 71.4138C120.569 71.42 120.127 71.2452 119.798 70.9274C119.63 70.7737 119.498 70.5858 119.409 70.3765C119.321 70.1671 119.279 69.9411 119.286 69.7139C119.302 69.2052 119.482 68.7152 119.798 68.3162L125.803 60.887L120.171 53.4528C119.91 53.1039 119.766 52.6806 119.762 52.2445C119.76 51.9844 119.813 51.7268 119.916 51.488C120.019 51.2492 120.171 51.0344 120.361 50.857C120.539 50.6704 120.754 50.5221 120.992 50.4209C121.229 50.3197 121.485 50.2677 121.743 50.2682C122.074 50.2735 122.398 50.3616 122.686 50.5244C122.974 50.6871 123.217 50.9194 123.392 51.2L128.481 57.9021L133.601 51.3126C133.784 51.0052 134.04 50.7477 134.347 50.5628C134.653 50.3779 135 50.2715 135.357 50.2528C135.579 50.2522 135.799 50.2974 136.002 50.3855C136.206 50.4736 136.389 50.6027 136.54 50.7648C136.701 50.9167 136.83 51.1 136.918 51.3033C137.006 51.5067 137.052 51.7259 137.052 51.9475C137.047 52.3441 136.91 52.7276 136.663 53.0381L130.637 60.7488L136.458 68.4288C136.733 68.7721 136.886 69.1972 136.893 69.6371C136.895 69.8915 136.841 70.1432 136.736 70.3748C136.631 70.6064 136.477 70.8124 136.284 70.9786C135.908 71.3398 135.407 71.5416 134.886 71.5418C134.554 71.5376 134.228 71.4502 133.938 71.2874C133.648 71.1246 133.404 70.8916 133.227 70.6099L127.964 63.7184Z" fill="white"/>
<path d="M158.208 93.0816H97.9405C96.7184 93.0816 95.5463 92.5961 94.6822 91.7319C93.818 90.8678 93.3325 89.6957 93.3325 88.4736C93.3325 87.2515 93.818 86.0794 94.6822 85.2152C95.5463 84.3511 96.7184 83.8656 97.9405 83.8656H158.208C159.43 83.8656 160.602 84.3511 161.466 85.2152C162.331 86.0794 162.816 87.2515 162.816 88.4736C162.816 89.6957 162.331 90.8678 161.466 91.7319C160.602 92.5961 159.43 93.0816 158.208 93.0816Z" fill="white"/>
<path d="M106.199 89.9584C106.159 89.9584 106.119 89.9502 106.082 89.9344C106.045 89.9185 106.012 89.8954 105.984 89.8662C105.954 89.8362 105.93 89.8002 105.914 89.7606C105.898 89.721 105.891 89.6785 105.892 89.6358C105.892 89.5637 105.911 89.493 105.948 89.431L106.409 88.7142H105.467C105.423 88.7165 105.38 88.7094 105.339 88.6935C105.298 88.6776 105.262 88.6533 105.231 88.6221C105.179 88.5608 105.15 88.4827 105.15 88.4019C105.15 88.3211 105.179 88.243 105.231 88.1818C105.262 88.1506 105.298 88.1262 105.339 88.1103C105.38 88.0944 105.423 88.0874 105.467 88.0896L106.393 88.1152L105.984 87.4496C105.943 87.3814 105.92 87.3039 105.917 87.2243C105.916 87.1816 105.924 87.1392 105.94 87.0996C105.955 87.0599 105.979 87.024 106.009 86.9939C106.038 86.9646 106.072 86.9414 106.11 86.9256C106.148 86.9098 106.189 86.9016 106.23 86.9018C106.287 86.9009 106.343 86.917 106.392 86.9479C106.44 86.9789 106.478 87.0234 106.501 87.0758L106.952 87.8797L107.382 87.1117C107.409 87.0519 107.452 87.0007 107.506 86.9637C107.56 86.9267 107.623 86.9053 107.689 86.9018C107.729 86.9018 107.769 86.9099 107.806 86.9258C107.843 86.9416 107.876 86.9648 107.904 86.9939C107.934 87.022 107.958 87.0562 107.973 87.0941C107.989 87.1321 107.997 87.173 107.996 87.2141C107.995 87.2868 107.974 87.3578 107.935 87.4189L107.484 88.1408L108.421 88.1152C108.465 88.1126 108.508 88.1195 108.549 88.1354C108.59 88.1513 108.626 88.1759 108.657 88.2074C108.709 88.2686 108.738 88.3467 108.738 88.4275C108.738 88.5083 108.709 88.5864 108.657 88.6477C108.626 88.6791 108.59 88.7037 108.549 88.7196C108.508 88.7355 108.465 88.7424 108.421 88.7398H107.474L107.894 89.3952C107.941 89.4743 107.967 89.5642 107.97 89.6563C107.972 89.6978 107.965 89.7391 107.95 89.7779C107.935 89.8166 107.912 89.8519 107.883 89.8816C107.856 89.9103 107.824 89.9333 107.788 89.9491C107.752 89.965 107.713 89.9734 107.673 89.9738C107.61 89.9722 107.548 89.9526 107.496 89.9172C107.443 89.8818 107.402 89.8322 107.377 89.7741L106.952 89.0214L106.527 89.7741C106.496 89.8334 106.448 89.8824 106.39 89.9151C106.332 89.9479 106.266 89.9629 106.199 89.9584Z" fill="black"/>
<path d="M110.899 89.9584C110.859 89.9584 110.819 89.9502 110.782 89.9344C110.745 89.9185 110.712 89.8954 110.684 89.8662C110.654 89.8362 110.63 89.8002 110.614 89.7606C110.598 89.7209 110.591 89.6785 110.592 89.6358C110.592 89.5637 110.611 89.493 110.648 89.431L111.109 88.7142H110.167C110.123 88.7165 110.08 88.7094 110.039 88.6935C109.999 88.6776 109.962 88.6533 109.931 88.6221C109.879 88.5608 109.85 88.4827 109.85 88.4019C109.85 88.3211 109.879 88.243 109.931 88.1817C109.962 88.1506 109.999 88.1262 110.039 88.1103C110.08 88.0944 110.123 88.0874 110.167 88.0896L111.094 88.1152L110.658 87.424C110.617 87.3558 110.594 87.2783 110.592 87.1987C110.591 87.156 110.598 87.1136 110.614 87.074C110.63 87.0343 110.654 86.9984 110.684 86.9683C110.713 86.939 110.747 86.9158 110.785 86.9C110.823 86.8841 110.863 86.876 110.904 86.8761C110.962 86.8753 111.018 86.8914 111.066 86.9223C111.114 86.9533 111.152 86.9978 111.176 87.0502L111.626 87.8541L112.056 87.0861C112.083 87.0263 112.126 86.9751 112.18 86.9381C112.235 86.9011 112.298 86.8797 112.363 86.8761C112.404 86.8761 112.443 86.8843 112.48 86.9002C112.517 86.916 112.551 86.9392 112.578 86.9683C112.608 86.9964 112.632 87.0306 112.648 87.0685C112.664 87.1065 112.672 87.1473 112.671 87.1885C112.67 87.2612 112.649 87.3322 112.609 87.3933L112.159 88.1152L113.096 88.0896C113.139 88.087 113.183 88.0939 113.223 88.1098C113.264 88.1257 113.301 88.1503 113.331 88.1817C113.384 88.243 113.413 88.3211 113.413 88.4019C113.413 88.4827 113.384 88.5608 113.331 88.6221C113.301 88.6535 113.264 88.6781 113.223 88.694C113.183 88.7099 113.139 88.7168 113.096 88.7142H112.148L112.568 89.3696C112.616 89.4487 112.642 89.5386 112.645 89.6307C112.646 89.6722 112.64 89.7135 112.625 89.7523C112.61 89.791 112.587 89.8263 112.558 89.856C112.531 89.8847 112.499 89.9077 112.462 89.9235C112.426 89.9394 112.387 89.9478 112.348 89.9481C112.285 89.9472 112.223 89.9279 112.17 89.8924C112.117 89.857 112.076 89.807 112.051 89.7485L111.626 88.9958L111.201 89.7485C111.176 89.8085 111.134 89.8602 111.081 89.8973C111.027 89.9345 110.964 89.9557 110.899 89.9584Z" fill="black"/>
<path d="M115.599 89.9584C115.559 89.9584 115.519 89.9502 115.482 89.9344C115.445 89.9185 115.412 89.8954 115.384 89.8662C115.354 89.8362 115.33 89.8002 115.314 89.7606C115.298 89.7209 115.291 89.6785 115.292 89.6358C115.292 89.5637 115.311 89.493 115.348 89.431L115.809 88.7142H114.867C114.824 88.7165 114.78 88.7094 114.739 88.6935C114.699 88.6776 114.662 88.6533 114.632 88.6221C114.579 88.5608 114.55 88.4827 114.55 88.4019C114.55 88.3211 114.579 88.243 114.632 88.1817C114.662 88.1506 114.699 88.1262 114.739 88.1103C114.78 88.0944 114.824 88.0874 114.867 88.0896L115.794 88.1152L115.359 87.424C115.318 87.3558 115.295 87.2783 115.292 87.1987C115.291 87.156 115.298 87.1136 115.314 87.074C115.33 87.0343 115.354 86.9984 115.384 86.9683C115.413 86.939 115.447 86.9158 115.485 86.9C115.523 86.8841 115.563 86.876 115.604 86.8761C115.662 86.8753 115.718 86.8914 115.766 86.9223C115.815 86.9533 115.853 86.9978 115.876 87.0502L116.326 87.8541L116.756 87.0861C116.783 87.0263 116.826 86.9751 116.881 86.9381C116.935 86.9011 116.998 86.8797 117.064 86.8761C117.104 86.8761 117.144 86.8843 117.181 86.9002C117.218 86.916 117.251 86.9392 117.279 86.9683C117.309 86.9964 117.332 87.0306 117.348 87.0685C117.364 87.1065 117.372 87.1473 117.371 87.1885C117.37 87.2612 117.349 87.3322 117.309 87.3933L116.859 88.1152L117.796 88.0896C117.839 88.087 117.883 88.0939 117.924 88.1098C117.964 88.1257 118.001 88.1503 118.031 88.1817C118.084 88.243 118.113 88.3211 118.113 88.4019C118.113 88.4827 118.084 88.5608 118.031 88.6221C118.001 88.6535 117.964 88.6781 117.924 88.694C117.883 88.7099 117.839 88.7168 117.796 88.7142H116.849L117.268 89.3696C117.316 89.4487 117.342 89.5386 117.345 89.6307C117.347 89.6722 117.34 89.7135 117.325 89.7523C117.31 89.791 117.287 89.8263 117.258 89.856C117.231 89.8847 117.199 89.9077 117.163 89.9235C117.127 89.9394 117.088 89.9478 117.048 89.9481C116.985 89.9472 116.923 89.9279 116.87 89.8924C116.817 89.857 116.776 89.807 116.751 89.7485L116.326 88.9958L115.901 89.7485C115.876 89.8085 115.834 89.8602 115.781 89.8973C115.727 89.9345 115.664 89.9557 115.599 89.9584Z" fill="black"/>
<path d="M120.32 89.9584C120.28 89.9584 120.24 89.9502 120.203 89.9344C120.166 89.9185 120.133 89.8954 120.105 89.8662C120.075 89.8362 120.051 89.8002 120.035 89.7606C120.019 89.7209 120.012 89.6785 120.013 89.6358C120.013 89.5637 120.032 89.493 120.069 89.431L120.53 88.7142H119.588C119.544 88.7165 119.501 88.7094 119.46 88.6935C119.42 88.6776 119.383 88.6533 119.352 88.6221C119.3 88.5608 119.271 88.4827 119.271 88.4019C119.271 88.3211 119.3 88.243 119.352 88.1817C119.383 88.1506 119.42 88.1262 119.46 88.1103C119.501 88.0944 119.544 88.0874 119.588 88.0896L120.515 88.1152L120.079 87.424C120.038 87.3558 120.015 87.2783 120.013 87.1987C120.012 87.156 120.019 87.1136 120.035 87.074C120.051 87.0343 120.075 86.9984 120.105 86.9683C120.134 86.939 120.168 86.9158 120.206 86.9C120.244 86.8841 120.284 86.876 120.325 86.8761C120.382 86.8753 120.439 86.8914 120.487 86.9223C120.535 86.9533 120.573 86.9978 120.596 87.0502L121.047 87.8541L121.477 87.0861C121.504 87.0263 121.547 86.9751 121.601 86.9381C121.656 86.9011 121.719 86.8797 121.784 86.8761C121.825 86.8761 121.864 86.8843 121.901 86.9002C121.938 86.916 121.972 86.9392 121.999 86.9683C122.029 86.9964 122.053 87.0306 122.069 87.0685C122.085 87.1065 122.093 87.1473 122.092 87.1885C122.091 87.2612 122.07 87.3322 122.03 87.3933L121.58 88.1152L122.516 88.0896C122.56 88.087 122.604 88.0939 122.644 88.1098C122.685 88.1257 122.722 88.1503 122.752 88.1817C122.805 88.243 122.834 88.3211 122.834 88.4019C122.834 88.4827 122.805 88.5608 122.752 88.6221C122.722 88.6535 122.685 88.6781 122.644 88.694C122.604 88.7099 122.56 88.7168 122.516 88.7142H121.569L121.989 89.3696C122.036 89.4487 122.063 89.5386 122.066 89.6307C122.067 89.6722 122.06 89.7135 122.045 89.7523C122.031 89.791 122.008 89.8263 121.979 89.856C121.952 89.8847 121.919 89.9077 121.883 89.9235C121.847 89.9394 121.808 89.9478 121.769 89.9481C121.706 89.9466 121.644 89.927 121.591 89.8916C121.539 89.8562 121.497 89.8066 121.472 89.7485L121.047 88.9958L120.622 89.7485C120.597 89.8085 120.555 89.8602 120.502 89.8973C120.448 89.9345 120.385 89.9557 120.32 89.9584Z" fill="black"/>
<path d="M125 89.9584C124.959 89.9584 124.92 89.9502 124.883 89.9344C124.846 89.9185 124.812 89.8954 124.785 89.8662C124.754 89.8362 124.731 89.8002 124.715 89.7606C124.699 89.721 124.691 89.6785 124.692 89.6358C124.695 89.5641 124.714 89.4939 124.749 89.431L125.21 88.7142H124.268C124.224 88.7165 124.18 88.7094 124.14 88.6935C124.099 88.6776 124.062 88.6533 124.032 88.6221C123.979 88.5608 123.95 88.4827 123.95 88.4019C123.95 88.3211 123.979 88.243 124.032 88.1817C124.062 88.1506 124.099 88.1262 124.14 88.1103C124.18 88.0944 124.224 88.0874 124.268 88.0896L125.194 88.1152L124.759 87.424C124.718 87.3558 124.695 87.2783 124.692 87.1987C124.691 87.156 124.699 87.1136 124.715 87.074C124.731 87.0343 124.754 86.9984 124.785 86.9683C124.813 86.939 124.848 86.9158 124.885 86.9C124.923 86.8841 124.964 86.876 125.005 86.8761C125.062 86.8753 125.118 86.8914 125.167 86.9223C125.215 86.9533 125.253 86.9978 125.276 87.0502L125.727 87.8541L126.157 87.0861C126.184 87.0263 126.227 86.9751 126.281 86.9381C126.335 86.9011 126.398 86.8797 126.464 86.8761C126.504 86.8755 126.544 86.8834 126.581 86.8993C126.618 86.9152 126.652 86.9387 126.679 86.9683C126.709 86.9964 126.733 87.0306 126.749 87.0685C126.765 87.1065 126.772 87.1473 126.771 87.1885C126.771 87.2612 126.749 87.3322 126.71 87.3933L126.259 88.1152L127.196 88.0896C127.24 88.087 127.283 88.0939 127.324 88.1098C127.365 88.1257 127.401 88.1503 127.432 88.1817C127.484 88.243 127.513 88.3211 127.513 88.4019C127.513 88.4827 127.484 88.5608 127.432 88.6221C127.401 88.6535 127.365 88.6781 127.324 88.694C127.283 88.7099 127.24 88.7168 127.196 88.7142H126.249L126.669 89.3696C126.716 89.4487 126.743 89.5386 126.746 89.6307C126.747 89.6722 126.74 89.7135 126.725 89.7523C126.71 89.791 126.688 89.8263 126.659 89.856C126.632 89.8847 126.599 89.9077 126.563 89.9235C126.527 89.9394 126.488 89.9478 126.449 89.9481C126.385 89.9466 126.324 89.927 126.271 89.8916C126.218 89.8562 126.177 89.8066 126.152 89.7485L125.727 88.9958L125.302 89.7485C125.277 89.8085 125.235 89.8602 125.181 89.8973C125.128 89.9345 125.065 89.9557 125 89.9584Z" fill="black"/>
<path d="M129.7 89.9584C129.66 89.9584 129.62 89.9502 129.583 89.9344C129.546 89.9185 129.513 89.8954 129.485 89.8662C129.455 89.8362 129.431 89.8002 129.415 89.7606C129.399 89.721 129.391 89.6785 129.393 89.6358C129.395 89.5641 129.414 89.4939 129.449 89.431L129.91 88.7142H128.973C128.928 88.7169 128.884 88.71 128.843 88.6941C128.801 88.6782 128.763 88.6537 128.732 88.6221C128.68 88.5608 128.651 88.4827 128.651 88.4019C128.651 88.3211 128.68 88.243 128.732 88.1817C128.763 88.1502 128.801 88.1256 128.843 88.1097C128.884 88.0938 128.928 88.087 128.973 88.0896L129.894 88.1152L129.459 87.424C129.418 87.3558 129.395 87.2783 129.393 87.1987C129.391 87.156 129.399 87.1136 129.415 87.074C129.431 87.0343 129.455 86.9984 129.485 86.9683C129.514 86.939 129.548 86.9158 129.586 86.9C129.623 86.8841 129.664 86.876 129.705 86.8761C129.762 86.8753 129.819 86.8914 129.867 86.9223C129.915 86.9533 129.953 86.9978 129.976 87.0502L130.427 87.8541L130.857 87.0861C130.884 87.0263 130.927 86.9751 130.981 86.9381C131.035 86.9011 131.099 86.8797 131.164 86.8761C131.204 86.8755 131.244 86.8834 131.282 86.8993C131.319 86.9152 131.352 86.9387 131.379 86.9683C131.409 86.9964 131.433 87.0306 131.449 87.0685C131.465 87.1065 131.472 87.1473 131.471 87.1885C131.471 87.2612 131.449 87.3322 131.41 87.3933L130.959 88.1152L131.896 88.0896C131.94 88.087 131.984 88.0939 132.024 88.1098C132.065 88.1257 132.102 88.1503 132.132 88.1817C132.185 88.243 132.213 88.3211 132.213 88.4019C132.213 88.4827 132.185 88.5608 132.132 88.6221C132.102 88.6535 132.065 88.6781 132.024 88.694C131.984 88.7099 131.94 88.7168 131.896 88.7142H130.949L131.369 89.3696C131.416 89.4487 131.443 89.5386 131.446 89.6307C131.447 89.6722 131.44 89.7135 131.425 89.7523C131.41 89.791 131.388 89.8263 131.359 89.856C131.332 89.8847 131.299 89.9077 131.263 89.9235C131.227 89.9394 131.188 89.9478 131.149 89.9481C131.085 89.9466 131.024 89.927 130.971 89.8916C130.919 89.8562 130.877 89.8066 130.852 89.7485L130.427 88.9958L130.002 89.7485C129.977 89.8085 129.935 89.8602 129.881 89.8973C129.828 89.9345 129.765 89.9557 129.7 89.9584Z" fill="black"/>
<path d="M134.4 89.9584C134.36 89.9584 134.32 89.9502 134.283 89.9344C134.246 89.9185 134.213 89.8954 134.185 89.8662C134.155 89.8362 134.131 89.8002 134.115 89.7606C134.099 89.721 134.092 89.6785 134.093 89.6358C134.093 89.5637 134.112 89.493 134.149 89.431L134.61 88.7142H133.668C133.624 88.7165 133.581 88.7094 133.54 88.6935C133.5 88.6776 133.463 88.6533 133.432 88.6221C133.38 88.5608 133.351 88.4827 133.351 88.4019C133.351 88.3211 133.38 88.243 133.432 88.1818C133.463 88.1506 133.5 88.1262 133.54 88.1103C133.581 88.0944 133.624 88.0874 133.668 88.0896L134.595 88.1152L134.144 87.4496C134.103 87.3814 134.08 87.3039 134.078 87.2243C134.076 87.1817 134.084 87.1392 134.1 87.0996C134.116 87.0599 134.139 87.024 134.17 86.9939C134.198 86.9646 134.233 86.9414 134.27 86.9256C134.308 86.9098 134.349 86.9016 134.39 86.9018C134.447 86.9009 134.503 86.917 134.552 86.9479C134.6 86.9789 134.638 87.0234 134.661 87.0758L135.112 87.8797L135.542 87.1117C135.569 87.0519 135.612 87.0007 135.666 86.9637C135.72 86.9267 135.784 86.9053 135.849 86.9018C135.889 86.9011 135.929 86.909 135.966 86.9249C136.003 86.9408 136.037 86.9643 136.064 86.9939C136.094 87.022 136.118 87.0562 136.134 87.0941C136.15 87.1321 136.157 87.173 136.156 87.2141C136.156 87.2868 136.134 87.3578 136.095 87.4189L135.644 88.1408L136.581 88.1152C136.625 88.1126 136.668 88.1195 136.709 88.1354C136.75 88.1513 136.786 88.1759 136.817 88.2074C136.869 88.2686 136.898 88.3467 136.898 88.4275C136.898 88.5083 136.869 88.5864 136.817 88.6477C136.786 88.6791 136.75 88.7037 136.709 88.7196C136.668 88.7355 136.625 88.7424 136.581 88.7398H135.634L136.054 89.3952C136.101 89.4743 136.128 89.5642 136.131 89.6563C136.132 89.6978 136.125 89.7391 136.11 89.7779C136.095 89.8166 136.073 89.8519 136.044 89.8816C136.017 89.9103 135.984 89.9333 135.948 89.9492C135.912 89.965 135.873 89.9734 135.834 89.9738C135.77 89.9722 135.709 89.9526 135.656 89.9172C135.603 89.8818 135.562 89.8322 135.537 89.7741L135.112 89.0214L134.687 89.7741C134.659 89.8271 134.618 89.872 134.568 89.9044C134.518 89.9367 134.46 89.9553 134.4 89.9584Z" fill="black"/>
<path d="M139.1 89.9584C139.06 89.9584 139.02 89.9502 138.983 89.9344C138.946 89.9185 138.913 89.8954 138.885 89.8662C138.855 89.8362 138.831 89.8002 138.815 89.7606C138.799 89.721 138.792 89.6785 138.793 89.6358C138.795 89.5641 138.815 89.4939 138.849 89.431L139.31 88.7142H138.373C138.329 88.7175 138.286 88.7109 138.245 88.695C138.204 88.679 138.167 88.6541 138.138 88.6221C138.082 88.5623 138.051 88.4836 138.051 88.4019C138.051 88.3202 138.082 88.2415 138.138 88.1817C138.167 88.1497 138.204 88.1248 138.245 88.1088C138.286 88.0929 138.329 88.0863 138.373 88.0896L139.295 88.1152L138.86 87.424C138.818 87.3558 138.796 87.2783 138.793 87.1987C138.792 87.1568 138.799 87.1151 138.814 87.076C138.829 87.037 138.852 87.0013 138.881 86.9712C138.91 86.9411 138.945 86.9172 138.983 86.9009C139.022 86.8845 139.063 86.8761 139.105 86.8761C139.163 86.8753 139.219 86.8914 139.267 86.9223C139.315 86.9533 139.354 86.9978 139.377 87.0502L139.827 87.8541L140.257 87.0861C140.284 87.0263 140.327 86.9751 140.382 86.9381C140.436 86.9011 140.499 86.8797 140.564 86.8761C140.605 86.8749 140.645 86.8824 140.682 86.8984C140.719 86.9143 140.753 86.9382 140.78 86.9683C140.81 86.9964 140.833 87.0306 140.849 87.0685C140.865 87.1065 140.873 87.1473 140.872 87.1885C140.871 87.2612 140.85 87.3322 140.81 87.3933L140.36 88.1152L141.297 88.0896C141.34 88.087 141.384 88.0939 141.425 88.1098C141.465 88.1257 141.502 88.1503 141.532 88.1817C141.585 88.243 141.614 88.3211 141.614 88.4019C141.614 88.4827 141.585 88.5608 141.532 88.6221C141.502 88.6535 141.465 88.6781 141.425 88.694C141.384 88.7099 141.34 88.7168 141.297 88.7142H140.349L140.769 89.3696C140.817 89.4487 140.843 89.5386 140.846 89.6307C140.847 89.6711 140.841 89.7113 140.827 89.7491C140.812 89.7869 140.791 89.8215 140.763 89.851C140.736 89.8805 140.703 89.9042 140.666 89.9209C140.629 89.9376 140.589 89.9468 140.549 89.9481C140.486 89.9466 140.424 89.927 140.372 89.8916C140.319 89.8563 140.277 89.8066 140.252 89.7485L139.827 88.9958L139.402 89.7485C139.377 89.8085 139.335 89.8602 139.282 89.8973C139.228 89.9345 139.165 89.9557 139.1 89.9584Z" fill="black"/>
<path d="M143.8 89.9584C143.76 89.9584 143.72 89.9502 143.683 89.9344C143.646 89.9185 143.613 89.8954 143.585 89.8662C143.555 89.8362 143.531 89.8002 143.515 89.7606C143.5 89.721 143.492 89.6785 143.493 89.6358C143.496 89.5641 143.515 89.4939 143.549 89.431L144.01 88.7142H143.068C143.025 88.7167 142.983 88.7098 142.943 88.6939C142.903 88.6779 142.867 88.6534 142.838 88.6221C142.782 88.5623 142.751 88.4836 142.751 88.4019C142.751 88.3202 142.782 88.2415 142.838 88.1817C142.867 88.1504 142.903 88.1259 142.943 88.11C142.983 88.094 143.025 88.0871 143.068 88.0896L143.995 88.1152L143.56 87.424C143.519 87.3558 143.496 87.2783 143.493 87.1987C143.492 87.1568 143.499 87.1151 143.514 87.076C143.529 87.037 143.552 87.0013 143.581 86.9712C143.61 86.9411 143.645 86.9172 143.684 86.9009C143.722 86.8845 143.764 86.8761 143.805 86.8761C143.863 86.8753 143.919 86.8914 143.967 86.9223C144.016 86.9533 144.054 86.9978 144.077 87.0502L144.527 87.8541L144.957 87.0861C144.985 87.0263 145.028 86.9751 145.082 86.9381C145.136 86.9011 145.199 86.8797 145.265 86.8761C145.305 86.8749 145.345 86.8824 145.382 86.8984C145.42 86.9143 145.453 86.9382 145.48 86.9683C145.51 86.9964 145.533 87.0306 145.549 87.0685C145.565 87.1065 145.573 87.1473 145.572 87.1885C145.571 87.2612 145.55 87.3322 145.51 87.3933L145.06 88.1152L145.997 88.0896C146.04 88.087 146.084 88.0939 146.125 88.1098C146.165 88.1257 146.202 88.1503 146.232 88.1817C146.285 88.243 146.314 88.3211 146.314 88.4019C146.314 88.4827 146.285 88.5608 146.232 88.6221C146.202 88.6535 146.165 88.6781 146.125 88.694C146.084 88.7099 146.04 88.7168 145.997 88.7142H145.05L145.469 89.3696C145.517 89.4487 145.543 89.5386 145.546 89.6307C145.548 89.6711 145.541 89.7113 145.527 89.7491C145.513 89.7869 145.491 89.8215 145.464 89.851C145.436 89.8805 145.403 89.9042 145.366 89.9209C145.329 89.9376 145.29 89.9468 145.249 89.9481C145.186 89.9466 145.124 89.927 145.072 89.8916C145.019 89.8563 144.978 89.8066 144.952 89.7485L144.527 88.9958L144.102 89.7485C144.077 89.8085 144.035 89.8602 143.982 89.8973C143.928 89.9345 143.865 89.9557 143.8 89.9584Z" fill="black"/>
<path d="M148.48 89.9584C148.44 89.9584 148.4 89.9502 148.363 89.9344C148.326 89.9185 148.293 89.8954 148.265 89.8662C148.235 89.8362 148.211 89.8002 148.195 89.7606C148.179 89.721 148.172 89.6785 148.173 89.6358C148.175 89.5641 148.195 89.4939 148.229 89.431L148.69 88.7142H147.748C147.705 88.7167 147.662 88.7098 147.622 88.6939C147.583 88.6779 147.547 88.6534 147.517 88.6221C147.462 88.5623 147.431 88.4836 147.431 88.4019C147.431 88.3202 147.462 88.2415 147.517 88.1817C147.547 88.1504 147.583 88.1259 147.622 88.11C147.662 88.094 147.705 88.0871 147.748 88.0896L148.675 88.1152L148.239 87.424C148.198 87.3558 148.175 87.2783 148.173 87.1987C148.172 87.156 148.179 87.1136 148.195 87.074C148.211 87.0343 148.235 86.9984 148.265 86.9683C148.294 86.939 148.328 86.9158 148.366 86.9C148.404 86.8841 148.444 86.876 148.485 86.8761C148.542 86.8753 148.599 86.8914 148.647 86.9223C148.695 86.9533 148.733 86.9978 148.757 87.0502L149.207 87.8541L149.637 87.0861C149.664 87.0263 149.707 86.9751 149.761 86.9381C149.816 86.9011 149.879 86.8797 149.944 86.8761C149.985 86.8749 150.025 86.8824 150.062 86.8984C150.099 86.9143 150.132 86.9382 150.159 86.9683C150.189 86.9964 150.213 87.0306 150.229 87.0685C150.245 87.1065 150.253 87.1473 150.252 87.1885C150.251 87.2612 150.23 87.3322 150.19 87.3933L149.74 88.1152L150.677 88.0896C150.72 88.087 150.764 88.0939 150.804 88.1098C150.845 88.1257 150.882 88.1503 150.912 88.1817C150.965 88.243 150.994 88.3211 150.994 88.4019C150.994 88.4827 150.965 88.5608 150.912 88.6221C150.882 88.6535 150.845 88.6781 150.804 88.694C150.764 88.7099 150.72 88.7168 150.677 88.7142H149.729L150.149 89.3696C150.197 89.4487 150.223 89.5386 150.226 89.6307C150.227 89.6722 150.22 89.7135 150.206 89.7523C150.191 89.791 150.168 89.8263 150.139 89.856C150.112 89.8847 150.079 89.9077 150.043 89.9235C150.007 89.9394 149.968 89.9478 149.929 89.9481C149.866 89.9466 149.804 89.927 149.751 89.8916C149.699 89.8563 149.657 89.8066 149.632 89.7485L149.207 88.9958L148.782 89.7485C148.757 89.8085 148.715 89.8602 148.662 89.8973C148.608 89.9345 148.545 89.9557 148.48 89.9584Z" fill="black"/>
<path d="M164.587 101.284H170.849" stroke="white" stroke-width="3" stroke-linecap="round" stroke-linejoin="round"/>
<path d="M77.7368 55.1782V96.768C77.7368 97.9725 78.2153 99.1276 79.067 99.9793C79.9187 100.831 81.0738 101.309 82.2783 101.309H158.643" stroke="white" stroke-width="3" stroke-linecap="round" stroke-linejoin="round"/>
<path d="M77.7368 44.1497V50.3859" stroke="white" stroke-width="3" stroke-linecap="round" stroke-linejoin="round"/>
</svg>
