<svg width="19" height="18" viewBox="0 0 19 18" fill="none" xmlns="http://www.w3.org/2000/svg">
<path d="M18.4999 9.19985C18.4999 8.45985 18.4386 7.91986 18.306 7.35986H9.68359V10.6998H14.7448C14.6428 11.5298 14.0917 12.7799 12.8672 13.6198L12.8501 13.7316L15.5763 15.8014L15.7652 15.8199C17.4999 14.2498 18.4999 11.9398 18.4999 9.19985Z" fill="#4285F4"/>
<path d="M9.68319 18.0001C12.1627 18.0001 14.2443 17.2 15.7648 15.8201L12.8668 13.62C12.0913 14.15 11.0505 14.52 9.68319 14.52C7.25465 14.52 5.19345 12.95 4.45869 10.78L4.35099 10.789L1.5162 12.939L1.47913 13.04C2.98931 15.98 6.09134 18.0001 9.68319 18.0001Z" fill="#34A853"/>
<path d="M4.45914 10.7801C4.26526 10.2201 4.15306 9.62004 4.15306 9.00007C4.15306 8.38003 4.26526 7.78006 4.44894 7.22006L4.4438 7.1008L1.57348 4.91626L1.47957 4.96004C0.857146 6.18005 0.5 7.55008 0.5 9.00007C0.5 10.4501 0.857146 11.82 1.47957 13.04L4.45914 10.7801Z" fill="#FBBC05"/>
<path d="M9.68324 3.47997C11.4077 3.47997 12.5709 4.20997 13.2342 4.82001L15.8261 2.34C14.2343 0.890003 12.1628 0 9.68324 0C6.09137 0 2.98932 2.01998 1.47913 4.95996L4.44851 7.21999C5.19347 5.04999 7.25468 3.47997 9.68324 3.47997Z" fill="#EB4335"/>
</svg>
