<svg width="110" height="129" viewBox="0 0 110 129" fill="none" xmlns="http://www.w3.org/2000/svg">
<path d="M36.2351 38.4942H36.2523C36.7324 38.4942 37.1267 38.1686 37.1353 37.7642C37.1439 37.3563 36.7581 37.0164 36.2694 37.0093H36.2523C35.7722 37.0093 35.3735 37.3313 35.3649 37.7356C35.3564 38.1435 35.7464 38.4835 36.2351 38.4942ZM22.7279 42.5625L23.3366 42.33C25.0084 41.6931 26.7702 40.9094 28.6306 40.7806C28.7292 40.777 29.0121 40.6196 29.0507 40.5624C29.9123 39.217 30.6625 37.6855 31.777 36.469C31.9999 36.2221 32.2014 36.0503 32.4114 35.9322C32.7629 35.7283 33.1959 35.6317 33.7403 35.6317C34.0618 35.6317 34.4219 35.6639 34.8248 35.7319C35.9779 35.9251 36.9981 36.0145 38.0226 36.0145C38.3184 36.0145 38.6142 36.0074 38.9186 35.9931C39.6301 35.9573 40.3503 35.8857 41.0447 35.8142C41.7006 35.7462 42.3779 35.6782 43.0466 35.6424C43.2524 35.6317 43.471 35.6245 43.6939 35.6245C45.4471 35.6245 47.6505 35.9859 48.9064 37.045C49.4337 37.4923 49.7638 38.029 49.8795 38.6588C49.9309 38.9236 49.9438 39.2098 49.9181 39.5068C49.8924 39.8038 49.7466 40.1008 49.498 40.4049C47.8734 42.3693 41.8678 44.4375 36.2437 45.833C34.7905 46.1908 33.3931 46.3733 31.8842 46.4556C31.747 46.4627 31.2498 46.6381 31.1512 46.7132C29.9938 47.5469 28.5792 48.1158 27.2332 48.7027C24.5754 49.862 21.8277 51.0571 20.9404 53.0537C20.2588 54.5816 20.3874 56.02 21.3262 57.3332C25.1713 62.7362 42.0392 64.722 49.2408 65.5701C49.9952 65.6595 50.6468 65.7382 51.1741 65.8026C45.8029 67.0371 42.2021 68.7117 40.4103 70.812C31.6613 69.9354 22.8093 68.7904 16.4608 63.7094C14.7676 62.3569 13.5716 60.8326 12.9072 59.1831C10.0823 52.1878 13.7517 45.9725 22.7279 42.5625Z" fill="#224A46"/>
<path d="M55.4482 122.036L55.3025 128.538C55.2853 129.167 54.6766 129.167 54.6638 128.538L54.518 122.036C54.6724 121.893 54.8267 121.75 54.981 121.603C55.1353 121.75 55.2939 121.89 55.4482 122.036Z" fill="#224A46"/>
<path d="M56.1809 89.3377L56.0952 93.2057C55.778 93.406 55.405 93.6064 54.9806 93.8068C54.5563 93.6064 54.1876 93.406 53.8704 93.2057L53.7847 89.3377C54.1319 89.0228 54.5391 88.7044 54.9806 88.3823C55.4265 88.7044 55.8294 89.0228 56.1809 89.3377Z" fill="#224A46"/>
<path d="M55.6022 77.9307C55.405 78.0917 55.1993 78.2563 54.9807 78.4209C54.7663 78.2563 54.5606 78.0917 54.3634 77.9307C54.029 77.6552 53.7461 77.4083 53.5103 77.1828L53.4503 74.6102C53.939 74.4205 54.4534 74.2559 54.9807 74.1128C55.5122 74.2559 56.0223 74.4205 56.511 74.6102L56.4553 77.1828C56.2195 77.4083 55.9366 77.6552 55.6022 77.9307Z" fill="#224A46"/>
<path d="M54.9811 114.976C54.7625 114.633 54.5482 114.293 54.3338 113.949L54.0724 102.245C54.3681 102.163 54.6682 102.084 54.9854 102.005C55.2983 102.084 55.5984 102.163 55.8899 102.245L55.6284 113.953C55.4184 114.293 55.204 114.636 54.9811 114.976Z" fill="#224A46"/>
<path d="M57.7886 73.6916C57.6943 73.6487 57.6 73.6093 57.5014 73.5664C58.3415 73.4232 59.1817 73.3016 59.9833 73.1871L60.3134 73.1406C62.7568 72.7863 65.2859 72.5394 67.9608 72.2746L68.0079 72.2711C68.2565 72.246 68.5052 72.221 68.7538 72.1959C68.8781 72.4035 68.9853 72.6181 69.071 72.8364C69.9283 75.0227 68.5523 77.6454 64.9816 80.6368C64.1499 81.3345 62.954 82.0788 61.6122 82.8552C61.3936 82.9805 61.1664 83.1093 60.9392 83.2381C60.7163 83.3633 60.4934 83.4886 60.2662 83.6174C60.0433 83.7426 59.8161 83.8714 59.589 83.9967C59.5847 83.9967 59.5804 84.0002 59.5761 84.0038C58.453 84.63 57.317 85.2633 56.2582 85.9038C55.821 86.1686 55.3923 86.437 54.9808 86.7017C54.7708 86.8413 54.5607 86.9808 54.3592 87.1204C54.1535 87.2671 53.952 87.4102 53.7591 87.5533C53.7548 87.5569 53.7463 87.5605 53.742 87.5641C51.9802 88.8773 50.8056 90.2226 50.9085 91.6002C50.9857 92.6451 51.783 93.5933 53.3262 94.4699C52.4946 94.7454 51.5343 95.0066 50.5356 95.275L50.5098 95.2822C48.8938 95.7187 47.1148 96.1982 45.503 96.8673C44.4357 95.987 43.7327 95.0102 43.4112 93.9368C42.7339 91.6933 43.6941 89.0848 46.2661 86.1758C46.6776 85.7142 47.4578 85.1238 48.4265 84.4618C48.628 84.3223 48.838 84.1827 49.061 84.0396C49.2667 83.9001 49.481 83.7605 49.6997 83.6174C50.1369 83.3347 50.587 83.0449 51.0457 82.7479C51.8901 82.2076 52.756 81.653 53.5962 81.0912C54.072 80.7763 54.535 80.4579 54.9808 80.143C55.1866 79.9963 55.3838 79.8532 55.5809 79.71C55.7738 79.5633 55.971 79.4166 56.1554 79.2735C56.2411 79.2055 56.3268 79.1411 56.4126 79.0731C58.1358 77.7027 59.3275 76.3824 59.2203 75.2731C59.156 74.6219 58.6759 74.0923 57.7886 73.6916Z" fill="#224A46"/>
<path d="M53.2926 120.01C53.4341 119.813 53.5755 119.62 53.7127 119.427C53.8541 119.234 53.9913 119.037 54.1328 118.844C54.2357 118.697 54.3342 118.55 54.4371 118.407C54.6215 118.146 54.8015 117.885 54.9815 117.624C55.1316 117.409 55.2816 117.191 55.4273 116.972C55.4745 116.904 55.5216 116.836 55.5645 116.768C55.6674 116.618 55.7703 116.468 55.8732 116.314C57.6178 113.684 59.1739 110.99 60.2541 108.206C61.0986 106.023 61.15 104.47 60.417 103.315C59.8383 102.399 58.8138 101.823 57.5278 101.372C58.7023 101.071 59.9412 100.713 61.1757 100.23C62.5389 99.6935 63.7091 99.096 64.6865 98.4304C66.2168 99.189 67.4085 100.169 67.8543 101.547C68.806 104.506 65.4924 108.36 63.3019 110.911C63.0318 111.219 62.7789 111.516 62.5475 111.788C60.8071 113.867 58.891 115.867 56.9019 117.81C56.7305 117.981 56.5504 118.153 56.3704 118.329C56.1947 118.5 56.0146 118.672 55.8346 118.844C55.7274 118.944 55.6202 119.048 55.5131 119.148C55.3373 119.316 55.1616 119.488 54.9815 119.652C54.8144 119.813 54.6472 119.974 54.4757 120.132C54.4714 120.135 54.4671 120.139 54.4671 120.143C54.2957 120.304 54.1199 120.468 53.9485 120.629C52.9154 121.588 51.8823 122.54 50.8578 123.481C50.7549 123.574 50.652 123.671 50.5491 123.764C50.8921 123.295 51.235 122.826 51.5779 122.361C52.1481 121.581 52.7225 120.797 53.2926 120.01Z" fill="#224A46"/>
<path d="M58.3884 122.36C58.7314 122.826 59.0743 123.294 59.4172 123.763C59.3144 123.67 59.2115 123.573 59.1086 123.48C58.0841 122.539 57.051 121.588 56.0179 120.629C56.2365 120.421 56.4552 120.217 56.6738 120.01C57.2396 120.797 57.8183 121.58 58.3884 122.36Z" fill="#224A46"/>
<path d="M73.7132 37.0093H73.696C73.2074 37.0164 72.8216 37.3563 72.8301 37.7642C72.8387 38.1686 73.2331 38.4942 73.7132 38.4942H73.7303C74.219 38.4835 74.6091 38.1435 74.6005 37.7356C74.5877 37.3313 74.1933 37.0093 73.7132 37.0093ZM41.2118 72.1968C41.3405 71.9893 41.4862 71.7853 41.6534 71.5885C41.8248 71.3846 42.0177 71.1842 42.2278 70.9945C44.4697 68.9478 48.7864 67.5917 53.2745 66.6972C53.8446 66.5827 54.4147 66.4753 54.9806 66.3751C55.5592 66.275 56.1337 66.1855 56.7038 66.096C56.7681 66.0853 56.8367 66.0746 56.9053 66.0638C57.514 65.9744 58.1184 65.8921 58.7099 65.8134C58.7357 65.8098 58.7614 65.8062 58.7914 65.8026C59.3144 65.7382 59.9702 65.6595 60.7204 65.5701C67.9262 64.722 84.7942 62.7362 88.6393 57.3332C89.5738 56.02 89.7067 54.5816 89.0251 53.0537C88.1377 51.0571 85.39 49.862 82.7323 48.7027C81.3863 48.1158 79.9717 47.5469 78.8186 46.7132C78.7157 46.6381 78.2184 46.4627 78.0813 46.4556C76.5724 46.3733 75.1749 46.1908 73.7175 45.833C68.0977 44.4375 62.0921 42.3693 60.4675 40.4049C60.2188 40.1008 60.0731 39.8038 60.0474 39.5068C60.0216 39.2098 60.0345 38.9236 60.0859 38.6588C60.2017 38.029 60.5318 37.4923 61.059 37.045C62.315 35.9859 64.5183 35.6245 66.2673 35.6245C66.4945 35.6245 66.7131 35.6317 66.9189 35.6424C67.5876 35.6782 68.2649 35.7462 68.9207 35.8142C69.6152 35.8857 70.3353 35.9573 71.0469 35.9931C71.3512 36.0074 71.647 36.0145 71.9428 36.0145C72.9673 36.0145 73.9832 35.9251 75.1406 35.7319C75.5436 35.6639 75.9037 35.6317 76.2252 35.6317C76.7696 35.6317 77.2025 35.7283 77.554 35.9322C77.7641 36.0503 77.9655 36.2221 78.1884 36.469C79.2987 37.6855 80.0531 39.217 80.9147 40.5624C80.9533 40.6196 81.2362 40.777 81.3306 40.7806C83.1952 40.9094 84.9571 41.6931 86.6288 42.33L87.2375 42.5625C96.2138 45.9725 99.8831 52.1878 97.0582 59.1831C96.3938 60.8326 95.1978 62.3569 93.5046 63.7094C87.1604 68.7904 78.3042 69.9354 69.5551 70.812C69.2594 70.8442 68.9636 70.8729 68.6721 70.9015C68.3892 70.9301 68.1063 70.9588 67.8276 70.9838C67.7976 70.9874 67.7676 70.991 67.7376 70.9945C65.0584 71.2593 62.5208 71.5062 60.0517 71.864L59.7216 71.9105C58.7056 72.0572 57.6297 72.2111 56.5623 72.4151C56.0308 72.5152 55.5035 72.6262 54.9806 72.755C54.5347 72.8659 54.0889 72.9911 53.6603 73.1307C53.5788 73.1557 53.5017 73.1844 53.4202 73.2094C53.0944 73.3203 52.7729 73.4384 52.4643 73.5672C52.3657 73.6102 52.2714 73.6495 52.1771 73.6925C51.2898 74.0932 50.8096 74.6228 50.7453 75.274C50.6382 76.3832 51.8299 77.7036 53.5531 79.074C53.6388 79.1384 53.7246 79.2064 53.8103 79.2744C53.7289 79.3316 53.6431 79.3889 53.5617 79.4461C52.4686 80.2047 51.2812 80.9668 50.1109 81.7147L50.1066 81.7218L50.0766 81.7397C49.4765 82.1262 48.8935 82.4983 48.3534 82.8561C47.0074 82.0796 45.8157 81.3354 44.9841 80.6376C41.4133 77.6463 40.0373 75.0235 40.8904 72.8373C40.9761 72.619 41.0875 72.4043 41.2118 72.1968Z" fill="#224A46"/>
<path d="M45.2804 98.4266C45.5205 98.3085 45.7648 98.1976 46.022 98.0867C46.2749 97.9794 46.5407 97.8756 46.8108 97.7754C48.1396 97.278 49.6014 96.8844 50.9902 96.5087C52.0319 96.2296 53.035 95.9577 53.9266 95.6607C54.2995 95.5355 54.6553 95.4067 54.9811 95.2707C54.994 95.2671 55.0025 95.2635 55.0068 95.26C55.3026 95.1383 55.577 95.0131 55.8384 94.8878C55.9113 94.8485 55.9842 94.8127 56.0571 94.7769C56.2628 94.6731 56.46 94.5694 56.64 94.4656C58.1832 93.589 58.9806 92.6408 59.0577 91.5959C59.1606 90.2183 57.9861 88.873 56.22 87.5598C56.2157 87.5562 56.2114 87.5526 56.2071 87.5455C56.2114 87.5455 56.2157 87.5419 56.22 87.5383C57.5488 86.6867 59.0577 85.8458 60.4337 85.0765L60.4466 85.0694C60.8152 84.8654 61.1796 84.6615 61.5397 84.4575C62.5085 85.1195 63.2886 85.7099 63.7001 86.1715C66.2721 89.0805 67.2323 91.689 66.5551 93.9325C66.2336 95.0059 65.5305 95.9827 64.4632 96.863C64.2703 97.0204 64.0645 97.1743 63.8459 97.3245C63.6273 97.482 63.4001 97.6323 63.1557 97.7754C62.397 98.237 61.5182 98.6592 60.5195 99.0528C58.9763 99.6575 57.3731 100.062 55.9327 100.416C55.8213 100.441 55.7056 100.47 55.5984 100.495C55.3926 100.548 55.1826 100.599 54.9811 100.649C54.6596 100.727 54.3467 100.806 54.0423 100.888C53.9095 100.924 53.7723 100.96 53.6437 100.996C53.2193 101.11 52.8164 101.235 52.4391 101.368C51.1531 101.819 50.1286 102.395 49.5499 103.311C48.8169 104.467 48.8684 106.019 49.7128 108.202C50.7931 110.986 52.3491 113.68 54.0938 116.31C53.7594 116.811 53.4122 117.309 53.0607 117.806C51.076 115.863 49.1598 113.863 47.4152 111.784C47.188 111.512 46.9351 111.215 46.665 110.907C44.4745 108.356 41.161 104.502 42.1126 101.543C42.5541 100.166 43.7501 99.1852 45.2804 98.4266Z" fill="#224A46"/>
<mask id="mask0_257_1980" style="mask-type:luminance" maskUnits="userSpaceOnUse" x="0" y="0" width="110" height="66">
<path d="M109.318 0L0.681694 0V65.838H109.318V0Z" fill="white"/>
</mask>
<g mask="url(#mask0_257_1980)">
<path d="M9.91537 28.2388C4.39846 27.3693 0.690514 26.3853 0.690514 26.3853C38.1986 0.243314 50.0598 7.02033 47.6678 11.79C45.6917 15.7296 50.7114 15.1749 52.5203 14.8636L52.4346 8.80941C50.6385 8.03295 49.4125 6.4693 49.4125 4.66233C49.4125 2.08606 51.903 0 54.9809 0C58.0587 0 60.5535 2.08606 60.5535 4.66233C60.5535 6.4693 59.3275 8.03295 57.5314 8.80941L57.4457 14.8565C59.2161 15.1678 64.3343 15.7582 62.3367 11.79C59.9491 7.02033 71.8059 0.243314 109.318 26.3853C109.318 26.3853 105.61 27.3693 100.094 28.2388C97.0929 26.3209 94.3708 24.106 92.0303 21.6085C93.8993 24.106 96.1241 26.4032 98.6275 28.4606C96.4756 28.7755 94.0922 29.0582 91.5802 29.255H91.5717C87.045 26.9149 82.9984 23.9378 79.6976 20.4241C82.2482 23.8269 85.4632 26.8576 89.1326 29.4231C86.9035 29.5484 84.6101 29.5949 82.3082 29.5305C76.5427 27.0115 71.3901 23.5228 67.365 19.2326C70.2799 23.1256 74.0521 26.5248 78.4031 29.3158C73.2634 28.8649 68.2523 27.7665 64.0471 25.6196C62.7011 23.3009 59.3318 22.7535 57.3428 22.0271L56.7341 64.7717C56.134 64.8576 55.551 64.9506 54.9809 65.0472C54.415 64.9506 53.832 64.8576 53.2319 64.7717L52.6232 22.0414C50.6299 22.7606 47.2949 23.3152 45.9575 25.6196C41.7523 27.7665 36.7412 28.8649 31.6058 29.3158C35.9524 26.5248 39.7247 23.1256 42.6396 19.2326C38.6144 23.5228 33.4662 27.0115 27.7007 29.5305C25.3944 29.5949 23.1054 29.5484 20.8763 29.4231C24.5457 26.8576 27.7564 23.8269 30.3112 20.4241C27.0105 23.9378 22.9596 26.9149 18.4329 29.255H18.4286C15.9167 29.0582 13.529 28.7755 11.3771 28.4606C13.8848 26.4032 16.1053 24.106 17.9785 21.6085C15.6338 24.106 12.916 26.3209 9.91537 28.2388Z" fill="#224A46"/>
</g>
</svg>
