<svg width="265" height="265" viewBox="0 0 265 265" fill="none" xmlns="http://www.w3.org/2000/svg">
<rect width="265" height="265" fill="white"/>
<path d="M175.748 32.1354C175.748 32.1354 134.943 17.624 94.8698 40.7267C54.7965 63.8294 34.6247 109.68 17.2725 146.409C-0.0796585 183.138 9.90554 220.482 40.4812 237.537C71.0569 254.592 91.8488 229.46 134.742 228.241C177.635 227.022 189.167 233.149 224.762 208.917C260.357 184.685 266.786 127.461 238.712 85.1195C210.638 42.7778 175.748 32.1354 175.748 32.1354Z" fill="#92E3A9"/>
<path opacity="0.7" d="M175.748 32.1354C175.748 32.1354 134.943 17.624 94.8698 40.7267C54.7965 63.8294 34.6247 109.68 17.2725 146.409C-0.0796585 183.138 9.90554 220.482 40.4812 237.537C71.0569 254.592 91.8488 229.46 134.742 228.241C177.635 227.022 189.167 233.149 224.762 208.917C260.357 184.685 266.786 127.461 238.712 85.1195C210.638 42.7778 175.748 32.1354 175.748 32.1354Z" fill="white"/>
<path d="M178.277 70.0382H17.2422V229.187H178.277V70.0382Z" fill="white" stroke="#263238" stroke-width="1.0191" stroke-linecap="round" stroke-linejoin="round"/>
<path d="M91.7965 86.8011H81.6841V98.318H91.7965V86.8011Z" fill="white" stroke="#263238" stroke-width="1.0191" stroke-linecap="round" stroke-linejoin="round"/>
<path d="M88.2455 86.8011H81.6841V98.318H88.2455V86.8011Z" fill="white" stroke="#263238" stroke-width="1.0191" stroke-linecap="round" stroke-linejoin="round"/>
<path d="M87.4294 91.6902H82.4209V97.0962H87.4294V91.6902Z" fill="#8BC4B5" stroke="#263238" stroke-width="1.0191" stroke-linecap="round" stroke-linejoin="round"/>
<path d="M83.253 86.8011H73.1406V98.318H83.253V86.8011Z" fill="white" stroke="#263238" stroke-width="1.0191" stroke-linecap="round" stroke-linejoin="round"/>
<path d="M79.702 86.8011H73.1406V98.318H79.702V86.8011Z" fill="white" stroke="#263238" stroke-width="1.0191" stroke-linecap="round" stroke-linejoin="round"/>
<path d="M78.8859 91.6902H73.8774V97.0962H78.8859V91.6902Z" fill="#8BC4B5" stroke="#263238" stroke-width="1.0191" stroke-linecap="round" stroke-linejoin="round"/>
<path d="M75.151 81.3666H65.0386V98.316H75.151V81.3666Z" fill="#8BC4B5" stroke="#263238" stroke-width="1.0191" stroke-linecap="round" stroke-linejoin="round"/>
<path d="M71.6 81.3666H65.0386V98.316H71.6V81.3666Z" fill="white" stroke="#263238" stroke-width="1.0191" stroke-linecap="round" stroke-linejoin="round"/>
<path d="M70.7839 88.5696H65.7754V96.5249H70.7839V88.5696Z" fill="#8BC4B5" stroke="#263238" stroke-width="1.0191" stroke-linecap="round" stroke-linejoin="round"/>
<path d="M66.6073 81.3666H56.4949V98.316H66.6073V81.3666Z" fill="#8BC4B5" stroke="#263238" stroke-width="1.0191" stroke-linecap="round" stroke-linejoin="round"/>
<path d="M63.0563 81.3666H56.4949V98.316H63.0563V81.3666Z" fill="#8BC4B5" stroke="#263238" stroke-width="1.0191" stroke-linecap="round" stroke-linejoin="round"/>
<path d="M62.2402 88.5696H57.2317V96.5249H62.2402V88.5696Z" fill="white" stroke="#263238" stroke-width="1.0191" stroke-linecap="round" stroke-linejoin="round"/>
<path d="M59.0916 86.8011H48.9792V98.318H59.0916V86.8011Z" fill="white" stroke="#263238" stroke-width="1.0191" stroke-linecap="round" stroke-linejoin="round"/>
<path d="M55.5406 86.8011H48.9792V98.318H55.5406V86.8011Z" fill="white" stroke="#263238" stroke-width="1.0191" stroke-linecap="round" stroke-linejoin="round"/>
<path d="M54.7246 91.6902H49.7161V97.0962H54.7246V91.6902Z" fill="#8BC4B5" stroke="#263238" stroke-width="1.0191" stroke-linecap="round" stroke-linejoin="round"/>
<path d="M50.5479 86.8011H40.4355V98.318H50.5479V86.8011Z" fill="white" stroke="#263238" stroke-width="1.0191" stroke-linecap="round" stroke-linejoin="round"/>
<path d="M46.9969 86.8011H40.4355V98.318H46.9969V86.8011Z" fill="white" stroke="#263238" stroke-width="1.0191" stroke-linecap="round" stroke-linejoin="round"/>
<path d="M46.1809 91.6902H41.1724V97.0962H46.1809V91.6902Z" fill="#8BC4B5" stroke="#263238" stroke-width="1.0191" stroke-linecap="round" stroke-linejoin="round"/>
<path d="M42.4432 81.3666H32.3308V98.316H42.4432V81.3666Z" fill="white" stroke="#263238" stroke-width="1.0191" stroke-linecap="round" stroke-linejoin="round"/>
<path d="M38.8922 81.3666H32.3308V98.316H38.8922V81.3666Z" fill="white" stroke="#263238" stroke-width="1.0191" stroke-linecap="round" stroke-linejoin="round"/>
<path d="M38.0761 88.5696H33.0676V96.5249H38.0761V88.5696Z" fill="#8BC4B5" stroke="#263238" stroke-width="1.0191" stroke-linecap="round" stroke-linejoin="round"/>
<path d="M33.8998 81.3666H23.7874V98.316H33.8998V81.3666Z" fill="white" stroke="#263238" stroke-width="1.0191" stroke-linecap="round" stroke-linejoin="round"/>
<path d="M30.3488 81.3666H23.7874V98.316H30.3488V81.3666Z" fill="white" stroke="#263238" stroke-width="1.0191" stroke-linecap="round" stroke-linejoin="round"/>
<path d="M29.5327 88.5696H24.5242V96.5249H29.5327V88.5696Z" fill="#8BC4B5" stroke="#263238" stroke-width="1.0191" stroke-linecap="round" stroke-linejoin="round"/>
<path d="M170.465 86.8011H160.353V98.318H170.465V86.8011Z" fill="white" stroke="#263238" stroke-width="1.0191" stroke-linecap="round" stroke-linejoin="round"/>
<path d="M166.914 86.8011H160.353V98.318H166.914V86.8011Z" fill="white" stroke="#263238" stroke-width="1.0191" stroke-linecap="round" stroke-linejoin="round"/>
<path d="M166.098 91.6902H161.089V97.0962H166.098V91.6902Z" fill="#8BC4B5" stroke="#263238" stroke-width="1.0191" stroke-linecap="round" stroke-linejoin="round"/>
<path d="M161.921 86.8011H151.809V98.318H161.921V86.8011Z" fill="white" stroke="#263238" stroke-width="1.0191" stroke-linecap="round" stroke-linejoin="round"/>
<path d="M158.37 86.8011H151.809V98.318H158.37V86.8011Z" fill="white" stroke="#263238" stroke-width="1.0191" stroke-linecap="round" stroke-linejoin="round"/>
<path d="M157.554 91.6902H152.546V97.0962H157.554V91.6902Z" fill="#8BC4B5" stroke="#263238" stroke-width="1.0191" stroke-linecap="round" stroke-linejoin="round"/>
<path d="M153.819 81.3666H143.707V98.316H153.819V81.3666Z" fill="#8BC4B5" stroke="#263238" stroke-width="1.0191" stroke-linecap="round" stroke-linejoin="round"/>
<path d="M150.268 81.3666H143.707V98.316H150.268V81.3666Z" fill="white" stroke="#263238" stroke-width="1.0191" stroke-linecap="round" stroke-linejoin="round"/>
<path d="M149.449 88.5696H144.44V96.5249H149.449V88.5696Z" fill="#8BC4B5" stroke="#263238" stroke-width="1.0191" stroke-linecap="round" stroke-linejoin="round"/>
<path d="M145.276 81.3666H135.163V98.316H145.276V81.3666Z" fill="#8BC4B5" stroke="#263238" stroke-width="1.0191" stroke-linecap="round" stroke-linejoin="round"/>
<path d="M141.725 81.3666H135.163V98.316H141.725V81.3666Z" fill="#8BC4B5" stroke="#263238" stroke-width="1.0191" stroke-linecap="round" stroke-linejoin="round"/>
<path d="M140.905 88.5696H135.897V96.5249H140.905V88.5696Z" fill="white" stroke="#263238" stroke-width="1.0191" stroke-linecap="round" stroke-linejoin="round"/>
<path d="M137.764 86.8011H127.652V98.318H137.764V86.8011Z" fill="white" stroke="#263238" stroke-width="1.0191" stroke-linecap="round" stroke-linejoin="round"/>
<path d="M134.213 86.8011H127.652V98.318H134.213V86.8011Z" fill="white" stroke="#263238" stroke-width="1.0191" stroke-linecap="round" stroke-linejoin="round"/>
<path d="M133.393 91.6902H128.384V97.0962H133.393V91.6902Z" fill="#8BC4B5" stroke="#263238" stroke-width="1.0191" stroke-linecap="round" stroke-linejoin="round"/>
<path d="M129.216 86.8011H119.104V98.318H129.216V86.8011Z" fill="white" stroke="#263238" stroke-width="1.0191" stroke-linecap="round" stroke-linejoin="round"/>
<path d="M125.665 86.8011H119.104V98.318H125.665V86.8011Z" fill="white" stroke="#263238" stroke-width="1.0191" stroke-linecap="round" stroke-linejoin="round"/>
<path d="M124.849 91.6902H119.841V97.0962H124.849V91.6902Z" fill="#8BC4B5" stroke="#263238" stroke-width="1.0191" stroke-linecap="round" stroke-linejoin="round"/>
<path d="M121.115 81.3666H111.003V98.316H121.115V81.3666Z" fill="white" stroke="#263238" stroke-width="1.0191" stroke-linecap="round" stroke-linejoin="round"/>
<path d="M117.564 81.3666H111.003V98.316H117.564V81.3666Z" fill="white" stroke="#263238" stroke-width="1.0191" stroke-linecap="round" stroke-linejoin="round"/>
<path d="M116.744 88.5696H111.736V96.5249H116.744V88.5696Z" fill="#8BC4B5" stroke="#263238" stroke-width="1.0191" stroke-linecap="round" stroke-linejoin="round"/>
<path d="M112.568 81.3666H102.456V98.316H112.568V81.3666Z" fill="white" stroke="#263238" stroke-width="1.0191" stroke-linecap="round" stroke-linejoin="round"/>
<path d="M109.017 81.3666H102.456V98.316H109.017V81.3666Z" fill="white" stroke="#263238" stroke-width="1.0191" stroke-linecap="round" stroke-linejoin="round"/>
<path d="M108.2 88.5696H103.192V96.5249H108.2V88.5696Z" fill="#8BC4B5" stroke="#263238" stroke-width="1.0191" stroke-linecap="round" stroke-linejoin="round"/>
<path d="M91.7965 176.157H81.6841V187.674H91.7965V176.157Z" fill="white" stroke="#263238" stroke-width="1.0191" stroke-linecap="round" stroke-linejoin="round"/>
<path d="M88.2455 176.157H81.6841V187.674H88.2455V176.157Z" fill="white" stroke="#263238" stroke-width="1.0191" stroke-linecap="round" stroke-linejoin="round"/>
<path d="M87.4294 181.052H82.4209V186.458H87.4294V181.052Z" fill="#8BC4B5" stroke="#263238" stroke-width="1.0191" stroke-linecap="round" stroke-linejoin="round"/>
<path d="M83.253 176.157H73.1406V187.674H83.253V176.157Z" fill="white" stroke="#263238" stroke-width="1.0191" stroke-linecap="round" stroke-linejoin="round"/>
<path d="M79.702 176.157H73.1406V187.674H79.702V176.157Z" fill="white" stroke="#263238" stroke-width="1.0191" stroke-linecap="round" stroke-linejoin="round"/>
<path d="M78.8859 181.052H73.8774V186.458H78.8859V181.052Z" fill="#8BC4B5" stroke="#263238" stroke-width="1.0191" stroke-linecap="round" stroke-linejoin="round"/>
<path d="M75.151 170.729H65.0386V187.678H75.151V170.729Z" fill="#8BC4B5" stroke="#263238" stroke-width="1.0191" stroke-linecap="round" stroke-linejoin="round"/>
<path d="M71.6 170.729H65.0386V187.678H71.6V170.729Z" fill="white" stroke="#263238" stroke-width="1.0191" stroke-linecap="round" stroke-linejoin="round"/>
<path d="M70.7839 177.924H65.7754V185.88H70.7839V177.924Z" fill="#8BC4B5" stroke="#263238" stroke-width="1.0191" stroke-linecap="round" stroke-linejoin="round"/>
<path d="M66.6073 170.729H56.4949V187.678H66.6073V170.729Z" fill="#8BC4B5" stroke="#263238" stroke-width="1.0191" stroke-linecap="round" stroke-linejoin="round"/>
<path d="M63.0563 170.729H56.4949V187.678H63.0563V170.729Z" fill="#8BC4B5" stroke="#263238" stroke-width="1.0191" stroke-linecap="round" stroke-linejoin="round"/>
<path d="M62.2402 177.924H57.2317V185.88H62.2402V177.924Z" fill="white" stroke="#263238" stroke-width="1.0191" stroke-linecap="round" stroke-linejoin="round"/>
<path d="M59.0916 176.157H48.9792V187.674H59.0916V176.157Z" fill="white" stroke="#263238" stroke-width="1.0191" stroke-linecap="round" stroke-linejoin="round"/>
<path d="M55.5406 176.157H48.9792V187.674H55.5406V176.157Z" fill="white" stroke="#263238" stroke-width="1.0191" stroke-linecap="round" stroke-linejoin="round"/>
<path d="M54.7246 181.052H49.7161V186.458H54.7246V181.052Z" fill="#8BC4B5" stroke="#263238" stroke-width="1.0191" stroke-linecap="round" stroke-linejoin="round"/>
<path d="M50.5479 176.157H40.4355V187.674H50.5479V176.157Z" fill="white" stroke="#263238" stroke-width="1.0191" stroke-linecap="round" stroke-linejoin="round"/>
<path d="M46.9969 176.157H40.4355V187.674H46.9969V176.157Z" fill="white" stroke="#263238" stroke-width="1.0191" stroke-linecap="round" stroke-linejoin="round"/>
<path d="M46.1809 181.052H41.1724V186.458H46.1809V181.052Z" fill="#8BC4B5" stroke="#263238" stroke-width="1.0191" stroke-linecap="round" stroke-linejoin="round"/>
<path d="M42.4432 170.729H32.3308V187.678H42.4432V170.729Z" fill="white" stroke="#263238" stroke-width="1.0191" stroke-linecap="round" stroke-linejoin="round"/>
<path d="M38.8922 170.729H32.3308V187.678H38.8922V170.729Z" fill="white" stroke="#263238" stroke-width="1.0191" stroke-linecap="round" stroke-linejoin="round"/>
<path d="M38.0761 177.924H33.0676V185.88H38.0761V177.924Z" fill="#8BC4B5" stroke="#263238" stroke-width="1.0191" stroke-linecap="round" stroke-linejoin="round"/>
<path d="M33.8998 170.729H23.7874V187.678H33.8998V170.729Z" fill="white" stroke="#263238" stroke-width="1.0191" stroke-linecap="round" stroke-linejoin="round"/>
<path d="M30.3488 170.729H23.7874V187.678H30.3488V170.729Z" fill="white" stroke="#263238" stroke-width="1.0191" stroke-linecap="round" stroke-linejoin="round"/>
<path d="M29.5327 177.924H24.5242V185.88H29.5327V177.924Z" fill="#8BC4B5" stroke="#263238" stroke-width="1.0191" stroke-linecap="round" stroke-linejoin="round"/>
<path d="M170.465 176.157H160.353V187.674H170.465V176.157Z" fill="white" stroke="#263238" stroke-width="1.0191" stroke-linecap="round" stroke-linejoin="round"/>
<path d="M166.914 176.157H160.353V187.674H166.914V176.157Z" fill="white" stroke="#263238" stroke-width="1.0191" stroke-linecap="round" stroke-linejoin="round"/>
<path d="M166.098 181.052H161.089V186.458H166.098V181.052Z" fill="#8BC4B5" stroke="#263238" stroke-width="1.0191" stroke-linecap="round" stroke-linejoin="round"/>
<path d="M161.921 176.157H151.809V187.674H161.921V176.157Z" fill="white" stroke="#263238" stroke-width="1.0191" stroke-linecap="round" stroke-linejoin="round"/>
<path d="M158.37 176.157H151.809V187.674H158.37V176.157Z" fill="white" stroke="#263238" stroke-width="1.0191" stroke-linecap="round" stroke-linejoin="round"/>
<path d="M157.554 181.052H152.546V186.458H157.554V181.052Z" fill="#8BC4B5" stroke="#263238" stroke-width="1.0191" stroke-linecap="round" stroke-linejoin="round"/>
<path d="M153.819 170.729H143.707V187.678H153.819V170.729Z" fill="#8BC4B5" stroke="#263238" stroke-width="1.0191" stroke-linecap="round" stroke-linejoin="round"/>
<path d="M150.268 170.729H143.707V187.678H150.268V170.729Z" fill="white" stroke="#263238" stroke-width="1.0191" stroke-linecap="round" stroke-linejoin="round"/>
<path d="M149.449 177.924H144.44V185.88H149.449V177.924Z" fill="#8BC4B5" stroke="#263238" stroke-width="1.0191" stroke-linecap="round" stroke-linejoin="round"/>
<path d="M145.276 170.729H135.163V187.678H145.276V170.729Z" fill="#8BC4B5" stroke="#263238" stroke-width="1.0191" stroke-linecap="round" stroke-linejoin="round"/>
<path d="M141.725 170.729H135.163V187.678H141.725V170.729Z" fill="#8BC4B5" stroke="#263238" stroke-width="1.0191" stroke-linecap="round" stroke-linejoin="round"/>
<path d="M140.905 177.924H135.897V185.88H140.905V177.924Z" fill="white" stroke="#263238" stroke-width="1.0191" stroke-linecap="round" stroke-linejoin="round"/>
<path d="M137.764 176.157H127.652V187.674H137.764V176.157Z" fill="white" stroke="#263238" stroke-width="1.0191" stroke-linecap="round" stroke-linejoin="round"/>
<path d="M134.213 176.157H127.652V187.674H134.213V176.157Z" fill="white" stroke="#263238" stroke-width="1.0191" stroke-linecap="round" stroke-linejoin="round"/>
<path d="M133.393 181.052H128.384V186.458H133.393V181.052Z" fill="#8BC4B5" stroke="#263238" stroke-width="1.0191" stroke-linecap="round" stroke-linejoin="round"/>
<path d="M129.216 176.157H119.104V187.674H129.216V176.157Z" fill="white" stroke="#263238" stroke-width="1.0191" stroke-linecap="round" stroke-linejoin="round"/>
<path d="M125.665 176.157H119.104V187.674H125.665V176.157Z" fill="white" stroke="#263238" stroke-width="1.0191" stroke-linecap="round" stroke-linejoin="round"/>
<path d="M124.849 181.052H119.841V186.458H124.849V181.052Z" fill="#8BC4B5" stroke="#263238" stroke-width="1.0191" stroke-linecap="round" stroke-linejoin="round"/>
<path d="M121.115 170.729H111.003V187.678H121.115V170.729Z" fill="white" stroke="#263238" stroke-width="1.0191" stroke-linecap="round" stroke-linejoin="round"/>
<path d="M117.564 170.729H111.003V187.678H117.564V170.729Z" fill="white" stroke="#263238" stroke-width="1.0191" stroke-linecap="round" stroke-linejoin="round"/>
<path d="M116.744 177.924H111.736V185.88H116.744V177.924Z" fill="#8BC4B5" stroke="#263238" stroke-width="1.0191" stroke-linecap="round" stroke-linejoin="round"/>
<path d="M112.568 170.729H102.456V187.678H112.568V170.729Z" fill="white" stroke="#263238" stroke-width="1.0191" stroke-linecap="round" stroke-linejoin="round"/>
<path d="M109.017 170.729H102.456V187.678H109.017V170.729Z" fill="white" stroke="#263238" stroke-width="1.0191" stroke-linecap="round" stroke-linejoin="round"/>
<path d="M108.2 177.924H103.192V185.88H108.2V177.924Z" fill="#8BC4B5" stroke="#263238" stroke-width="1.0191" stroke-linecap="round" stroke-linejoin="round"/>
<path d="M23.8525 115.204H27.2392C28.001 115.204 28.7317 115.507 29.2704 116.045C29.8091 116.584 30.1118 117.315 30.1118 118.077V127.871H20.9905V118.077C20.9905 117.317 21.2917 116.588 21.8281 116.049C22.3645 115.511 23.0925 115.207 23.8525 115.204Z" fill="#8BC4B5" stroke="#263238" stroke-width="1.0191" stroke-linecap="round" stroke-linejoin="round"/>
<path d="M27.62 111.668H23.8623V115.203H27.62V111.668Z" fill="#263238" stroke="#263238" stroke-width="1.0191" stroke-linecap="round" stroke-linejoin="round"/>
<path d="M27.6209 119.036H21.7273V124.93H27.6209V119.036Z" fill="white" stroke="#263238" stroke-width="1.0191" stroke-linecap="round" stroke-linejoin="round"/>
<path d="M34.6141 115.204H38.0008C38.7626 115.204 39.4933 115.507 40.032 116.045C40.5707 116.584 40.8734 117.315 40.8734 118.077V127.871H31.7415V118.077C31.7415 117.699 31.8158 117.326 31.9601 116.977C32.1045 116.629 32.3161 116.312 32.5828 116.045C32.8496 115.779 33.1662 115.567 33.5148 115.423C33.8633 115.278 34.2368 115.204 34.6141 115.204Z" fill="#8BC4B5" stroke="#263238" stroke-width="1.0191" stroke-linecap="round" stroke-linejoin="round"/>
<path d="M38.3742 111.674H34.6165V115.209H38.3742V111.674Z" fill="#263238" stroke="#263238" stroke-width="1.0191" stroke-linecap="round" stroke-linejoin="round"/>
<path d="M38.3719 119.036H32.4783V124.93H38.3719V119.036Z" fill="white" stroke="#263238" stroke-width="1.0191" stroke-linecap="round" stroke-linejoin="round"/>
<path d="M45.3682 108.425H48.7602C49.5211 108.427 50.2504 108.73 50.788 109.268C51.3256 109.807 51.6275 110.537 51.6275 111.298V127.871H42.4956V111.298C42.4956 110.536 42.7983 109.805 43.337 109.267C43.8757 108.728 44.6063 108.425 45.3682 108.425Z" fill="#8BC4B5" stroke="#263238" stroke-width="1.0191" stroke-linecap="round" stroke-linejoin="round"/>
<path d="M49.1283 104.889H45.3706V108.424H49.1283V104.889Z" fill="#263238" stroke="#263238" stroke-width="1.0191" stroke-linecap="round" stroke-linejoin="round"/>
<path d="M49.126 112.263H43.2324V124.93H49.126V112.263Z" fill="white" stroke="#263238" stroke-width="1.0191" stroke-linecap="round" stroke-linejoin="round"/>
<path d="M56.1224 115.204H59.5091C60.2709 115.204 61.0016 115.507 61.5403 116.045C62.079 116.584 62.3817 117.315 62.3817 118.077V127.871H53.2498V118.077C53.2498 117.315 53.5524 116.584 54.0911 116.045C54.6298 115.507 55.3605 115.204 56.1224 115.204Z" fill="#8BC4B5" stroke="#263238" stroke-width="1.0191" stroke-linecap="round" stroke-linejoin="round"/>
<path d="M59.8793 111.674H56.1216V115.209H59.8793V111.674Z" fill="#263238" stroke="#263238" stroke-width="1.0191" stroke-linecap="round" stroke-linejoin="round"/>
<path d="M59.8802 119.036H53.9866V124.93H59.8802V119.036Z" fill="white" stroke="#263238" stroke-width="1.0191" stroke-linecap="round" stroke-linejoin="round"/>
<path d="M66.8765 115.204H70.2632C71.0251 115.204 71.7557 115.507 72.2944 116.045C72.8332 116.584 73.1358 117.315 73.1358 118.077V127.871H64.0039V118.077C64.0039 117.315 64.3066 116.584 64.8453 116.045C65.384 115.507 66.1146 115.204 66.8765 115.204Z" fill="#8BC4B5" stroke="#263238" stroke-width="1.0191" stroke-linecap="round" stroke-linejoin="round"/>
<path d="M70.6334 111.668H66.8757V115.203H70.6334V111.668Z" fill="#263238" stroke="#263238" stroke-width="1.0191" stroke-linecap="round" stroke-linejoin="round"/>
<path d="M70.6343 119.036H64.7407V124.93H70.6343V119.036Z" fill="white" stroke="#263238" stroke-width="1.0191" stroke-linecap="round" stroke-linejoin="round"/>
<path d="M77.6355 111.674H81.0222C81.784 111.674 82.5147 111.976 83.0534 112.515C83.5921 113.054 83.8948 113.784 83.8948 114.546V127.881H74.7576V114.546C74.7576 114.169 74.832 113.795 74.9767 113.446C75.1214 113.097 75.3335 112.78 75.6008 112.513C75.8681 112.246 76.1854 112.035 76.5345 111.891C76.8837 111.747 77.2578 111.673 77.6355 111.674Z" fill="#8BC4B5" stroke="#263238" stroke-width="1.0191" stroke-linecap="round" stroke-linejoin="round"/>
<path d="M81.3942 108.137H77.6365V111.672H81.3942V108.137Z" fill="#263238" stroke="#263238" stroke-width="1.0191" stroke-linecap="round" stroke-linejoin="round"/>
<path d="M81.388 115.499H75.4944V124.927H81.388V115.499Z" fill="white" stroke="#263238" stroke-width="1.0191" stroke-linecap="round" stroke-linejoin="round"/>
<path d="M106.239 115.204H109.626C110.388 115.204 111.118 115.507 111.657 116.045C112.196 116.584 112.498 117.315 112.498 118.077V127.871H103.351V118.077C103.351 117.698 103.425 117.323 103.571 116.974C103.716 116.624 103.929 116.307 104.198 116.04C104.466 115.773 104.785 115.562 105.135 115.418C105.485 115.275 105.861 115.202 106.239 115.204Z" fill="#8BC4B5" stroke="#263238" stroke-width="1.0191" stroke-linecap="round" stroke-linejoin="round"/>
<path d="M109.998 111.668H106.24V115.203H109.998V111.668Z" fill="#263238" stroke="#263238" stroke-width="1.0191" stroke-linecap="round" stroke-linejoin="round"/>
<path d="M109.999 119.036H104.105V124.93H109.999V119.036Z" fill="white" stroke="#263238" stroke-width="1.0191" stroke-linecap="round" stroke-linejoin="round"/>
<path d="M116.995 115.204H120.382C121.143 115.204 121.874 115.507 122.413 116.045C122.952 116.584 123.254 117.315 123.254 118.077V127.871H114.122V118.077C114.122 117.315 114.425 116.584 114.964 116.045C115.502 115.507 116.233 115.204 116.995 115.204Z" fill="#8BC4B5" stroke="#263238" stroke-width="1.0191" stroke-linecap="round" stroke-linejoin="round"/>
<path d="M120.752 111.674H116.994V115.209H120.752V111.674Z" fill="#263238" stroke="#263238" stroke-width="1.0191" stroke-linecap="round" stroke-linejoin="round"/>
<path d="M120.75 119.036H114.856V124.93H120.75V119.036Z" fill="white" stroke="#263238" stroke-width="1.0191" stroke-linecap="round" stroke-linejoin="round"/>
<path d="M127.731 108.425H131.118C131.88 108.425 132.611 108.728 133.149 109.267C133.688 109.805 133.991 110.536 133.991 111.298V127.871H124.88V111.298C124.88 110.54 125.18 109.812 125.714 109.274C126.248 108.736 126.973 108.431 127.731 108.425Z" fill="#8BC4B5" stroke="#263238" stroke-width="1.0191" stroke-linecap="round" stroke-linejoin="round"/>
<path d="M131.51 104.889H127.752V108.424H131.51V104.889Z" fill="#263238" stroke="#263238" stroke-width="1.0191" stroke-linecap="round" stroke-linejoin="round"/>
<path d="M131.51 112.263H125.617V124.93H131.51V112.263Z" fill="white" stroke="#263238" stroke-width="1.0191" stroke-linecap="round" stroke-linejoin="round"/>
<path d="M138.507 115.204H141.893C142.271 115.204 142.644 115.278 142.993 115.423C143.341 115.567 143.658 115.779 143.925 116.045C144.191 116.312 144.403 116.629 144.547 116.977C144.692 117.326 144.766 117.699 144.766 118.077V127.871H135.634V118.077C135.634 117.315 135.937 116.584 136.475 116.045C137.014 115.507 137.745 115.204 138.507 115.204Z" fill="#8BC4B5" stroke="#263238" stroke-width="1.0191" stroke-linecap="round" stroke-linejoin="round"/>
<path d="M142.264 111.674H138.506V115.209H142.264V111.674Z" fill="#263238" stroke="#263238" stroke-width="1.0191" stroke-linecap="round" stroke-linejoin="round"/>
<path d="M142.264 119.036H136.371V124.93H142.264V119.036Z" fill="white" stroke="#263238" stroke-width="1.0191" stroke-linecap="round" stroke-linejoin="round"/>
<path d="M149.261 115.204H152.642C153.019 115.204 153.393 115.278 153.741 115.423C154.09 115.567 154.407 115.779 154.673 116.045C154.94 116.312 155.152 116.629 155.296 116.977C155.44 117.326 155.515 117.699 155.515 118.077V127.871H146.388V118.077C146.388 117.315 146.691 116.584 147.23 116.045C147.768 115.507 148.499 115.204 149.261 115.204Z" fill="#8BC4B5" stroke="#263238" stroke-width="1.0191" stroke-linecap="round" stroke-linejoin="round"/>
<path d="M153.018 111.668H149.26V115.203H153.018V111.668Z" fill="#263238" stroke="#263238" stroke-width="1.0191" stroke-linecap="round" stroke-linejoin="round"/>
<path d="M153.019 119.036H147.125V124.93H153.019V119.036Z" fill="white" stroke="#263238" stroke-width="1.0191" stroke-linecap="round" stroke-linejoin="round"/>
<path d="M160.015 111.674H163.402C164.163 111.674 164.894 111.976 165.433 112.515C165.972 113.054 166.274 113.784 166.274 114.546V127.881H157.142V114.546C157.142 113.784 157.445 113.054 157.984 112.515C158.522 111.976 159.253 111.674 160.015 111.674Z" fill="#8BC4B5" stroke="#263238" stroke-width="1.0191" stroke-linecap="round" stroke-linejoin="round"/>
<path d="M163.772 108.137H160.014V111.672H163.772V108.137Z" fill="#263238" stroke="#263238" stroke-width="1.0191" stroke-linecap="round" stroke-linejoin="round"/>
<path d="M163.77 115.499H157.876V124.927H163.77V115.499Z" fill="white" stroke="#263238" stroke-width="1.0191" stroke-linecap="round" stroke-linejoin="round"/>
<path d="M23.8525 205.334H27.2392C28.001 205.334 28.7317 205.636 29.2704 206.175C29.8091 206.714 30.1118 207.444 30.1118 208.206V218.001H20.9905V208.206C20.9905 207.446 21.2917 206.717 21.8281 206.179C22.3645 205.64 23.0925 205.337 23.8525 205.334Z" fill="#8BC4B5" stroke="#263238" stroke-width="1.0191" stroke-linecap="round" stroke-linejoin="round"/>
<path d="M27.62 201.798H23.8623V205.333H27.62V201.798Z" fill="#263238" stroke="#263238" stroke-width="1.0191" stroke-linecap="round" stroke-linejoin="round"/>
<path d="M27.6209 209.159H21.7273V215.052H27.6209V209.159Z" fill="white" stroke="#263238" stroke-width="1.0191" stroke-linecap="round" stroke-linejoin="round"/>
<path d="M34.6141 205.334H38.0008C38.7626 205.334 39.4933 205.636 40.032 206.175C40.5707 206.714 40.8734 207.444 40.8734 208.206V218.001H31.7415V208.206C31.7415 207.829 31.8158 207.456 31.9601 207.107C32.1045 206.759 32.3161 206.442 32.5828 206.175C32.8496 205.908 33.1662 205.697 33.5148 205.552C33.8633 205.408 34.2368 205.334 34.6141 205.334Z" fill="#8BC4B5" stroke="#263238" stroke-width="1.0191" stroke-linecap="round" stroke-linejoin="round"/>
<path d="M38.3742 201.798H34.6165V205.333H38.3742V201.798Z" fill="#263238" stroke="#263238" stroke-width="1.0191" stroke-linecap="round" stroke-linejoin="round"/>
<path d="M38.3719 209.159H32.4783V215.052H38.3719V209.159Z" fill="white" stroke="#263238" stroke-width="1.0191" stroke-linecap="round" stroke-linejoin="round"/>
<path d="M45.3682 198.555H48.7602C49.5221 198.555 50.2527 198.858 50.7914 199.396C51.3302 199.935 51.6328 200.666 51.6328 201.428V218.001H42.4956V201.428C42.4956 200.666 42.7983 199.935 43.337 199.396C43.8757 198.858 44.6063 198.555 45.3682 198.555Z" fill="#8BC4B5" stroke="#263238" stroke-width="1.0191" stroke-linecap="round" stroke-linejoin="round"/>
<path d="M49.1283 195.019H45.3706V198.554H49.1283V195.019Z" fill="#263238" stroke="#263238" stroke-width="1.0191" stroke-linecap="round" stroke-linejoin="round"/>
<path d="M49.126 202.386H43.2324V215.053H49.126V202.386Z" fill="white" stroke="#263238" stroke-width="1.0191" stroke-linecap="round" stroke-linejoin="round"/>
<path d="M56.1224 205.334H59.5091C60.2709 205.334 61.0016 205.636 61.5403 206.175C62.079 206.714 62.3817 207.444 62.3817 208.206V218.001H53.2498V208.206C53.2498 207.444 53.5524 206.714 54.0911 206.175C54.6298 205.636 55.3605 205.334 56.1224 205.334Z" fill="#8BC4B5" stroke="#263238" stroke-width="1.0191" stroke-linecap="round" stroke-linejoin="round"/>
<path d="M59.8793 201.798H56.1216V205.333H59.8793V201.798Z" fill="#263238" stroke="#263238" stroke-width="1.0191" stroke-linecap="round" stroke-linejoin="round"/>
<path d="M59.8802 209.159H53.9866V215.052H59.8802V209.159Z" fill="white" stroke="#263238" stroke-width="1.0191" stroke-linecap="round" stroke-linejoin="round"/>
<path d="M66.8765 205.334H70.2632C71.0251 205.334 71.7557 205.636 72.2944 206.175C72.8332 206.714 73.1358 207.444 73.1358 208.206V218.001H64.0039V208.206C64.0039 207.444 64.3066 206.714 64.8453 206.175C65.384 205.636 66.1146 205.334 66.8765 205.334Z" fill="#8BC4B5" stroke="#263238" stroke-width="1.0191" stroke-linecap="round" stroke-linejoin="round"/>
<path d="M70.6334 201.798H66.8757V205.333H70.6334V201.798Z" fill="#263238" stroke="#263238" stroke-width="1.0191" stroke-linecap="round" stroke-linejoin="round"/>
<path d="M70.6343 209.159H64.7407V215.052H70.6343V209.159Z" fill="white" stroke="#263238" stroke-width="1.0191" stroke-linecap="round" stroke-linejoin="round"/>
<path d="M77.6355 201.798H81.0222C81.784 201.798 82.5147 202.1 83.0534 202.639C83.5921 203.178 83.8948 203.908 83.8948 204.67V218.005H74.7576V204.67C74.7576 204.293 74.832 203.919 74.9767 203.57C75.1214 203.221 75.3335 202.904 75.6008 202.637C75.8681 202.37 76.1854 202.159 76.5345 202.015C76.8837 201.871 77.2578 201.797 77.6355 201.798Z" fill="#8BC4B5" stroke="#263238" stroke-width="1.0191" stroke-linecap="round" stroke-linejoin="round"/>
<path d="M81.3942 198.261H77.6365V201.796H81.3942V198.261Z" fill="#263238" stroke="#263238" stroke-width="1.0191" stroke-linecap="round" stroke-linejoin="round"/>
<path d="M81.388 205.622H75.4944V215.051H81.388V205.622Z" fill="white" stroke="#263238" stroke-width="1.0191" stroke-linecap="round" stroke-linejoin="round"/>
<path d="M106.239 205.334H109.626C110.388 205.334 111.118 205.636 111.657 206.175C112.196 206.714 112.498 207.445 112.498 208.206V218.001H103.351V208.206C103.351 207.828 103.425 207.453 103.571 207.103C103.716 206.754 103.929 206.436 104.198 206.169C104.466 205.903 104.785 205.691 105.135 205.548C105.485 205.404 105.861 205.332 106.239 205.334Z" fill="#8BC4B5" stroke="#263238" stroke-width="1.0191" stroke-linecap="round" stroke-linejoin="round"/>
<path d="M109.998 201.798H106.24V205.333H109.998V201.798Z" fill="#263238" stroke="#263238" stroke-width="1.0191" stroke-linecap="round" stroke-linejoin="round"/>
<path d="M109.999 209.159H104.105V215.052H109.999V209.159Z" fill="white" stroke="#263238" stroke-width="1.0191" stroke-linecap="round" stroke-linejoin="round"/>
<path d="M116.995 205.334H120.382C121.143 205.334 121.874 205.636 122.413 206.175C122.952 206.714 123.254 207.444 123.254 208.206V218.001H114.122V208.206C114.122 207.444 114.425 206.714 114.964 206.175C115.502 205.636 116.233 205.334 116.995 205.334Z" fill="#8BC4B5" stroke="#263238" stroke-width="1.0191" stroke-linecap="round" stroke-linejoin="round"/>
<path d="M120.752 201.798H116.994V205.333H120.752V201.798Z" fill="#263238" stroke="#263238" stroke-width="1.0191" stroke-linecap="round" stroke-linejoin="round"/>
<path d="M120.75 209.159H114.856V215.052H120.75V209.159Z" fill="white" stroke="#263238" stroke-width="1.0191" stroke-linecap="round" stroke-linejoin="round"/>
<path d="M127.731 198.555H131.118C131.88 198.555 132.611 198.858 133.149 199.396C133.688 199.935 133.991 200.666 133.991 201.428V218.001H124.88V201.428C124.88 200.669 125.18 199.942 125.714 199.404C126.248 198.866 126.973 198.561 127.731 198.555Z" fill="#8BC4B5" stroke="#263238" stroke-width="1.0191" stroke-linecap="round" stroke-linejoin="round"/>
<path d="M131.51 195.019H127.752V198.554H131.51V195.019Z" fill="#263238" stroke="#263238" stroke-width="1.0191" stroke-linecap="round" stroke-linejoin="round"/>
<path d="M131.51 202.386H125.617V215.053H131.51V202.386Z" fill="white" stroke="#263238" stroke-width="1.0191" stroke-linecap="round" stroke-linejoin="round"/>
<path d="M138.507 205.334H141.893C142.271 205.334 142.644 205.408 142.993 205.552C143.341 205.697 143.658 205.908 143.925 206.175C144.191 206.442 144.403 206.759 144.547 207.107C144.692 207.456 144.766 207.829 144.766 208.206V218.001H135.634V208.206C135.634 207.444 135.937 206.714 136.475 206.175C137.014 205.636 137.745 205.334 138.507 205.334Z" fill="#8BC4B5" stroke="#263238" stroke-width="1.0191" stroke-linecap="round" stroke-linejoin="round"/>
<path d="M142.264 201.798H138.506V205.333H142.264V201.798Z" fill="#263238" stroke="#263238" stroke-width="1.0191" stroke-linecap="round" stroke-linejoin="round"/>
<path d="M142.264 209.159H136.371V215.052H142.264V209.159Z" fill="white" stroke="#263238" stroke-width="1.0191" stroke-linecap="round" stroke-linejoin="round"/>
<path d="M149.261 205.334H152.642C153.019 205.334 153.393 205.408 153.741 205.552C154.09 205.697 154.407 205.908 154.673 206.175C154.94 206.442 155.152 206.759 155.296 207.107C155.44 207.456 155.515 207.829 155.515 208.206V218.001H146.388V208.206C146.388 207.444 146.691 206.714 147.23 206.175C147.768 205.636 148.499 205.334 149.261 205.334Z" fill="#8BC4B5" stroke="#263238" stroke-width="1.0191" stroke-linecap="round" stroke-linejoin="round"/>
<path d="M153.018 201.798H149.26V205.333H153.018V201.798Z" fill="#263238" stroke="#263238" stroke-width="1.0191" stroke-linecap="round" stroke-linejoin="round"/>
<path d="M153.019 209.159H147.125V215.052H153.019V209.159Z" fill="white" stroke="#263238" stroke-width="1.0191" stroke-linecap="round" stroke-linejoin="round"/>
<path d="M160.015 201.798H163.402C164.163 201.798 164.894 202.1 165.433 202.639C165.972 203.178 166.274 203.908 166.274 204.67V218.005H157.142V204.67C157.142 203.908 157.445 203.178 157.984 202.639C158.522 202.1 159.253 201.798 160.015 201.798Z" fill="#8BC4B5" stroke="#263238" stroke-width="1.0191" stroke-linecap="round" stroke-linejoin="round"/>
<path d="M163.772 198.261H160.014V201.796H163.772V198.261Z" fill="#263238" stroke="#263238" stroke-width="1.0191" stroke-linecap="round" stroke-linejoin="round"/>
<path d="M163.77 205.622H157.876V215.051H163.77V205.622Z" fill="white" stroke="#263238" stroke-width="1.0191" stroke-linecap="round" stroke-linejoin="round"/>
<path d="M30.1637 139.609H21.7632L23.862 157.639H28.0649L30.1637 139.609Z" fill="white" stroke="#263238" stroke-width="1.0191" stroke-linecap="round" stroke-linejoin="round"/>
<path d="M23.5281 154.77L23.862 157.637H28.0649L28.3988 154.77H23.5281Z" fill="#263238" stroke="#263238" stroke-width="1.0191" stroke-linecap="round" stroke-linejoin="round"/>
<path d="M27.4989 143.089H24.0168V151.696H27.4989V143.089Z" fill="#8BC4B5" stroke="#263238" stroke-width="1.0191" stroke-linecap="round" stroke-linejoin="round"/>
<path d="M40.4131 139.609H32.0073L34.1114 157.639H38.309L40.4131 139.609Z" fill="white" stroke="#263238" stroke-width="1.0191" stroke-linecap="round" stroke-linejoin="round"/>
<path d="M33.7791 154.77L34.113 157.637H38.3106L38.6445 154.77H33.7791Z" fill="#263238" stroke="#263238" stroke-width="1.0191" stroke-linecap="round" stroke-linejoin="round"/>
<path d="M37.7467 143.089H34.2646V151.696H37.7467V143.089Z" fill="#8BC4B5" stroke="#263238" stroke-width="1.0191" stroke-linecap="round" stroke-linejoin="round"/>
<path d="M50.657 139.609H42.2512L44.3553 157.639H48.5529L50.657 139.609Z" fill="white" stroke="#263238" stroke-width="1.0191" stroke-linecap="round" stroke-linejoin="round"/>
<path d="M44.0227 154.77L44.3566 157.637H48.5542L48.8934 154.77H44.0227Z" fill="#263238" stroke="#263238" stroke-width="1.0191" stroke-linecap="round" stroke-linejoin="round"/>
<path d="M47.9936 143.089H44.5115V151.696H47.9936V143.089Z" fill="#8BC4B5" stroke="#263238" stroke-width="1.0191" stroke-linecap="round" stroke-linejoin="round"/>
<path d="M60.9025 139.609H52.502L54.6008 157.639H58.8037L60.9025 139.609Z" fill="white" stroke="#263238" stroke-width="1.0191" stroke-linecap="round" stroke-linejoin="round"/>
<path d="M54.2668 154.77L54.6007 157.637H58.8036L59.1375 154.77H54.2668Z" fill="#263238" stroke="#263238" stroke-width="1.0191" stroke-linecap="round" stroke-linejoin="round"/>
<path d="M58.2375 143.089H54.7554V151.696H58.2375V143.089Z" fill="#8BC4B5" stroke="#263238" stroke-width="1.0191" stroke-linecap="round" stroke-linejoin="round"/>
<path d="M72.2612 148.006H63.3784V151.08H72.2612V148.006Z" fill="#263238" stroke="#263238" stroke-width="1.0191" stroke-linecap="round" stroke-linejoin="round"/>
<path d="M73.6142 151.082H62.0337V157.845H73.6142V151.082Z" fill="#8BC4B5" stroke="#263238" stroke-width="1.0191" stroke-linecap="round" stroke-linejoin="round"/>
<path d="M71.9811 152.519H63.6548V156.415H71.9811V152.519Z" fill="white" stroke="#263238" stroke-width="1.0191" stroke-linecap="round" stroke-linejoin="round"/>
<path d="M85.3799 148.006H76.4971V151.08H85.3799V148.006Z" fill="#263238" stroke="#263238" stroke-width="1.0191" stroke-linecap="round" stroke-linejoin="round"/>
<path d="M86.7263 151.082H75.1458V157.845H86.7263V151.082Z" fill="#8BC4B5" stroke="#263238" stroke-width="1.0191" stroke-linecap="round" stroke-linejoin="round"/>
<path d="M85.097 152.519H76.7708V156.415H85.097V152.519Z" fill="white" stroke="#263238" stroke-width="1.0191" stroke-linecap="round" stroke-linejoin="round"/>
<path d="M112.132 139.609H103.731L105.83 157.639H110.033L112.132 139.609Z" fill="white" stroke="#263238" stroke-width="1.0191" stroke-linecap="round" stroke-linejoin="round"/>
<path d="M105.496 154.77L105.83 157.637H110.033L110.367 154.77H105.496Z" fill="#263238" stroke="#263238" stroke-width="1.0191" stroke-linecap="round" stroke-linejoin="round"/>
<path d="M109.467 143.089H105.985V151.696H109.467V143.089Z" fill="#8BC4B5" stroke="#263238" stroke-width="1.0191" stroke-linecap="round" stroke-linejoin="round"/>
<path d="M122.384 139.609H113.979L116.083 157.639H120.28L122.384 139.609Z" fill="white" stroke="#263238" stroke-width="1.0191" stroke-linecap="round" stroke-linejoin="round"/>
<path d="M115.747 154.77L116.081 157.637H120.279L120.613 154.77H115.747Z" fill="#263238" stroke="#263238" stroke-width="1.0191" stroke-linecap="round" stroke-linejoin="round"/>
<path d="M119.718 143.089H116.236V151.696H119.718V143.089Z" fill="#8BC4B5" stroke="#263238" stroke-width="1.0191" stroke-linecap="round" stroke-linejoin="round"/>
<path d="M132.627 139.609H124.226L126.325 157.639H130.528L132.627 139.609Z" fill="white" stroke="#263238" stroke-width="1.0191" stroke-linecap="round" stroke-linejoin="round"/>
<path d="M125.994 154.77L126.328 157.637H130.531L130.865 154.77H125.994Z" fill="#263238" stroke="#263238" stroke-width="1.0191" stroke-linecap="round" stroke-linejoin="round"/>
<path d="M129.962 143.089H126.48V151.696H129.962V143.089Z" fill="#8BC4B5" stroke="#263238" stroke-width="1.0191" stroke-linecap="round" stroke-linejoin="round"/>
<path d="M142.874 139.609H134.473L136.572 157.639H140.775L142.874 139.609Z" fill="white" stroke="#263238" stroke-width="1.0191" stroke-linecap="round" stroke-linejoin="round"/>
<path d="M136.238 154.77L136.572 157.637H140.775L141.108 154.77H136.238Z" fill="#263238" stroke="#263238" stroke-width="1.0191" stroke-linecap="round" stroke-linejoin="round"/>
<path d="M140.209 143.089H136.727V151.696H140.209V143.089Z" fill="#8BC4B5" stroke="#263238" stroke-width="1.0191" stroke-linecap="round" stroke-linejoin="round"/>
<path d="M154.232 148.006H145.349V151.08H154.232V148.006Z" fill="#263238" stroke="#263238" stroke-width="1.0191" stroke-linecap="round" stroke-linejoin="round"/>
<path d="M155.582 151.082H144.002V157.845H155.582V151.082Z" fill="#8BC4B5" stroke="#263238" stroke-width="1.0191" stroke-linecap="round" stroke-linejoin="round"/>
<path d="M153.956 152.519H145.63V156.415H153.956V152.519Z" fill="white" stroke="#263238" stroke-width="1.0191" stroke-linecap="round" stroke-linejoin="round"/>
<path d="M167.348 148.006H158.465V151.08H167.348V148.006Z" fill="#263238" stroke="#263238" stroke-width="1.0191" stroke-linecap="round" stroke-linejoin="round"/>
<path d="M168.695 151.082H157.114V157.845H168.695V151.082Z" fill="#8BC4B5" stroke="#263238" stroke-width="1.0191" stroke-linecap="round" stroke-linejoin="round"/>
<path d="M167.068 152.519H158.742V156.415H167.068V152.519Z" fill="white" stroke="#263238" stroke-width="1.0191" stroke-linecap="round" stroke-linejoin="round"/>
<path d="M178.129 101.523V97.6863L18.1648 97.6863V101.523L178.129 101.523Z" fill="white" stroke="#263238" stroke-width="1.0191" stroke-linecap="round" stroke-linejoin="round"/>
<path d="M178.133 131.442V127.605L18.1687 127.605V131.442H178.133Z" fill="white" stroke="#263238" stroke-width="1.0191" stroke-linecap="round" stroke-linejoin="round"/>
<path d="M178.129 161.368V157.53H18.1648V161.368H178.129Z" fill="white" stroke="#263238" stroke-width="1.0191" stroke-linecap="round" stroke-linejoin="round"/>
<path d="M178.129 191.294V187.457H18.1648V191.294H178.129Z" fill="white" stroke="#263238" stroke-width="1.0191" stroke-linecap="round" stroke-linejoin="round"/>
<path d="M178.133 220.896V217.058H18.1687V220.896H178.133Z" fill="white" stroke="#263238" stroke-width="1.0191" stroke-linecap="round" stroke-linejoin="round"/>
<path d="M18.9331 75.0566H15.0959V230.034H18.9331V75.0566Z" fill="white" stroke="#263238" stroke-width="1.0191" stroke-linecap="round" stroke-linejoin="round"/>
<path d="M99.4925 75.0566H95.6553V230.034H99.4925V75.0566Z" fill="white" stroke="#263238" stroke-width="1.0191" stroke-linecap="round" stroke-linejoin="round"/>
<path d="M180.051 75.0566H176.214V230.034H180.051V75.0566Z" fill="white" stroke="#263238" stroke-width="1.0191" stroke-linecap="round" stroke-linejoin="round"/>
<path d="M181.584 58.9462H11.2576V75.4398H181.584V58.9462Z" fill="#8BC4B5" stroke="#263238" stroke-width="1.0191" stroke-linecap="round" stroke-linejoin="round"/>
<path d="M131.717 58.9462H61.1316V75.4398H131.717V58.9462Z" fill="white" stroke="#263238" stroke-width="1.0191" stroke-linecap="round" stroke-linejoin="round"/>
<path d="M41.0492 65.2645H37.4823V61.6923H33.8041V65.2645H30.2319V68.9427H33.8041V72.5096H37.4823V68.9427H41.0492V65.2645Z" fill="white"/>
<path d="M161.562 65.2645H157.995V61.6923H154.317V65.2645H150.744V68.9427H154.317V72.5096H157.995V68.9427H161.562V65.2645Z" fill="white"/>
<path d="M72.1767 61.4829C73.9999 61.4829 74.779 62.5429 74.779 64.3184V65.7229C74.779 67.562 73.9204 68.5213 72.076 68.5213H70.9365V73.1005H69.6433V61.4829H72.1767ZM72.0813 67.35C73.0459 67.35 73.507 66.9048 73.507 65.7918V64.2495C73.507 63.1895 73.1254 62.6595 72.182 62.6595H70.9418V67.35H72.0813Z" fill="#8BC4B5"/>
<path d="M77.1367 67.8429V73.0687H75.8435V61.4829H77.1367V66.7034H79.9881V61.4829H81.2813V73.0899H79.9881V67.8429H77.1367Z" fill="#8BC4B5"/>
<path d="M83.9148 70.7526L83.4696 73.0899H82.2771L84.4978 61.4829H86.3899L88.6106 73.0899H87.3174L86.8722 70.7526H83.9148ZM84.0844 69.6396H86.6708L85.3564 62.9404L84.0844 69.6396Z" fill="#8BC4B5"/>
<path d="M92.1902 61.4829C94.0187 61.4829 94.7766 62.4104 94.7766 64.1329V65.0816C94.7766 66.3589 94.3314 67.1539 93.335 67.4666C94.395 67.7846 94.7978 68.6432 94.7978 69.8887V71.696C94.7599 72.1722 94.8381 72.6506 95.0257 73.0899H93.7166C93.5365 72.6431 93.4638 72.1602 93.5046 71.6801V69.8569C93.5046 68.5478 92.8898 68.1291 91.8139 68.1291H90.897V73.0899H89.6091V61.4829H92.1902ZM91.8616 66.9525C92.8898 66.9525 93.5046 66.6239 93.5046 65.3625V64.2495C93.5046 63.1895 93.123 62.6595 92.1584 62.6595H90.897V66.9525H91.8616Z" fill="#8BC4B5"/>
<path d="M100.415 73.074H99.1749L97.251 63.8361V73.0899H96.1221V61.4829H97.9294L99.8374 70.7526L101.676 61.4829H103.484V73.0899H102.259V63.7566L100.415 73.074Z" fill="#8BC4B5"/>
<path d="M106.122 70.7526L105.672 73.0899H104.479L106.7 61.4829H108.576L110.797 73.0899H109.504L109.053 70.7526H106.122ZM106.287 69.6396H108.873L107.59 62.9404L106.287 69.6396Z" fill="#8BC4B5"/>
<path d="M116.931 64.2819V65.3419H115.707V64.2289C115.707 63.1689 115.293 62.5541 114.345 62.5541C113.396 62.5541 112.988 63.1848 112.988 64.2289V70.3663C112.988 71.4263 113.417 72.0358 114.345 72.0358C115.272 72.0358 115.707 71.4104 115.707 70.3663V68.8558H116.931V70.2974C116.931 72.057 116.104 73.2177 114.313 73.2177C112.521 73.2177 111.71 72.057 111.71 70.2974V64.2819C111.71 62.5223 112.537 61.3616 114.313 61.3616C116.088 61.3616 116.931 62.5382 116.931 64.2819Z" fill="#8BC4B5"/>
<path d="M119.983 68.9029L117.53 61.4829H118.876L120.683 67.1857L122.506 61.4829H123.731L121.261 68.9029V73.0687H119.983V68.9029Z" fill="#8BC4B5"/>
<path d="M246.069 73.3165H189.905V157.099H246.069V73.3165Z" stroke="#263238" stroke-width="1.0191" stroke-linecap="round" stroke-linejoin="round"/>
<path d="M225.965 94.6191L206.784 106.486C205.807 107.091 204.721 107.497 203.587 107.682C202.453 107.867 201.294 107.826 200.176 107.563C199.057 107.3 198.002 106.819 197.07 106.147C196.137 105.476 195.346 104.627 194.742 103.65C193.522 101.678 193.136 99.3022 193.668 97.045C194.199 94.7878 195.606 92.8343 197.578 91.614L216.769 79.742C218.742 78.5219 221.119 78.1352 223.377 78.6669C225.635 79.1987 227.589 80.6052 228.811 82.5775C229.415 83.5549 229.821 84.6418 230.005 85.7761C230.189 86.9104 230.148 88.0698 229.883 89.1881C229.619 90.3065 229.137 91.3617 228.464 92.2936C227.792 93.2255 226.943 94.0157 225.965 94.6191Z" stroke="#263238" stroke-width="1.0191" stroke-linecap="round" stroke-linejoin="round"/>
<path d="M216.772 79.7375L206.988 85.7954L216.194 100.667L225.978 94.6146C226.955 94.0101 227.803 93.2191 228.474 92.2869C229.145 91.3546 229.626 90.2992 229.889 89.181C230.153 88.0629 230.193 86.9038 230.008 85.77C229.824 84.6362 229.418 83.5498 228.813 82.573C228.209 81.5961 227.418 80.7479 226.485 80.0768C225.553 79.4056 224.498 78.9246 223.38 78.6613C222.261 78.398 221.102 78.3576 219.969 78.5422C218.835 78.7269 217.748 79.133 216.772 79.7375Z" stroke="#263238" stroke-width="1.0191" stroke-linecap="round" stroke-linejoin="round"/>
<path d="M231.525 131.32L210.219 123.9C209.133 123.524 208.133 122.937 207.275 122.174C206.417 121.411 205.717 120.486 205.217 119.452C204.716 118.419 204.424 117.296 204.357 116.15C204.291 115.003 204.451 113.855 204.828 112.77C205.205 111.685 205.791 110.685 206.555 109.827C207.318 108.968 208.243 108.269 209.276 107.768C210.31 107.268 211.432 106.976 212.579 106.909C213.725 106.843 214.874 107.003 215.958 107.38L237.264 114.8C239.455 115.561 241.254 117.162 242.264 119.249C243.275 121.336 243.416 123.739 242.655 125.93C241.893 128.121 240.293 129.919 238.206 130.93C236.119 131.941 233.715 132.081 231.525 131.32Z" stroke="#263238" stroke-width="1.0191" stroke-linecap="round" stroke-linejoin="round"/>
<path d="M237.267 114.793L226.397 111.014L220.657 127.54L231.527 131.319C233.719 132.08 236.123 131.939 238.21 130.928C240.298 129.917 241.899 128.117 242.66 125.926C243.421 123.734 243.281 121.33 242.269 119.243C241.258 117.155 239.459 115.554 237.267 114.793Z" stroke="#263238" stroke-width="1.0191" stroke-linecap="round" stroke-linejoin="round"/>
<path d="M234.617 138.689H237.325" stroke="#263238" stroke-width="1.0191" stroke-linecap="round" stroke-linejoin="round"/>
<path d="M198.193 138.689H231.625" stroke="#263238" stroke-width="1.0191" stroke-linecap="round" stroke-linejoin="round"/>
<path d="M198.193 144.67H237.323" stroke="#263238" stroke-width="1.0191" stroke-linecap="round" stroke-linejoin="round"/>
<path d="M204.882 150.659H237.323" stroke="#263238" stroke-width="1.0191" stroke-linecap="round" stroke-linejoin="round"/>
<path d="M198.193 150.659H200.954" stroke="#263238" stroke-width="1.0191" stroke-linecap="round" stroke-linejoin="round"/>
<path d="M222.271 130.868H224.895" stroke="#263238" stroke-width="1.0191" stroke-linecap="round" stroke-linejoin="round"/>
<path d="M196.812 110.61V130.867H218.908" stroke="#263238" stroke-width="1.0191" stroke-linecap="round" stroke-linejoin="round"/>
<path d="M233.868 80.4197H231.34" stroke="#263238" stroke-width="1.0191" stroke-linecap="round" stroke-linejoin="round"/>
<path d="M240.084 112.903V80.4197H236.857" stroke="#263238" stroke-width="1.0191" stroke-linecap="round" stroke-linejoin="round"/>
<path d="M211.083 80.2184H196.349V89.8856" stroke="#263238" stroke-width="1.0191" stroke-linecap="round" stroke-linejoin="round"/>
<path d="M156.562 145.156C154.495 147.435 146.858 147.758 140.159 147.732C133.46 147.705 124.948 143.921 122.102 139.856C119.256 135.791 125.001 127.497 126.008 125.573C127.015 123.649 127.418 114.199 133.189 111.427C138.961 108.655 151.114 110.097 155.062 113.017C159.011 115.937 167.332 121.041 168.689 126.092C170.045 131.143 165.313 131.201 164.91 131.445C164.507 131.689 163.85 131.927 162.832 133.857C162.523 134.42 162.076 134.896 161.533 135.24C160.99 135.584 160.368 135.785 159.726 135.823L156.562 145.156Z" fill="#263238" stroke="#263238" stroke-width="1.0191" stroke-linecap="round" stroke-linejoin="round"/>
<path d="M162.8 124.549C166.637 125.561 169.16 126.796 167.246 128.142" stroke="white" stroke-width="1.0191" stroke-linecap="round" stroke-linejoin="round"/>
<path d="M147.337 121.903C147.337 121.903 154.906 122.735 160.868 124.065" stroke="white" stroke-width="1.0191" stroke-linecap="round" stroke-linejoin="round"/>
<path d="M144.074 120.664C144.074 120.664 153.789 117.426 163.011 121.411" stroke="white" stroke-width="1.0191" stroke-linecap="round" stroke-linejoin="round"/>
<path d="M155.367 116.217C155.847 116.338 156.318 116.492 156.777 116.678" stroke="white" stroke-width="1.0191" stroke-linecap="round" stroke-linejoin="round"/>
<path d="M140.587 119.664C140.587 119.664 146.454 115.642 152.687 115.843" stroke="white" stroke-width="1.0191" stroke-linecap="round" stroke-linejoin="round"/>
<path d="M125.556 139.092C124.859 139.341 124.135 139.508 123.399 139.59" stroke="white" stroke-width="1.0191" stroke-linecap="round" stroke-linejoin="round"/>
<path d="M143.099 124.894C143.099 124.894 136.125 131.869 131.641 135.605C130.342 136.703 128.908 137.631 127.374 138.367" stroke="white" stroke-width="1.0191" stroke-linecap="round" stroke-linejoin="round"/>
<path d="M138.595 123.399C138.595 123.399 131.371 131.619 124.894 134.089" stroke="white" stroke-width="1.0191" stroke-linecap="round" stroke-linejoin="round"/>
<path d="M205.108 219.165C205.108 219.165 207.605 221.418 207.933 222.059C208.262 222.7 209.486 225.435 209.036 225.504C208.585 225.573 207.499 223.829 207.175 223.098C206.852 222.366 205.585 220.448 205.585 220.448L205.108 219.165Z" fill="white" stroke="#263238" stroke-width="1.0191" stroke-linecap="round" stroke-linejoin="round"/>
<path d="M203.545 217.583C203.545 217.583 205.267 219.173 205.596 219.814C205.925 220.456 207.462 226.243 207.462 226.243C207.462 226.243 206.72 226.837 206.2 226.551C205.681 226.264 203.863 220.546 203.863 220.546L203.545 217.583Z" fill="white" stroke="#263238" stroke-width="1.0191" stroke-linecap="round" stroke-linejoin="round"/>
<path d="M199.63 215.089C199.63 215.089 202.778 216.747 203.547 217.585C204.315 218.422 205.534 225.36 205.778 225.996C206.022 226.632 204.565 227.104 204.22 226.823C203.876 226.542 202.46 220.484 202.46 220.484L199.62 215.894L199.63 215.089Z" fill="white" stroke="#263238" stroke-width="1.0191" stroke-linecap="round" stroke-linejoin="round"/>
<path d="M192.154 214.319L198.112 214.436C198.619 214.447 199.117 214.575 199.566 214.811C200.016 215.046 200.405 215.382 200.703 215.793L203.205 219.27L203.634 226.186C203.638 226.272 203.624 226.359 203.593 226.439C203.562 226.52 203.514 226.593 203.454 226.655C203.393 226.717 203.32 226.765 203.24 226.798C203.16 226.83 203.074 226.845 202.988 226.843C202.854 226.835 202.726 226.786 202.622 226.703C202.518 226.619 202.442 226.505 202.405 226.377L200.671 220.123L198.398 219.063C198.398 219.063 194.916 220.971 194.99 221.331C195.064 221.692 197.014 224.103 197.438 224.654C197.862 225.206 198.896 226.149 198.604 226.674C198.313 227.198 196.548 226.674 195.954 226.287C195.361 225.9 192.123 221.829 190.909 220.987C189.695 220.144 188.391 219.264 188.391 219.264L192.154 214.319Z" fill="white" stroke="#263238" stroke-width="1.0191" stroke-linecap="round" stroke-linejoin="round"/>
<path d="M191.091 215.916L190.28 220.395L188.923 219.308L191.091 215.916Z" fill="#263238" stroke="#263238" stroke-width="1.0191" stroke-linecap="round" stroke-linejoin="round"/>
<path d="M165.359 157.99C165.359 157.99 170.717 159.421 171.47 162.919C172.223 166.417 175.535 200.873 175.535 200.873L193.29 212.411L187.916 220.705L171.057 217.393L161.183 156.883L165.359 157.99Z" fill="white" stroke="#263238" stroke-width="1.0191" stroke-linecap="round" stroke-linejoin="round"/>
<path d="M175.534 200.87C175.534 200.87 173.186 202.111 172.354 203.224" stroke="#263238" stroke-width="1.0191" stroke-linecap="round" stroke-linejoin="round"/>
<path d="M168.274 166.033L173.012 229.707L113.17 227.269C113.17 227.269 114.855 161.486 115.576 160.076C116.297 158.666 122.105 157.993 126.902 156.488C131.698 154.983 140.253 152.11 140.253 152.11L151.51 152.587C154.658 152.725 167.67 158.804 167.648 159.329" fill="white"/>
<path d="M168.274 166.033L173.012 229.707L113.17 227.269C113.17 227.269 114.855 161.486 115.576 160.076C116.297 158.666 122.105 157.993 126.902 156.488C131.698 154.983 140.253 152.11 140.253 152.11L151.51 152.587C154.658 152.725 167.67 158.804 167.648 159.329" stroke="#263238" stroke-width="1.0191" stroke-linecap="round" stroke-linejoin="round"/>
<path d="M168.82 178.6H162.879V180.9H168.82V178.6Z" fill="#263238" stroke="#263238" stroke-width="1.0191" stroke-linecap="round" stroke-linejoin="round"/>
<path d="M133.941 154.691L134.503 178.239L141.266 179.845L137.455 185.855L146.958 212.286" fill="white"/>
<path d="M133.941 154.691L134.503 178.239L141.266 179.845L137.455 185.855L146.958 212.286" stroke="#263238" stroke-width="1.0191" stroke-linecap="round" stroke-linejoin="round"/>
<path d="M154.105 153.331C154.105 153.331 160.375 166.348 162.161 170.631C163.948 174.913 164.679 176.259 164.679 176.259L160.206 179.354L164.78 182.969L160.503 205.907" fill="white"/>
<path d="M154.105 153.331C154.105 153.331 160.375 166.348 162.161 170.631C163.948 174.913 164.679 176.259 164.679 176.259L160.206 179.354L164.78 182.969L160.503 205.907" stroke="#263238" stroke-width="1.0191" stroke-linecap="round" stroke-linejoin="round"/>
<path d="M136.209 153.702C136.209 153.702 145.272 178.034 145.988 185.814C146.703 193.595 148.452 229.158 148.452 229.158L160.112 229.688C160.112 229.688 159.678 194.178 157.886 180.97C156.095 167.763 153.546 156.733 153.079 155.403C152.669 154.397 152.135 153.446 151.489 152.573L144.292 151.513L136.209 153.702Z" fill="#8BC4B5" stroke="#263238" stroke-width="1.0191" stroke-linecap="round" stroke-linejoin="round"/>
<path d="M158.448 193.494L154.001 202.674" stroke="#263238" stroke-width="1.0191" stroke-linecap="round" stroke-linejoin="round"/>
<path d="M156.777 193.494L150.385 206.845" stroke="#263238" stroke-width="1.0191" stroke-linecap="round" stroke-linejoin="round"/>
<path d="M139.972 142.865C139.972 142.865 140.009 151.149 139.839 152.06C139.67 152.972 137.014 152.643 136.961 153.825C136.908 155.007 140.936 166.169 144.858 169.625C148.78 173.08 149.989 172.603 151.155 169.895C152.321 167.187 152.665 161.865 152.745 160.159C152.776 159.401 152.935 157.509 152.745 156.587C152.469 155.288 152.119 153.433 151.022 152.68L150.603 152.394L150.778 148.329C150.778 148.329 144.095 147.778 139.972 142.865Z" fill="white" stroke="#263238" stroke-width="1.0191" stroke-linecap="round" stroke-linejoin="round"/>
<path d="M150.599 152.394L150.774 148.329C150.774 148.329 144.096 147.799 139.972 142.865V142.918L140.248 144.19C140.248 144.19 142.845 151.827 151.018 152.67L150.599 152.394Z" fill="#263238" stroke="#263238" stroke-width="1.0191" stroke-linecap="round" stroke-linejoin="round"/>
<path d="M146.363 122.771C146.363 122.771 138.943 120.481 138.619 119.416C138.296 118.351 138.651 115.738 137.708 116.236C136.764 116.734 136.892 119.877 138.164 120.852C139.436 121.828 146.474 123.184 146.956 124.255C147.439 125.326 146.744 126.083 144.375 129.136C142.006 132.189 131.698 136.742 131.65 137.802C131.602 138.862 132.779 142.042 134.613 142.264C135.773 142.366 136.935 142.095 137.93 141.491C139.22 143.941 141.122 146.016 143.453 147.511C147.163 149.774 152.516 150.66 155.765 148.439C157.54 147.22 160.673 141.289 160.911 138.803C161.15 136.318 159.825 133.503 159.851 132.443C159.878 131.383 159.952 130.085 159.952 130.085C159.952 130.085 150.714 124.955 149.447 123.847C148.566 123.158 147.481 122.78 146.363 122.771Z" fill="white" stroke="#263238" stroke-width="1.0191" stroke-linecap="round" stroke-linejoin="round"/>
<path d="M144.774 130.061C144.774 130.061 147.424 128.365 150.074 129.695" stroke="#263238" stroke-width="1.0191" stroke-linecap="round" stroke-linejoin="round"/>
<path d="M155.187 129.822C155.187 129.822 156.878 128.974 158.468 130.914" stroke="#263238" stroke-width="1.0191" stroke-linecap="round" stroke-linejoin="round"/>
<path d="M153.743 134.39C153.743 134.39 153.536 136.219 154.039 136.637C154.543 137.056 155.587 137.358 155.031 138.127C154.474 138.895 152.757 138.948 152.01 137.994" stroke="#263238" stroke-width="1.0191" stroke-linecap="round" stroke-linejoin="round"/>
<path d="M155.957 140.931C155.957 140.931 153.79 142.415 150.302 141.079" stroke="#263238" stroke-width="1.0191" stroke-linecap="round" stroke-linejoin="round"/>
<path d="M148.139 134.059C148.107 134.786 147.668 135.358 147.164 135.331C146.661 135.305 146.268 134.706 146.3 133.98C146.332 133.254 146.767 132.687 147.275 132.708C147.784 132.729 148.171 133.339 148.139 134.059Z" fill="#263238"/>
<path d="M157.452 134.462C157.42 135.188 156.98 135.76 156.477 135.734C155.973 135.707 155.581 135.109 155.613 134.382C155.645 133.656 156.085 133.089 156.588 133.11C157.092 133.132 157.484 133.741 157.452 134.462Z" fill="#263238"/>
<path d="M150.646 131.112L144.239 130.835C143.473 130.801 142.825 131.396 142.792 132.162L142.685 134.634C142.651 135.401 143.246 136.049 144.012 136.082L150.419 136.359C151.185 136.393 151.833 135.798 151.866 135.032L151.973 132.559C152.007 131.793 151.412 131.145 150.646 131.112Z" stroke="#263238" stroke-width="1.0191" stroke-linecap="round" stroke-linejoin="round"/>
<path d="M160.223 131.53L155.129 131.309C154.363 131.276 153.715 131.87 153.682 132.636L153.575 135.109C153.542 135.875 154.136 136.523 154.902 136.556L159.996 136.777C160.762 136.81 161.41 136.216 161.443 135.45L161.551 132.977C161.584 132.211 160.989 131.563 160.223 131.53Z" stroke="#263238" stroke-width="1.0191" stroke-linecap="round" stroke-linejoin="round"/>
<path d="M152.014 131.823L153.588 131.892" stroke="#263238" stroke-width="1.0191" stroke-linecap="round" stroke-linejoin="round"/>
<path d="M142.761 133.132L139.088 132.973" stroke="#263238" stroke-width="1.0191" stroke-linecap="round" stroke-linejoin="round"/>
<path d="M145.796 211.2C145.796 211.2 149.649 211.03 151.016 210.421C152.384 209.811 162.019 207.241 162.512 207.405C164.157 208.083 165.751 208.879 167.282 209.785C168.061 210.357 169.736 214.921 170.372 216.728C170.45 216.928 170.447 217.15 170.364 217.348C170.281 217.546 170.124 217.703 169.927 217.788C169.742 217.873 169.533 217.889 169.338 217.831C169.143 217.774 168.975 217.647 168.867 217.475L167.478 215.249L168.48 219.415C168.535 219.633 168.505 219.865 168.396 220.061C168.286 220.258 168.106 220.406 167.892 220.475C167.721 220.531 167.538 220.534 167.366 220.484C167.194 220.433 167.041 220.332 166.927 220.194L163.662 216.161L162.072 214.571L165.411 220.772C165.472 220.885 165.504 221.012 165.507 221.14C165.509 221.269 165.481 221.397 165.425 221.512C165.368 221.628 165.285 221.729 165.183 221.807C165.08 221.884 164.96 221.936 164.833 221.959C164.707 221.98 164.578 221.972 164.455 221.934C164.333 221.896 164.221 221.83 164.129 221.742C163.169 220.809 160.201 217.92 159.942 217.502C159.407 216.868 158.817 216.284 158.177 215.758L161.42 221.917C161.48 222.002 161.52 222.099 161.538 222.202C161.557 222.304 161.553 222.409 161.526 222.51C161.5 222.611 161.453 222.705 161.387 222.785C161.321 222.866 161.238 222.931 161.145 222.977H161.097C159.995 223.019 159.438 222.235 158.648 221.461L155.235 218.122C155.235 218.122 150.004 219.229 148.515 218.832C147.025 218.434 143.628 215.779 143.628 215.779L145.796 211.2Z" fill="white" stroke="#263238" stroke-width="1.0191" stroke-linecap="round" stroke-linejoin="round"/>
<path d="M145.797 211.2L145.648 217.136L143.592 215.785L145.797 211.2Z" fill="#263238" stroke="#263238" stroke-width="1.0191" stroke-linecap="round" stroke-linejoin="round"/>
<path d="M167.458 215.253L166.287 212.883L162.153 209.862" fill="white"/>
<path d="M167.458 215.253L166.287 212.883L162.153 209.862" stroke="#263238" stroke-width="1.0191" stroke-linecap="round" stroke-linejoin="round"/>
<path d="M162.034 214.577L160.158 212.616" stroke="#263238" stroke-width="1.0191" stroke-linecap="round" stroke-linejoin="round"/>
<path d="M121.152 158.637C121.152 158.637 115.98 158.415 114.559 160.36C113.139 162.305 109.832 208.563 109.911 210.572C109.991 212.581 141.875 220.727 141.875 220.727L146.481 210.895L127.438 199.627L128.546 173.339" fill="white"/>
<path d="M121.152 158.637C121.152 158.637 115.98 158.415 114.559 160.36C113.139 162.305 109.832 208.563 109.911 210.572C109.991 212.581 141.875 220.727 141.875 220.727L146.481 210.895L127.438 199.627L128.546 173.339" stroke="#263238" stroke-width="1.0191" stroke-linecap="round" stroke-linejoin="round"/>
<path d="M118.964 199.891C118.964 199.891 123.956 197.411 127.444 199.626" stroke="#263238" stroke-width="1.0191" stroke-linecap="round" stroke-linejoin="round"/>
<path d="M120.934 201.452C122.502 200.505 124.296 199.996 126.128 199.979" stroke="#263238" stroke-width="1.0191" stroke-linecap="round" stroke-linejoin="round"/>
<path d="M118.45 203.909C118.566 203.703 118.699 203.506 118.847 203.321" stroke="#263238" stroke-width="1.0191" stroke-linecap="round" stroke-linejoin="round"/>
<path d="M242.527 213.315C242.527 213.315 240.158 210.305 240.158 208.476C240.158 206.648 241.987 209.34 241.987 209.34C241.987 209.34 238.118 202.244 238.441 199.339C238.764 196.435 241.663 204.395 241.663 204.395C241.663 204.395 240.699 188.056 242.31 188.591C243.921 189.126 245.967 204.491 245.967 205.471C245.967 206.452 247.361 198.698 248.437 200.956C249.513 203.214 249.497 208.588 249.497 208.588C249.497 208.588 250.896 200.415 251.972 203.214C253.048 206.012 250.689 213.421 250.689 213.421" fill="#92E3A9"/>
<path d="M253.387 215.801H240.302V226.661H253.387V215.801Z" stroke="#263238" stroke-width="1.0191" stroke-linecap="round" stroke-linejoin="round"/>
<path d="M253.491 219.567V213.392H240.241V220.484C240.241 220.905 240.408 221.31 240.707 221.608C241.005 221.906 241.409 222.074 241.831 222.074H241.916C242.337 222.074 242.742 221.906 243.04 221.608C243.338 221.31 243.506 220.905 243.506 220.484V219.588H243.591V220.484C243.591 220.905 243.758 221.31 244.056 221.608C244.354 221.906 244.759 222.074 245.181 222.074H245.265C245.687 222.074 246.091 221.906 246.39 221.608C246.688 221.31 246.855 220.905 246.855 220.484V219.588H246.94V220.484C246.94 220.905 247.108 221.31 247.406 221.608C247.704 221.906 248.108 222.074 248.53 222.074H248.61C249.031 222.074 249.436 221.906 249.734 221.608C250.032 221.31 250.2 220.905 250.2 220.484V219.588H250.284V220.484C250.284 220.905 250.452 221.31 250.75 221.608C251.048 221.906 251.453 222.074 251.874 222.074H251.954C252.376 222.074 252.78 221.906 253.078 221.608C253.376 221.31 253.544 220.905 253.544 220.484V219.588L253.491 219.567Z" fill="white" stroke="#263238" stroke-width="1.0191" stroke-linecap="round" stroke-linejoin="round"/>
<path d="M94.4524 218.557V213.993H84.4778V218.387L94.4524 218.557Z" fill="#BFBFBF" stroke="#263238" stroke-width="1.0191" stroke-linecap="round" stroke-linejoin="round"/>
<path d="M84.4769 213.994L83.4646 211.625C85.4421 211.445 87.4355 211.559 89.3794 211.964C91.1848 212.309 92.9069 212.998 94.4515 213.994H84.4769Z" fill="white" stroke="#263238" stroke-width="1.0191" stroke-linecap="round" stroke-linejoin="round"/>
<path d="M83.465 211.628C83.465 211.628 80.0836 211.797 78.2233 214.166C77.0657 215.749 76.3637 217.619 76.1934 219.572L84.4773 218.39V213.997L83.465 211.628Z" fill="white" stroke="#263238" stroke-width="1.0191" stroke-linecap="round" stroke-linejoin="round"/>
<path d="M81.7758 215.516V218.892L79.2371 219.062C79.1682 218.128 79.3512 217.193 79.7671 216.354C79.9385 215.99 80.239 215.703 80.6101 215.548C80.9813 215.393 81.3967 215.382 81.7758 215.516Z" fill="white" stroke="#263238" stroke-width="1.0191" stroke-linecap="round" stroke-linejoin="round"/>
<path d="M84.1386 228.535H78.9021L75.5208 222.615L82.1139 220.93L84.1386 228.535Z" fill="white" stroke="#263238" stroke-width="1.0191" stroke-linecap="round" stroke-linejoin="round"/>
<path d="M106.959 222.109L103.578 228.533H84.1375L81.2649 222.952L106.959 222.109Z" fill="#A6A6A6" stroke="#263238" stroke-width="1.0191" stroke-linecap="round" stroke-linejoin="round"/>
<path d="M81.2708 222.958H107.978V218.225H81.2708V222.958Z" fill="#BFBFBF" stroke="#263238" stroke-width="1.0191" stroke-linecap="round" stroke-linejoin="round"/>
<path d="M81.2647 218.214L75.0107 220.413V223.286L81.2647 222.947V218.214Z" fill="white" stroke="#263238" stroke-width="1.0191" stroke-linecap="round" stroke-linejoin="round"/>
<path d="M150.584 225.445L184.817 224.925L188.325 224.353H224.026L222.855 226.759H149.704L150.584 225.445Z" fill="#263238" stroke="#263238" stroke-width="1.0191" stroke-linecap="round" stroke-linejoin="round"/>
<path d="M231.497 216.49H187.603L193.756 172.335H237.645L231.497 216.49Z" fill="#263238" stroke="#263238" stroke-width="1.0191" stroke-linecap="round" stroke-linejoin="round"/>
<path d="M233.459 216.49H189.565L195.718 172.335H239.613L233.459 216.49Z" fill="#3D3D3D" stroke="#263238" stroke-width="1.0191" stroke-linecap="round" stroke-linejoin="round"/>
<path d="M220.309 202.729H206.545L208.861 186.108H222.625L220.309 202.729Z" fill="#3D3D3D" stroke="#263238" stroke-width="1.0191" stroke-linecap="round" stroke-linejoin="round"/>
<path d="M208.862 186.105L195.718 172.335H239.613L222.626 186.105H208.862Z" fill="#595959" stroke="#263238" stroke-width="1.0191" stroke-linecap="round" stroke-linejoin="round"/>
<path d="M206.548 202.728L190.542 216.349L233.461 216.492L220.312 202.728H206.548Z" fill="#2E2E2E" stroke="#263238" stroke-width="1.0191" stroke-linecap="round" stroke-linejoin="round"/>
<path d="M216.34 205.751C220.889 205.751 224.577 202.064 224.577 197.515C224.577 192.966 220.889 189.279 216.34 189.279C211.792 189.279 208.104 192.966 208.104 197.515C208.104 202.064 211.792 205.751 216.34 205.751Z" fill="#263238" stroke="#263238" stroke-width="1.0191" stroke-linecap="round" stroke-linejoin="round"/>
<path d="M217.094 193.34H217.624C219.049 193.34 220.416 193.907 221.424 194.914C222.432 195.922 222.998 197.289 222.998 198.715V227.865H211.72V198.715C211.72 197.289 212.286 195.922 213.294 194.914C214.302 193.907 215.669 193.34 217.094 193.34Z" fill="#595959" stroke="#263238" stroke-width="1.0191" stroke-linecap="round" stroke-linejoin="round"/>
<path d="M222.998 227.858V198.978C222.849 197.721 222.206 196.576 221.212 195.793C220.217 195.01 218.952 194.655 217.696 194.804C216.439 194.954 215.293 195.597 214.511 196.591C213.728 197.586 213.372 198.85 213.522 200.107V227.858H222.998Z" fill="#595959" stroke="#263238" stroke-width="1.0191" stroke-linecap="round" stroke-linejoin="round"/>
<path d="M219.111 213.412H218.978C218.206 213.412 217.579 214.038 217.579 214.811V219.459C217.579 220.232 218.206 220.858 218.978 220.858H219.111C219.884 220.858 220.51 220.232 220.51 219.459V214.811C220.51 214.038 219.884 213.412 219.111 213.412Z" fill="#263238" stroke="#263238" stroke-width="1.0191" stroke-linecap="round" stroke-linejoin="round"/>
<path d="M223.22 225.15H202.465V227.858H223.22V225.15Z" fill="#595959" stroke="#263238" stroke-width="1.0191" stroke-linecap="round" stroke-linejoin="round"/>
<path d="M258.826 226.728H10.5205V231.466H258.826V226.728Z" fill="#263238" stroke="#263238" stroke-width="1.0191" stroke-linecap="round" stroke-linejoin="round"/>
</svg>
