<svg width="44" height="44" viewBox="0 0 44 44" fill="none" xmlns="http://www.w3.org/2000/svg">
<rect width="44" height="44" rx="22" fill="#224A46"/>
<path d="M32 16.25V21.35C32 22.62 31.58 23.69 30.83 24.43C30.09 25.18 29.02 25.6 27.75 25.6V27.41C27.75 28.09 26.99 28.5 26.43 28.12L25.46 27.48C25.55 27.17 25.59 26.83 25.59 26.47V22.4C25.59 20.36 24.23 19 22.19 19H15.4C15.26 19 15.13 19.01 15 19.02V16.25C15 13.7 16.7 12 19.25 12H27.75C30.3 12 32 13.7 32 16.25Z" stroke="white" stroke-width="1.5" stroke-miterlimit="10" stroke-linecap="round" stroke-linejoin="round"/>
<path d="M25.59 22.4V26.47C25.59 26.83 25.55 27.17 25.46 27.48C25.09 28.95 23.87 29.87 22.19 29.87H19.47L16.45 31.88C16 32.19 15.4 31.86 15.4 31.32V29.87C14.38 29.87 13.53 29.53 12.94 28.94C12.34 28.34 12 27.49 12 26.47V22.4C12 20.5 13.18 19.19 15 19.02C15.13 19.01 15.26 19 15.4 19H22.19C24.23 19 25.59 20.36 25.59 22.4Z" stroke="white" stroke-width="1.5" stroke-miterlimit="10" stroke-linecap="round" stroke-linejoin="round"/>
</svg>
