<svg width="44" height="44" viewBox="0 0 44 44" fill="none" xmlns="http://www.w3.org/2000/svg">
<rect width="43.8003" height="43.8018" rx="21.9001" fill="#DAFFF5"/>
<path d="M22 16.4395V19.7695" stroke="#224A46" stroke-width="1.5" stroke-miterlimit="10" stroke-linecap="round"/>
<path d="M22.0199 12C18.3399 12 15.3599 14.98 15.3599 18.66V20.76C15.3599 21.44 15.0799 22.46 14.7299 23.04L13.4599 25.16C12.6799 26.47 13.2199 27.93 14.6599 28.41C19.4399 30 24.6099 30 29.3899 28.41C30.7399 27.96 31.3199 26.38 30.5899 25.16L29.3199 23.04C28.9699 22.46 28.6899 21.43 28.6899 20.76V18.66C28.6799 15 25.6799 12 22.0199 12Z" stroke="#224A46" stroke-width="1.5" stroke-miterlimit="10" stroke-linecap="round"/>
<path d="M25.3299 28.8203C25.3299 30.6503 23.8299 32.1503 21.9999 32.1503C21.0899 32.1503 20.2499 31.7703 19.6499 31.1703C19.0499 30.5703 18.6699 29.7303 18.6699 28.8203" stroke="#224A46" stroke-width="1.5" stroke-miterlimit="10"/>
</svg>
